<?xml version="1.0" standalone="no"?>
<!DOCTYPE svg PUBLIC "-//W3C//DTD SVG 1.1//EN" "http://www.w3.org/Graphics/SVG/1.1/DTD/svg11.dtd" >
<svg xmlns="http://www.w3.org/2000/svg">
<metadata></metadata>
<defs>
<font id="reverie_italicitalic" horiz-adv-x="1368" >
<font-face units-per-em="2048" ascent="1536" descent="-512" />
<missing-glyph horiz-adv-x="614" />
<glyph horiz-adv-x="2048" />
<glyph horiz-adv-x="2048" />
<glyph unicode="&#xd;" horiz-adv-x="2048" />
<glyph unicode=" "  horiz-adv-x="614" />
<glyph unicode="&#x09;" horiz-adv-x="614" />
<glyph unicode="&#xa0;" horiz-adv-x="614" />
<glyph unicode="!" horiz-adv-x="487" d="M53 117q7 49 51 82.5t101 33.5q56 0 87 -33t23 -83q-9 -51 -51.5 -84t-99.5 -33t-88.5 33t-22.5 84zM166 477l174 998h172l-174 -998h-172z" />
<glyph unicode="&#x22;" horiz-adv-x="757" d="M256 1016l80 459h149l-79 -459h-150zM555 1016l80 459h149l-79 -459h-150z" />
<glyph unicode="#" horiz-adv-x="1105" d="M121 446l20 121h205l111 340h-189l21 121h205l141 447h127l-141 -447h163l142 447h127l-142 -447h172l-20 -121h-189l-110 -340h172l-21 -121h-188l-141 -446h-127l141 446h-164l-141 -446h-127l141 446h-188zM473 567h164l111 340h-164z" />
<glyph unicode="$" horiz-adv-x="1097" d="M111 225q12 47 47 72t80 20q33 -5 52 -37t7 -69q-11 -25 6 -39q25 -22 74 -35.5t104 -13.5q79 0 138.5 32t70.5 99q5 25 -2 44t-20 32t-41 25t-51.5 19t-65.5 17q-68 17 -110 32.5t-95.5 46.5t-74.5 80t-9 116q19 114 110.5 177.5t223.5 76.5l31 165h127l-31 -167 q78 -10 141.5 -43t94.5 -89l-119 -116q-39 62 -88.5 87t-137.5 25q-69 0 -119.5 -27t-60.5 -83q-4 -22 0 -40t18.5 -31.5t26.5 -22.5t38.5 -17.5t39 -12t44 -10t38.5 -8.5q309 -76 272 -276q-22 -119 -120 -188t-232 -82l-29 -168h-127l29 168q-102 10 -162 41 q-77 36 -104.5 95t-13.5 105z" />
<glyph unicode="%" horiz-adv-x="1601" d="M217 0l1073 1341h180l-1073 -1341h-180zM227 1061q20 116 115 198t211 82q117 0 187.5 -82.5t50.5 -197.5q-22 -118 -115 -200.5t-209 -82.5q-118 0 -190 83.5t-50 199.5zM367 1061q-12 -66 20.5 -112t93.5 -46q60 0 110 46t62 112q11 65 -22.5 109t-93.5 44 q-61 0 -110 -44t-60 -109zM883 283q20 116 114.5 198t210.5 82q117 0 187.5 -82.5t50.5 -197.5q-22 -118 -115 -200.5t-209 -82.5q-118 0 -189.5 83.5t-49.5 199.5zM1022 283q-12 -66 21 -112t94 -46q60 0 110 46t62 112q11 65 -23 109t-94 44q-61 0 -110 -44t-60 -109z" />
<glyph unicode="&#x26;" horiz-adv-x="1409" d="M115 426q23 129 102 222.5t199 144.5q-159 99 -123 307q32 179 174.5 287t335.5 108q121 0 214 -43.5t140 -122.5q33 -49 28 -117t-52 -120q-34 -40 -69.5 -49.5t-66.5 12.5q-26 21 -25.5 55t25.5 61q13 15 15.5 35t-6.5 35q-26 49 -85 75.5t-137 26.5 q-122 0 -210.5 -63.5t-108.5 -171.5t47 -172t190 -64h17q39 0 60.5 -24t15.5 -60q-6 -35 -36.5 -58t-70.5 -23h-16q-138 0 -242 -77t-127 -204q-23 -130 51 -207.5t211 -77.5q139 0 246.5 78t130.5 207l45 248q17 97 75 147.5t150 50.5h156l-31 -165h-123q-40 0 -51 -45 l-41 -236q-35 -202 -193 -324t-376 -122q-144 0 -251 54t-158.5 156.5t-28.5 235.5z" />
<glyph unicode="'" horiz-adv-x="458" d="M256 1016l80 459h149l-79 -459h-150z" />
<glyph unicode="(" horiz-adv-x="653" d="M92 596q105 583 475 991h217q-395 -407 -499 -991q-98 -556 151 -983h-203q-241 415 -141 983z" />
<glyph unicode=")" horiz-adv-x="653" d="M-90 -387q193 207 326 445.5t186 537.5q104 585 -152 991h203q239 -419 141 -991q-99 -562 -489 -983h-215z" />
<glyph unicode="*" horiz-adv-x="999" d="M244.5 1133.5q-9.5 30.5 7.5 64.5q13 32 46.5 47t66.5 6q62 -22 121.5 -57.5t93.5 -67.5q-10 48 -10 122t12 143q6 35 35 59.5t63 24.5t54 -24.5t14 -59.5q-12 -71 -37.5 -145t-53.5 -120q46 32 118.5 67.5t142.5 57.5q35 9 62.5 -6t33.5 -47q5 -34 -16.5 -65t-57.5 -41 q-153 -46 -270 -39q38 -29 82 -81t75 -108q15 -28 3.5 -61t-42.5 -55q-31 -20 -64 -15t-48 33q-67 125 -78 242q-45 -110 -164 -242q-25 -28 -58.5 -33t-58.5 15q-25 22 -24 55t26 61q52 56 114 108t110 81q-121 -7 -258 39q-31 11 -40.5 41.5z" />
<glyph unicode="+" horiz-adv-x="1075" d="M137 403l27 144h305l53 311h158l-53 -311h305l-27 -144h-305l-55 -311h-158l55 311h-305z" />
<glyph unicode="," horiz-adv-x="497" d="M-12 -248l164 248q-49 6 -73.5 38.5t-15.5 78.5q7 49 51 82.5t101 33.5t88 -33t23 -83q-4 -18 -23 -51l-199 -314h-116z" />
<glyph unicode="-" horiz-adv-x="739" d="M66 416l26 151h596l-26 -151h-596z" />
<glyph unicode="." horiz-adv-x="487" d="M49 117q7 49 51 82.5t101 33.5q56 0 87 -33t23 -83q-9 -51 -51.5 -84t-99.5 -33t-88.5 33t-22.5 84z" />
<glyph unicode="/" horiz-adv-x="1024" d="M70 0l817 1475h174l-817 -1475h-174z" />
<glyph unicode="0" horiz-adv-x="1146" d="M94 369q0 145 81 274t210.5 204t269.5 75q172 0 284 -111t112 -276q0 -109 -48.5 -212.5t-126.5 -178t-180.5 -119.5t-206.5 -45q-173 0 -284 111t-111 278zM266 383q0 -115 63.5 -188.5t170.5 -73.5q103 0 191.5 61t137 152.5t48.5 187.5q0 112 -63 184t-169 72 q-102 0 -190.5 -59.5t-138.5 -150.5t-50 -185z" />
<glyph unicode="1" horiz-adv-x="923" d="M59 0l25 150h256l86 485q-84 -65 -199 -98l-41 139q52 15 105.5 44t92.5 59t70.5 58t47.5 46l16 18h135l-133 -751h211l-24 -150h-648z" />
<glyph unicode="2" horiz-adv-x="985" d="M16 0l25 145q104 31 207 78.5t193 106.5t151 131t74 143q25 160 -160 160q-200 0 -359 -88l31 182q81 32 153 48t187 16q200 0 284 -83t58 -235q-22 -121 -145 -240t-332 -214l100 6l262 -2q32 0 51 -23t13 -55t-32 -54t-58 -22h-703z" />
<glyph unicode="3" horiz-adv-x="901" d="M-70 -383l29 168q122 -59 258 -59q143 0 233.5 79.5t90.5 206.5q0 99 -64 143t-188 44h-66l27 151h65q133 0 199.5 46t87.5 169q20 109 -35 159t-155 50q-142 0 -267 -61l29 164q140 45 268 45q75 0 138 -16t113.5 -48.5t79 -88t28.5 -128.5q0 -119 -66.5 -222 t-173.5 -134l-2 -11q82 -15 128 -79.5t46 -165.5q0 -112 -42.5 -200.5t-116 -142.5t-166 -82t-197.5 -28q-150 0 -281 41z" />
<glyph unicode="4" horiz-adv-x="1067" d="M16 48q-19 48 19 102l559 772h213l-567 -772h350l59 331q6 35 36 60.5t65 25.5t56 -25.5t15 -60.5l-57 -325h162l-27 -156h-162l-75 -424h-173l76 424h-471q-59 0 -78 48z" />
<glyph unicode="5" horiz-adv-x="905" d="M-49 -397l29 164q109 -41 256 -41q127 0 215 78.5t110 201.5q23 126 -30.5 197t-192.5 71q-72 0 -140 -5t-100 -10l-32 -5l104 588q6 35 35 57.5t65 22.5h535q32 0 50.5 -23t12.5 -55q-6 -33 -33 -56.5t-59 -23.5h-448l-60 -338q50 6 99 6q199 0 304.5 -119t71.5 -307 q-35 -194 -172.5 -312t-349.5 -118q-164 0 -270 27z" />
<glyph unicode="6" horiz-adv-x="1091" d="M105.5 421q1.5 65 15.5 126q21 120 60 223t87.5 176.5t105 134.5t114 100t113.5 68.5t104 44t85 24t58 11.5l22 2l70 -143q-10 0 -27 -1.5t-68 -12t-100.5 -28t-115.5 -55t-121 -87.5t-108.5 -130.5t-86.5 -179.5q62 71 142 111.5t168 40.5q160 0 263 -102.5t103 -256.5 q0 -106 -42.5 -201t-113.5 -161.5t-165.5 -105.5t-196.5 -39q-77 0 -140 25t-104.5 68t-70.5 99.5t-40.5 120t-10 128.5zM272 365q-2 -98 62 -163t164 -65q129 0 227 99t98 221q0 101 -62.5 166t-164.5 65q-130 0 -227 -99.5t-97 -223.5z" />
<glyph unicode="7" horiz-adv-x="958" d="M80 -401l641 1165h-533q-34 0 -51.5 22t-11.5 56t32 57t60 23h639q48 0 66.5 -27t11.5 -70q-4 -23 -29 -71l-626 -1155h-199z" />
<glyph unicode="8" horiz-adv-x="1054" d="M84 387q19 107 88 194t176 136l2 12q-133 86 -102 266q27 146 146 246t282 100q164 0 249 -100t58 -246q-31 -178 -201 -266l-2 -12q92 -49 132.5 -136t21.5 -194q-30 -167 -169.5 -282t-326.5 -115t-285.5 114.5t-68.5 282.5zM256 387q-19 -107 32 -177.5t163 -70.5 q114 0 202 72t107 176q19 106 -33 176t-164 70q-114 0 -201 -71t-106 -175zM420 995q-14 -86 24 -142t125 -56q91 0 158.5 57.5t81.5 140.5q16 86 -22.5 141.5t-127.5 55.5t-156.5 -57t-82.5 -140z" />
<glyph unicode="9" horiz-adv-x="1091" d="M102 412q0 141 72.5 258.5t191.5 183.5t255 66q77 0 140 -25t104.5 -68.5t70.5 -100t40.5 -120t10 -128.5t-15.5 -126q-21 -120 -60 -223t-87.5 -176.5t-105 -134.5t-114 -100t-113.5 -68.5t-104.5 -44t-85.5 -24t-59 -11.5l-21 -2l-69 143q10 0 27 1.5t68 12t100.5 28 t115 55t120.5 87.5t108.5 130.5t86.5 179.5q-132 -152 -309 -152q-160 0 -263.5 102.5t-103.5 256.5zM268 442q0 -101 63 -166t165 -65q130 0 226.5 100t96.5 224q2 98 -61.5 162.5t-163.5 64.5q-129 0 -227.5 -99t-98.5 -221z" />
<glyph unicode=":" horiz-adv-x="487" d="M51 117q7 49 51 82.5t101 33.5q56 0 87 -33t23 -83q-9 -51 -51.5 -84t-99.5 -33t-88.5 33t-22.5 84zM164 756q8 50 51 83t100 33t88 -33t23 -83q-9 -51 -52 -84t-100 -33t-88 33t-22 84z" />
<glyph unicode=";" horiz-adv-x="497" d="M-12 -248l164 248q-49 6 -73.5 38.5t-15.5 78.5q7 49 51 82.5t101 33.5t88 -33t23 -83q-4 -18 -23 -51l-199 -314h-116zM176 756q7 49 51 82.5t101 33.5q56 0 87 -33t23 -83q-9 -51 -51.5 -84t-99.5 -33t-88.5 33t-22.5 84z" />
<glyph unicode="&#x3c;" horiz-adv-x="684" d="M104 489l330 414h209l-2 -18l-334 -408l178 -395l-4 -12h-194z" />
<glyph unicode="=" horiz-adv-x="1026" d="M111 229l26 144h719l-27 -144h-718zM174 582l25 143h719l-25 -143h-719z" />
<glyph unicode="&#x3e;" horiz-adv-x="684" d="M43 70l2 18l334 408l-178 395l4 12h194l183 -420l-330 -413h-209z" />
<glyph unicode="?" horiz-adv-x="911" d="M129 117q7 49 51 82.5t101 33.5q56 0 87 -33t23 -83q-9 -51 -51.5 -84t-99.5 -33t-88.5 33t-22.5 84zM217 391l25 266q1 28 23.5 50t51.5 28q74 16 143.5 49t129.5 81t96.5 118t36.5 150q2 87 -46.5 134.5t-146.5 47.5q-155 0 -282 -58l31 177q156 41 272 41 q160 0 259 -86.5t99 -227.5q0 -102 -39.5 -194t-108.5 -162t-159 -121.5t-194 -81.5l-37 -211h-154z" />
<glyph unicode="@" horiz-adv-x="1734" d="M123 487q36 201 122.5 355t208.5 248t266.5 141t307.5 47q155 0 278.5 -43.5t207 -127t115.5 -215t3 -298.5q-42 -234 -140 -363.5t-251 -144.5q-84 -8 -130.5 24t-49.5 99q-9 -18 -25 -37.5t-46 -45.5t-79.5 -42t-109.5 -16q-189 0 -269.5 108t-44.5 320 q38 211 154 317.5t305 106.5t272.5 -107.5t45.5 -316.5l-39 -226q-4 -20 8.5 -32t32.5 -7q35 7 62.5 25.5t55.5 56.5t50.5 107.5t40.5 169.5q50 277 -72 413t-393 136q-291 0 -484.5 -168t-249.5 -484q-54 -307 51.5 -461.5t393.5 -154.5q65 0 152.5 15t140.5 36l4 -147 q-62 -22 -152 -35.5t-166 -13.5q-338 0 -489.5 195.5t-87.5 565.5zM643 498q-51 -303 180 -303q172 0 260 155l25 148q54 299 -172 299q-115 0 -190.5 -74.5t-102.5 -224.5z" />
<glyph unicode="A" d="M119 0l92 530q4 25 -8 33q-28 15 -28 51q0 8 1 17q8 50 51 69q7 4 12.5 12t6.5 14l2 7l49 281q37 217 182.5 349t356.5 132q212 0 320 -133q80 -99 80 -243q0 -50 -9 -105l-148 -830q-3 -23 9.5 -36t39.5 -7q36 9 59 -7q25 -17 25 -55q0 -35 -28 -62q-30 -29 -92 -35 q-17 -1 -33 -1q-81 1 -123 39q-38 35 -37 97q0 21 4 45l70 395h-586l-96 -557h-172zM414 707h585l56 307q8 46 8 87q0 90 -41 152q-60 90 -193 90q-135 0 -234.5 -91t-125.5 -238z" />
<glyph unicode="B" horiz-adv-x="1294" d="M176 199l86 495q4 25 -8 33q-28 15 -28 51q0 8 1 17q8 49 52 69q7 4 12 12t7 14l1 7l86 492q6 36 32.5 61t61.5 25h248h20q237 1 342 -93q86 -77 86 -198q0 -33 -6 -70q-37 -216 -241 -309q145 -33 203 -129q38 -63 38 -157q0 -48 -10 -105q-71 -414 -616 -414h-23h-188 q-93 0 -134 52q-28 35 -28 91q0 26 6 56zM346 195q-1 -5 -1 -9q0 -13 7 -23q9 -13 29 -13h143q24 -1 47 -1q369 0 420 289q5 39 5 72q0 16 -1 32q-4 44 -27.5 76t-54.5 52.5t-77 32t-94 14.5q-24 2 -51 1.5t-56 -1.5h-197zM465 866h149h18q148 0 244 62q100 66 119 168 q4 20 4 39q-1 76 -59 129q-68 61 -215 61h-18h-160z" />
<glyph unicode="C" horiz-adv-x="1587" d="M160 569q0 139 41 275t119.5 253t184 206.5t245 140.5t292.5 51q282 0 443 -149q76 -68 76 -164q0 -43 -16 -82.5t-36 -63.5q-47 -53 -106 -53q-31 0 -55 18q-21 17 -21 50q1 5 1 10q4 41 34 69q11 12 12 28t-8 28q-53 67 -139.5 105t-198.5 38q-143 0 -270 -60.5 t-215 -161.5t-139.5 -235t-51.5 -278q0 -206 114.5 -327.5t324.5 -121.5q152 0 287.5 64t224.5 178l88 -156q-117 -120 -275 -185.5t-340 -65.5q-289 0 -452.5 159.5t-163.5 429.5z" />
<glyph unicode="D" horiz-adv-x="1441" d="M180 199l187 1063q6 27 -15 41q-20 12 -27.5 17.5t-17 21.5t-8.5 38q3 40 34 69q28 26 73 26h10h348q161 0 288.5 -54.5t206.5 -151t109 -233.5q15 -69 14 -145q0 -74 -14 -154q-59 -330 -288.5 -533.5t-553.5 -203.5h-182q-83 0 -131 58q-37 44 -37 103q0 18 4 38z M352 199q-1 -5 -1 -10q1 -15 9 -25q12 -14 31 -14h127q256 0 438.5 162t229.5 431q13 77 13 145q0 170 -82 282q-115 156 -369 155h-197z" />
<glyph unicode="E" horiz-adv-x="1206" d="M180 199l58 331q3 25 -9 33q-28 14 -28 49q0 9 2 19q8 50 51 69q7 4 12 12t6 14l2 7l117 662q6 35 34 57.5t64 22.5h758l-24 -150h-672l-111 -618h471l-26 -150h-471l-64 -362q-3 -19 6 -32t29 -13h653l-24 -150h-678q-93 0 -134 52q-28 35 -28 91q0 26 6 56z" />
<glyph unicode="F" horiz-adv-x="1206" d="M145 0l93 530q3 25 -9 33q-28 14 -28 49q0 9 2 19q8 50 51 69q7 4 12 12t6 14l2 7l117 662q6 35 34 57.5t64 22.5h758l-24 -150h-672l-111 -618h471l-26 -150h-471l-97 -557h-172z" />
<glyph unicode="G" horiz-adv-x="1607" d="M158 569q0 139 41 275t119.5 253t184 206.5t245 140.5t292.5 51q282 0 443 -149q65 -59 73 -148q2 -12 2 -23q0 -76 -51 -139q-47 -53 -106 -53q-31 0 -55 18q-21 17 -21 50q0 5 1 10q3 41 34 69q26 30 4 56q-68 70 -148.5 106.5t-189.5 36.5q-141 0 -267.5 -60.5 t-215.5 -160.5t-141 -232.5t-52 -273.5q0 -210 113.5 -333.5t324.5 -123.5q124 0 240 44t203 122l43 246h-354l26 150h440q36 0 57.5 -23t14.5 -57l-69 -396q-117 -120 -275 -185.5t-340 -65.5q-289 0 -452.5 159.5t-163.5 429.5z" />
<glyph unicode="H" horiz-adv-x="1376" d="M139 0l228 1290q3 23 -10 36t-40 7q-36 -9 -59 7q-25 18 -25 56q0 35 29 62q31 29 92 35q16 1 31 1q83 0 125 -43q35 -37 34 -101q0 -25 -5 -54l-105 -589h582l135 768h172l-258 -1475h-172l96 557h-581l-97 -557h-172z" />
<glyph unicode="I" horiz-adv-x="622" d="M139 0l228 1290q3 23 -10 36t-40 7q-36 -9 -59 7q-25 18 -25 56q0 35 29 62q31 29 92 35q16 1 31 1q83 0 125 -43q35 -37 34 -101q0 -25 -5 -54l-228 -1296h-172z" />
<glyph unicode="J" horiz-adv-x="831" d="M37 165q9 32 37 52q25 19 53 19q5 0 10 -1q34 -4 47 -32q26 -64 88 -64q65 0 115 39.5t59 95.5l209 1201h172l-209 -1201q-22 -122 -126 -208t-230 -86q-73 0 -131.5 33t-89.5 91q-8 17 -8 35q0 13 4 26z" />
<glyph unicode="K" horiz-adv-x="1370" d="M143 0l95 537q3 24 -9 32q-29 16 -29 51q0 8 1 17q11 52 51 70q7 4 12 12t6 14l2 6l99 551q3 23 -9.5 36t-39.5 7q-36 -9 -59 7q-25 18 -25 56q0 35 28 62q30 29 92 35q16 1 31 1q83 0 125 -43q35 -37 34 -101q0 -25 -5 -54l-103 -587q233 0 415 203.5t253 562.5h176 q-54 -312 -195 -527.5t-356 -308.5q85 -32 135.5 -122t73.5 -265q7 -64 33 -93t53 -25t47 26q18 21 6 39q-7 15 -7 31t6 32q13 34 42 49q22 11 44 11q15 0 29 -4q37 -12 54 -54q8 -12 8 -36q0 -14 -3 -31q-7 -48 -37 -93q-80 -124 -234 -124q-81 0 -132 45t-63 141 q-16 121 -35.5 190.5t-57 116.5t-92 63.5t-144.5 16.5h-47l-97 -553h-172z" />
<glyph unicode="L" horiz-adv-x="1038" d="M174 199l223 1276h172l-225 -1280q-3 -19 6 -32t29 -13h516l-25 -150h-540q-93 0 -134 52q-28 35 -28 91q0 26 6 56z" />
<glyph unicode="M" horiz-adv-x="2021" d="M176 0l225 1290q3 23 -9.5 36t-37.5 7q-37 -9 -60 7t-26 51q0 38 31 67t90 35q16 1 31 1q83 0 124 -43q34 -37 34 -100q0 -25 -5 -55l-63 -368q24 71 45 125.5t49 116t55.5 106.5t62.5 88.5t72.5 70.5t84 43.5t98.5 16.5q88 0 141.5 -34t73.5 -101q19 -62 19 -138 q1 -6 1 -12q-2 -82 -22 -196l-16 -88q24 71 45 125.5t49 116.5t55.5 107t63 88.5t73 71t84 44t98.5 16.5q115 0 172.5 -61.5t60.5 -168.5v-25q0 -98 -20 -226l-147 -830q-3 -23 9.5 -36t37.5 -7q36 9 59 -7q25 -17 25 -55q-1 -35 -29 -62q-30 -29 -90 -35q-17 -1 -32 -1 q-81 0 -123 39q-37 35 -37 97q0 21 4 45l151 852q10 56 15.5 92.5t8.5 78.5q1 16 1 29q0 22 -3 38q-5 26 -16 48.5t-33 32.5t-54 10q-101 0 -215 -175t-203 -433.5t-137 -527.5v2l-37 -209h-170l178 1014q10 56 15 93t8 79q1 16 1 28q0 22 -3 38q-5 26 -16 48.5t-33 32.5 t-54 10q-93 0 -198.5 -151t-190.5 -378t-141 -480l-58 -334h-172z" />
<glyph unicode="N" horiz-adv-x="1437" d="M170 -10l227 1300q3 23 -9.5 36t-37.5 7q-37 -9 -60 7t-26 51q0 38 31 67t90 35q16 1 31 1q83 0 124 -43q34 -37 34 -100q0 -25 -5 -55l-67 -383q37 98 74.5 177t87 157t102.5 130.5t120.5 85t141.5 32.5q267 0 267 -308q0 -77 -17 -173l-148 -830q-3 -23 10 -36t38 -7 q36 9 59 -7q25 -17 25 -55q0 -35 -28 -62q-30 -29 -91 -35q-17 -1 -32 -1q-81 0 -123 39q-38 35 -38 97q0 21 4 45l152 852q17 102 17 174q1 71 -33 113t-103 42q-98 0 -216 -153.5t-217.5 -389.5t-156.5 -487l-55 -323h-172z" />
<glyph unicode="O" horiz-adv-x="1712" d="M154 569q0 149 42.5 289.5t122.5 255t187.5 200.5t244 133.5t285.5 47.5q289 0 453 -160t164 -430q0 -187 -67.5 -357t-183.5 -295t-281 -199t-351 -74q-289 0 -452.5 159.5t-163.5 429.5zM346 602q0 -210 113.5 -333.5t324.5 -123.5q147 0 276 64t215 167.5t135.5 233.5 t49.5 262q0 210 -113.5 333.5t-324.5 123.5q-147 0 -276 -64t-215 -167.5t-135.5 -233.5t-49.5 -262z" />
<glyph unicode="P" horiz-adv-x="1263" d="M150 0l92 528q3 25 -9 33q-28 14 -28 49q0 9 2 19q8 50 51 69q6 4 10.5 12t5.5 14l2 7l119 664q6 35 34.5 57.5t64.5 22.5h245q13 0 26 1q234 0 362 -88q135 -92 135 -268q0 -118 -34 -213.5t-93.5 -161t-143 -109t-179.5 -62.5q-87 -17 -185 -17h-21h-188l-96 -557h-172 zM444 707h168h13q125 1 225 37q104 38 169.5 126.5t65.5 216.5q0 239 -314 239q-17 0 -36 -1h-180z" />
<glyph unicode="Q" horiz-adv-x="1712" d="M154 569q0 149 42.5 289.5t122.5 255t187.5 200.5t244 133.5t285.5 47.5q289 0 453 -160t164 -430q0 -235 -102 -438t-285 -332t-410 -151l-33 -195q-3 -23 9.5 -36t39.5 -7q36 9 59 -7q25 -17 25 -55q0 -35 -28 -62q-31 -30 -92 -36q-16 -1 -31 -1q-83 0 -125 43 q-34 37 -34 101q0 25 5 54l35 201q-252 23 -392 179.5t-140 405.5zM346 602q0 -189 92 -308.5t264 -143.5v2q25 0 35 14q25 39 74 39q51 0 63 -39q3 -8 15 -12q126 21 234.5 91t181.5 168.5t114 218t41 240.5q0 210 -113.5 333.5t-324.5 123.5q-147 0 -276 -64t-215 -167.5 t-135.5 -233.5t-49.5 -262z" />
<glyph unicode="R" horiz-adv-x="1394" d="M152 0l92 530q4 25 -8 33q-28 15 -28 51q0 8 1 17q8 50 51 69q7 4 12.5 12t7.5 14l1 7l116 662q6 35 34.5 57.5t64.5 22.5h249h19q272 0 398 -114q100 -90 100 -244q0 -47 -9 -101q-26 -152 -110 -256.5t-219 -155.5v-7q0 -91 23 -223q24 -138 48 -192q13 -28 35 -38.5 t43.5 -5t36.5 21.5q18 21 6 39q-7 15 -7 31t6 32q13 34 42 49q22 11 44 11q15 0 29 -4q37 -12 54 -54q6 -22 6 -45q0 -21 -9 -51q-10 -33 -30 -64q-80 -124 -233 -124q-118 0 -168 94q-49 97 -76 237t-33 252q-52 -7 -109 -7q-19 0 -38 1h-174l-96 -557h-172zM446 707h175 q21 -1 41 -1q62 0 118 12q74 16 137 51t106 98t58 149q8 40 8 74q1 28 -5 53q-12 54 -40 90t-76 57q-46 22 -102 30q-40 6 -88 6q-18 0 -37 -1h-184z" />
<glyph unicode="S" horiz-adv-x="1183" d="M92 195l150 127q24 -80 88.5 -128.5t154.5 -48.5q47 0 94 10.5t92 33t79.5 54.5t55.5 78.5t21 100.5q0 46 -24 87t-63 70.5t-88.5 61t-102 59t-102 64.5t-88.5 76.5t-63 96t-24 122.5q0 182 138.5 309t334.5 127q46 0 93 -9t94 -29.5t83 -49.5t58.5 -72.5t22.5 -95.5 q0 -44 -14.5 -86.5t-48 -74t-79.5 -31.5q-40 0 -62 28q-18 23 -18 53v12q4 38 33 64q25 25 4 56q-56 73 -184 73q-102 0 -189 -70.5t-87 -177.5q0 -51 30.5 -96t80 -80.5t109.5 -70.5t120 -73.5t109.5 -81.5t80.5 -103t31 -129q0 -134 -75 -243t-197.5 -168.5t-264.5 -59.5 q-130 0 -233.5 58t-149.5 157z" />
<glyph unicode="T" horiz-adv-x="1124" d="M223 1366q17 62 87 90q63 26 184 25h26q78 -2 200 -29t206 -27q50 0 111.5 14t94 25t89.5 33l-29 -158q-164 -67 -291 -67q-53 0 -78 4l-225 -1276h-172l229 1303q-126 28 -141 28q-59 0 -96.5 -10.5t-50.5 -23.5t-29 -28t-33 -20q-8 -2 -16 -2q-28 1 -52 27 q-20 22 -20 54q0 17 6 38z" />
<glyph unicode="U" d="M231 461l148 829q3 23 -9.5 36t-39.5 7q-36 -9 -59 7q-25 18 -25 56q0 35 29 62q31 29 92 35q16 1 31 1q83 0 124 -43q34 -37 34 -100q0 -25 -5 -55l-145 -831q-9 -47 -8 -88q0 -89 40 -151q58 -90 191 -91q135 0 235.5 92t126.5 238l176 1010h172l-178 -1014 q-37 -217 -182 -349t-356 -132q-213 0 -321 134q-80 99 -80 243q0 49 9 104z" />
<glyph unicode="V" horiz-adv-x="1370" d="M213 266l182 1026q3 23 -9.5 36t-37.5 7q-36 -9 -59 7q-25 18 -25 56q0 35 28 62q30 29 91 35q16 1 31 1q83 0 124 -43q34 -37 34 -100q0 -25 -5 -55l-190 -1083q-2 -15 -3 -28q0 -64 64 -64q80 0 163.5 47.5t156 129.5t139.5 191.5t114 233t81 255.5q33 130 38 256 q1 29 1 57q0 95 -13 182h182q13 -61 13 -132q-1 -13 -1 -25q-2 -86 -12.5 -180t-37 -194t-59.5 -199t-81.5 -194t-102.5 -180t-122.5 -157t-142 -124t-160 -81t-176.5 -29q-132 0 -180 76q-32 51 -33 127q0 38 8 83z" />
<glyph unicode="W" horiz-adv-x="1996" d="M217 266l182 1024q3 23 -9.5 36t-37.5 7q-36 -9 -59 7q-25 18 -25 56q0 35 28 62q30 29 91 35q16 1 31 1q83 0 124 -43q34 -37 34 -100q0 -25 -5 -55l-190 -1081q-2 -15 -3 -28q0 -64 64 -64q114 0 236 127t213 321t131 398l12 63l72 408h172l-215 -1225q-2 -15 -3 -28 q0 -64 64 -64q93 0 183.5 66.5t163 175.5t133.5 251.5t99 291.5t55 298q11 94 11 176q0 48 -4 93h183q2 -33 2 -70q0 -71 -8 -153q-12 -126 -42.5 -268t-78 -283.5t-119 -272t-157 -230t-200 -159t-241.5 -59.5q-132 0 -180 76q-32 51 -33 127q0 38 8 83l8 45 q-202 -331 -485 -331q-132 0 -180 76q-32 51 -33 127q0 38 8 83z" />
<glyph unicode="X" horiz-adv-x="1253" d="M43 0l567 752l-200 530q-9 17 -30 30t-52 5q-17 -5 -31 -5q-21 0 -35 10q-24 17 -26 54v11q0 37 24 67q28 34 102 41q18 2 35 1q61 0 105 -19q56 -25 73 -76l160 -477l395 551h254l-577 -758l201 -522q9 -17 30 -30t52 -5q17 5 31 4q21 0 35 -10q24 -18 26 -54v-11 q0 -38 -25 -67q-29 -33 -102 -40q-18 -2 -35 -2q-60 0 -104 20q-56 25 -74 76l-160 473l-399 -549h-240z" />
<glyph unicode="Y" horiz-adv-x="1406" d="M279 1378v6q0 97 127 109q19 2 36 2q128 0 162 -92l191 -518l436 590h229l-600 -791l-119 -684h-180l119 678l-231 606q-19 38 -55 38q-11 0 -23 -3q-16 -5 -30 -5q-20 0 -35 10q-25 18 -27 54z" />
<glyph unicode="Z" horiz-adv-x="1173" d="M30 56q-6 17 -6 34q0 39 31 78l965 1157h-586q-23 0 -39.5 -13.5t-15.5 -35.5q6 -30 -14.5 -52t-57.5 -30q-9 -2 -18 -2q-29 0 -49 18q-24 20 -23 64v10q6 90 63.5 140.5t155.5 50.5h719q64 -1 83 -57q6 -17 6 -33q0 -39 -32 -78l-964 -1157h598q23 0 39.5 13.5 t15.5 35.5q-6 30 14.5 52t57.5 30q9 2 18 2q29 0 49 -18q24 -21 23 -65v-10q-6 -90 -63.5 -140t-155.5 -50h-731q-64 0 -83 56z" />
<glyph unicode="[" horiz-adv-x="677" d="M-10 -387l348 1974h410l-27 -149h-236l-295 -1676h236l-27 -149h-409z" />
<glyph unicode="\" horiz-adv-x="1024" d="M315 1475h174l302 -1475h-175z" />
<glyph unicode="]" horiz-adv-x="677" d="M-8 -387l26 149h236l295 1676h-236l27 149h410l-349 -1974h-409z" />
<glyph unicode="^" horiz-adv-x="931" d="M168 840l405 635h142l180 -635h-168l-111 463l-270 -463h-178z" />
<glyph unicode="_" horiz-adv-x="866" d="M0 0h866v-117h-866v117z" />
<glyph unicode="`" horiz-adv-x="569" d="M362 1876l181 25l106 -273l-117 -22q-124 130 -170 270z" />
<glyph unicode="a" horiz-adv-x="1202" d="M109 305q0 170 58.5 308t180 223.5t287.5 85.5q90 0 158.5 -24t108.5 -66.5t64 -101.5q24 -60 24 -130q0 -3 -1 -6q0 -68 -10 -143l-47 -269q-3 -23 9.5 -36t37.5 -7q36 9 59 -7q25 -17 25 -55q-1 -35 -29 -62q-30 -29 -90 -35q-16 -1 -31 -1q-83 1 -124 43 q-34 36 -34 99q0 25 5 55l10 68q-23 -50 -54 -93t-75.5 -83.5t-106.5 -64t-133 -23.5q-132 0 -212 79.5t-80 245.5zM287 330q0 -213 151 -213q114 0 216 111.5t163 293.5q1 19 1 37q0 223 -208 223q-71 0 -128 -29t-92.5 -74.5t-59.5 -106.5t-33.5 -121t-9.5 -121z" />
<glyph unicode="b" horiz-adv-x="1177" d="M203 451l155 880q5 23 -7.5 36t-39.5 7q-36 -8 -59 8q-25 18 -25 55q0 35 29 62q31 29 92 35q16 1 31 1q83 0 124 -43q34 -37 34 -100q0 -25 -5 -55l-106 -592q42 72 131 124.5t207 52.5q165 0 248 -122q56 -82 56 -211q0 -62 -13 -136q-41 -234 -172 -353.5t-338 -119.5 t-295 119q-60 81 -60 215q0 63 13 137zM369 453l2 12q-2 -4 -2 -12zM375 451q-12 -69 -12 -123q0 -80 26 -128q44 -81 180 -81q115 0 200.5 86t113.5 248q13 69 13 124q0 76 -24 123q-42 82 -147 82q-71 0 -130.5 -23.5t-99.5 -63.5t-65.5 -80.5t-42.5 -86.5z" />
<glyph unicode="c" horiz-adv-x="1064" d="M115 453q41 232 172.5 351.5t339.5 119.5q149 0 233 -62q46 -34 66 -82q15 -36 15 -70q1 -12 -1 -22q-6 -44 -21 -78t-34 -55q-35 -41 -80 -49q-10 -2 -20 -1q-32 0 -56 21q-15 14 -15 38q0 12 4 26q11 44 44 74q24 27 2 55q-44 65 -148 65q-127 0 -213 -83t-116 -248 q-10 -58 -11 -107q0 -90 36 -144q54 -84 180 -83q91 0 182 28t145 72l6 -149q-129 -90 -344 -90q-210 0 -308 120q-70 86 -70 228q0 58 12 125z" />
<glyph unicode="d" horiz-adv-x="1198" d="M109 305q0 123 32 233t92.5 197t158 138t220.5 51q46 0 86 -11t65.5 -27t47 -37.5t32 -38t17.5 -32.5l133 758h172l-237 -1354q-3 -23 9.5 -36t37.5 -7q36 9 59 -7q25 -17 25 -55q-1 -35 -29 -62q-30 -29 -90 -35q-16 -1 -31 -1q-83 1 -124 43q-34 36 -34 99q0 25 5 55 l8 55q-23 -49 -54.5 -90.5t-75.5 -79t-104 -59.5t-129 -22q-132 0 -212 79.5t-80 245.5zM283 330q0 -213 155 -213q112 0 214 110.5t163 290.5l19 105q-7 27 -20.5 51.5t-38 51t-67.5 42.5t-100 16q-82 0 -147 -44.5t-102 -114.5t-56.5 -146t-19.5 -149z" />
<glyph unicode="e" horiz-adv-x="1050" d="M117 453q82 469 512 469q79 0 139 -16t95.5 -43.5t56.5 -65.5q21 -37 23 -81q0 -10 1 -20q0 -34 -6 -71q-10 -59 -44 -105.5t-81 -76t-107 -50.5t-119 -31q-59 -8 -120 -12q-47 -3 -85 -3h-21q-45 1 -82 5q0 -117 56 -175t161 -58q91 0 181 28t144 72l6 -149 q-129 -90 -344 -90q-210 0 -308 120q-70 86 -70 228q0 58 12 125zM291 463q28 -1 54 -1q385 0 415 167q3 16 3 30q-1 51 -33 83q-42 42 -114 42q-127 0 -210 -80.5t-115 -240.5z" />
<glyph unicode="f" horiz-adv-x="770" d="M47 -512l219 1237q4 25 -8 33q-28 15 -28 50q0 8 1 17q8 52 52 70q6 4 10.5 12t6.5 15l1 6l47 260q60 346 320 346q151 0 190 -125q7 -32 7 -59q0 -18 -3 -34q-8 -41 -28 -67q-32 -41 -73 -53q-16 -5 -31 -5q-22 0 -40 11q-25 16 -25 53q0 33 23 60q20 20 14 39 q-9 30 -51 30q-16 0 -24.5 -1t-26 -11t-29.5 -29t-26.5 -58.5t-24.5 -96.5l-51 -287h254l-27 -149h-254l-223 -1264h-172z" />
<glyph unicode="g" horiz-adv-x="1198" d="M100 -465l31 164q109 -41 260 -41q118 0 210 80.5t114 200.5l53 303q-23 -50 -54.5 -93t-76.5 -83t-106.5 -63t-131.5 -23q-132 0 -212.5 79.5t-80.5 245.5q0 126 34 236.5t98 196t166 135t229 49.5q56 0 102 -18t72 -44t40.5 -49t18.5 -41q28 80 90 120q54 33 126 33 q13 0 26 -1q58 -6 78 -36q12 -17 12 -36q0 -15 -6 -31q-14 -34 -43 -50q-19 -10 -39 -10q-11 0 -23 3q-24 6 -42 -7t-21 -36l-137 -780q-33 -193 -173 -312t-349 -119q-159 0 -265 27zM285 330q0 -213 151 -213q117 0 222 119.5t163 310.5l13 65q-5 23 -10.5 40t-21.5 43.5 t-38.5 43.5t-63 30t-92.5 13q-71 0 -128 -29t-92.5 -74.5t-59.5 -106.5t-33.5 -121t-9.5 -121z" />
<glyph unicode="h" horiz-adv-x="1234" d="M154 0l229 1331q5 23 -7.5 36t-39.5 7q-36 -8 -59 8q-25 18 -25 55q0 35 29 62q31 29 92 35q16 1 31 1q83 0 124 -43q34 -37 34 -100q0 -25 -5 -55l-139 -802q27 79 65.5 146.5t88.5 122.5t115 86.5t136 31.5q135 0 187 -91q33 -58 33 -146q0 -52 -11 -114l-69 -389 q-3 -23 9.5 -36t37.5 -7q36 9 59 -7q25 -17 25 -55q0 -35 -28 -62q-30 -29 -91 -35q-16 -1 -31 -1q-83 1 -124 43q-34 36 -34 99q0 25 5 55l69 399q11 49 11 87q0 37 -10 65q-20 57 -87 57q-77 0 -160.5 -84.5t-150 -217.5t-103.5 -283l-34 -199h-172z" />
<glyph unicode="i" horiz-adv-x="589" d="M143 176l129 725h172l-127 -719q-3 -23 10 -36t38 -7q36 9 59 -7q25 -17 25 -55q-1 -35 -29 -62q-30 -29 -90 -35q-16 -1 -31 -1q-84 1 -126 43q-35 36 -35 100q0 25 5 54zM322 1237l26 147q6 39 37.5 65t73.5 26q40 0 64 -26q19 -21 19 -50q0 -7 -1 -15l-11 -51 q-6 -40 -36.5 -68t-69.5 -28h-102z" />
<glyph unicode="j" horiz-adv-x="641" d="M-68 -410q14 34 43 50q19 11 39 11q11 0 23 -3q24 -6 41 7t22 36l213 1210h172l-215 -1216q-19 -104 -84 -155q-56 -43 -140 -43q-14 0 -30 1q-58 6 -78 34q-11 18 -11 38q0 14 5 30zM362 1237l27 147q6 39 37.5 65t73.5 26q40 0 64 -26q19 -21 19 -50q0 -7 -1 -15 l-11 -51q-6 -40 -36.5 -68t-69.5 -28h-103z" />
<glyph unicode="k" horiz-adv-x="1181" d="M121 0l233 1335q5 23 -7.5 36t-39.5 7q-36 -8 -59 8q-25 18 -25 55q0 35 29 62q31 29 92 35q16 1 31 1q83 0 124 -43q34 -37 34 -100q0 -25 -5 -55l-143 -809h190q109 37 184.5 153t78.5 233h184q1 -138 -91.5 -265t-230.5 -194q12 -59 30.5 -116t43.5 -109 q24 -52 58 -78q22 -17 46 -17q12 0 23 4q30 10 52 10q16 0 27 -5q28 -12 34 -48q1 -8 1 -16q-1 -30 -23 -54q-28 -30 -65 -41.5t-71 -11.5h-4q-54 0 -99 24q-47 25 -79.5 64.5t-59 96t-42.5 109t-29 114.5h-183l-67 -385h-172z" />
<glyph unicode="l" horiz-adv-x="579" d="M137 178l240 1358h172l-240 -1352q-3 -23 9.5 -36t37.5 -7q36 9 59 -7q25 -17 25 -55q0 -35 -28 -62q-30 -29 -90 -35q-16 -1 -31 -1q-84 1 -125 43q-34 36 -34 99q0 26 5 55z" />
<glyph unicode="m" horiz-adv-x="1744" d="M147 822q0 34 29 62q31 30 92 36q16 1 31 1q83 0 125 -43q35 -37 34 -101q0 -25 -5 -54l-29 -160q25 75 57.5 137t75.5 113t99 80t120 29q136 0 188 -91q33 -58 32 -146q0 -52 -11 -114l-4 -22q24 77 56.5 141.5t76 118t101 83.5t122.5 30q135 0 187 -91q33 -58 33 -146 q0 -52 -11 -114l-69 -389q-3 -23 9.5 -36t37.5 -7q36 9 59 -7t25 -50v-5q0 -35 -28 -62q-30 -29 -91 -35q-16 -1 -31 -1q-83 1 -124 43q-34 36 -34 99q0 25 5 55l69 399q11 49 11 87q0 37 -10 65q-20 57 -87 57q-71 0 -145 -86.5t-131.5 -219t-93.5 -285.5l-33 -193h-172 l100 575q11 49 11 87q0 37 -10 65q-20 57 -87 57q-69 0 -140.5 -81.5t-128 -208t-93.5 -275.5l-39 -219h-172l125 717q5 23 -8 36t-40 7q-36 -9 -59 7q-25 18 -25 55z" />
<glyph unicode="n" horiz-adv-x="1234" d="M147 822q0 34 29 62q31 30 92 36q16 1 31 1q83 0 125 -43q35 -37 34 -101q0 -25 -5 -54l-33 -180q28 78 66.5 144.5t88.5 120t113.5 84t134.5 30.5q135 0 187 -91q33 -58 33 -146q0 -52 -11 -114l-69 -389q-3 -23 9.5 -36t37.5 -7q36 9 59 -7t25 -50v-5q0 -35 -28 -62 q-30 -29 -91 -35q-16 -1 -31 -1q-83 1 -124 43q-34 36 -34 99q0 25 5 55l69 399q11 49 11 87q0 37 -10 65q-20 57 -87 57q-76 0 -159.5 -83t-150 -214.5t-104.5 -279.5l-34 -207h-172l125 717q3 23 -9.5 36t-38.5 7q-36 -9 -59 7q-25 18 -25 55z" />
<glyph unicode="o" horiz-adv-x="1101" d="M121 453q41 232 172.5 350.5t339.5 118.5q207 0 296 -118q61 -81 60 -215q0 -62 -12 -136q-41 -234 -172 -353.5t-338 -119.5t-297 120q-61 82 -62 217q0 62 13 136zM293 453q-12 -68 -12 -121q1 -82 29 -132q46 -80 182 -81q113 0 199 85.5t114 248.5q12 69 12 123 q0 80 -27 128q-46 80 -182 80q-113 0 -199 -84.5t-116 -246.5z" />
<glyph unicode="p" horiz-adv-x="1204" d="M63 -512l218 1229q3 23 -10 36t-40 7q-36 -9 -59 7q-25 17 -25 55q0 35 29 62q31 30 92 36q16 1 31 1q83 0 125 -43q34 -37 34 -101q0 -25 -5 -54l-31 -168q38 103 91.5 182.5t133 132t170.5 52.5q127 0 202 -84t75 -244q0 -126 -33.5 -236t-97.5 -195t-165 -134 t-227 -49q-147 0 -233 98l-102 -590h-173zM365 229q8 -13 21 -27.5t39.5 -35.5t69 -34t93.5 -13q71 0 129.5 30t95.5 77.5t62.5 110t36 125t10.5 124.5q0 198 -150 198q-111 0 -227.5 -165t-179.5 -388v-2z" />
<glyph unicode="q" horiz-adv-x="1204" d="M115 286v20q0 63 10 143q36 234 169.5 353.5t342.5 119.5q56 0 102 -18t72 -44t40.5 -49t18.5 -41q55 153 213 153q14 0 29 -1q58 -6 77 -34q12 -17 12 -39q0 -14 -5 -30q-10 -34 -40 -50q-19 -10 -40 -10q-12 0 -24 3q-24 6 -42.5 -7t-21.5 -36l-217 -1231h-172l133 758 q-20 -51 -48 -93.5t-69 -83t-100.5 -64t-130.5 -23.5q-47 0 -88 9t-81.5 30t-68.5 55.5t-48.5 86.5t-22.5 123zM288 310q6 -58 18.5 -95t38.5 -58.5t53.5 -29.5t62.5 -8q120 0 217 127.5t153 337.5l7 28q-5 23 -10.5 40t-21.5 43.5t-38.5 43.5t-63 30t-92.5 13 q-127 0 -209 -83t-106 -250q-10 -58 -10 -104q0 -19 1 -35z" />
<glyph unicode="r" horiz-adv-x="1046" d="M147 822q0 34 29 62q31 30 92 36q16 1 31 1q83 0 125 -43q35 -37 34 -101q0 -25 -5 -54l-33 -180q28 78 66.5 144.5t88.5 120t113.5 84t134.5 30.5q70 0 115 -23q40 -22 62 -64q21 -40 21 -75v-3q-1 -36 -7 -65q-16 -50 -52 -74q-27 -18 -56 -18q-11 0 -23 2 q-35 8 -49 44q-6 16 -7 32q0 21 11 43q15 31 -9 47t-55 16q-76 0 -159.5 -83t-150 -214.5t-104.5 -279.5l-34 -207h-172l125 717q3 23 -9.5 36t-38.5 7q-36 -9 -59 7q-25 18 -25 55z" />
<glyph unicode="s" horiz-adv-x="1026" d="M98 225q12 47 48 73q28 20 60 21q9 0 19 -2q33 -5 49 -37q9 -16 9 -35q0 -16 -7 -34q-12 -30 11 -47q61 -43 176 -43q75 0 141.5 36.5t77.5 100.5q4 25 -4 44t-20 30.5t-43 23.5t-51 17.5t-66 17.5q-74 19 -115.5 33t-94.5 44t-73 76q-13 29 -13 64q0 21 5 45 q48 269 395 269q101 0 183.5 -31t119.5 -98l-119 -123q-34 59 -81.5 85.5t-133.5 26.5q-74 0 -127.5 -31t-64.5 -96q-1 -5 -1 -11q0 -46 70 -74q33 -14 138 -40q61 -15 109 -35t92.5 -51.5t64.5 -79.5q13 -32 13 -68q0 -18 -3 -38q-16 -89 -80.5 -153.5t-151.5 -94.5 t-184 -30q-138 0 -229 45q-77 36 -105 95q-19 39 -19 73q0 17 5 32z" />
<glyph unicode="t" horiz-adv-x="831" d="M197 326l69 399q4 25 -8 33q-28 15 -28 51q0 8 1 18q9 50 52 68q6 4 13 12t11 15l4 6l58 309h157l-57 -336h268l-26 -149h-269l-73 -426q-11 -57 -12 -96.5t3.5 -59t18.5 -29.5t23 -11t28 -1q28 0 55 31q18 22 7 39q-7 15 -7 31t6 32q13 34 41 49q22 11 44 11q15 0 29 -4 q37 -12 54 -54q8 -12 8 -36q0 -14 -3 -31q-7 -48 -37 -93q-80 -124 -234 -124q-118 0 -173 84q-35 53 -35 144q0 53 12 118z" />
<glyph unicode="u" horiz-adv-x="1234" d="M152 822q0 34 28 62q30 30 90 36q16 1 31 1q83 0 125 -43q35 -37 34 -101q0 -25 -5 -54l-70 -397q-11 -49 -11 -87q0 -37 10 -65q20 -57 87 -57q76 0 159 83t149 214t104 280l37 207h172l-125 -717q-5 -23 7.5 -36t39.5 -7q36 9 59 -7t25 -50v-5q0 -35 -29 -62 q-31 -29 -92 -35q-16 -1 -31 -1q-83 1 -124 43q-34 36 -34 99q0 25 5 55l30 180q-57 -164 -161 -271t-240 -107t-188 90q-33 57 -32 146q0 52 11 114l70 387q5 23 -8.5 36t-38.5 7q-36 -9 -59 7q-25 18 -25 55z" />
<glyph unicode="v" horiz-adv-x="1144" d="M147 822q0 34 29 62q31 30 92 36q16 1 31 1q83 0 125 -43q35 -37 34 -101q0 -25 -5 -54l-99 -555q-3 -19 6 -32t29 -13q70 0 138.5 38t121.5 101t98 144t67 168q24 86 32 171q3 25 2 49q0 57 -14 107h180q12 -51 13 -112v-10q-1 -56 -11 -117q-12 -66 -32.5 -135 t-54 -135.5t-75 -127.5t-95 -113t-113 -90t-132 -59.5t-149.5 -21.5q-99 0 -149 52q-37 38 -36 100q0 21 4 46l95 539q5 23 -8 36t-40 7q-36 -9 -59 7q-25 18 -25 55z" />
<glyph unicode="w" horiz-adv-x="1642" d="M150 822q0 34 28 62q30 30 92 36q16 1 31 1q83 0 125 -43q35 -37 34 -101q0 -25 -5 -54l-99 -555q-3 -19 6 -32t29 -13q101 0 190 82t145 202t79 255v-5l43 244h172l-129 -733q-3 -19 6 -32t29 -13q66 0 129.5 38t112 101t89 144t61 167.5t26.5 171.5q2 21 2 41 q0 62 -15 115h180q14 -49 14 -108q-1 -9 -1 -19q-2 -70 -13 -145.5t-41 -153t-67 -149.5t-91 -135t-115 -110t-137.5 -74t-158.5 -27q-99 0 -148 52q-36 38 -36 100q0 22 4 46q-125 -198 -354 -198q-99 0 -149 52q-37 38 -36 100q0 21 4 46l95 539q5 23 -8 36t-40 7 q-37 -9 -59 7q-24 18 -24 55z" />
<glyph unicode="x" horiz-adv-x="1054" d="M12 0l420 453l-153 264q-9 16 -35.5 29t-55.5 6q-17 -5 -31 -5q-20 -1 -34 9q-25 16 -27 53q0 99 125 111q17 2 32 2q52 0 86 -18q44 -24 71 -73l135 -249l258 319h235l-420 -457l142 -260q9 -16 35 -28.5t57 -5.5q15 4 28 5q20 0 34 -11q24 -17 28 -52q1 -6 1 -13 q1 -33 -23 -59q-28 -30 -101 -38q-16 -1 -31 -1q-116 0 -161 89l-121 245l-270 -315h-224z" />
<glyph unicode="y" horiz-adv-x="1185" d="M123 -465l31 164q109 -41 260 -41q123 0 212 79.5t111 201.5l54 305q-21 -50 -50.5 -93t-72.5 -83t-103.5 -63t-130.5 -23q-129 0 -196 90q-46 61 -46 160q0 44 9 96l67 389q3 23 -9 36t-38 7q-36 -9 -59 7q-25 17 -25 55q0 35 29 62q31 30 92 36q16 1 31 1q84 0 125 -43 q34 -36 34 -98q0 -26 -6 -57l-69 -379q-11 -60 -11 -103q0 -45 12 -71q25 -51 97 -51q120 0 220 124.5t157 327.5l59 330h172l-170 -962q-33 -191 -175 -311t-347 -120q-158 0 -264 27z" />
<glyph unicode="z" horiz-adv-x="1013" d="M75 58q-3 13 -3 27q0 44 39 83l591 580h-491l27 153h632q64 1 79 -59q3 -14 3 -27q0 -44 -39 -82l-591 -579h335q49 0 87.5 -9t63 -24.5t41.5 -35.5t23.5 -43t6 -46t-6.5 -45q-30 -94 -112 -94q-35 -1 -51 27q-10 18 -10 39q0 12 3 24q6 19 -5.5 36t-53.5 17h-489 q-64 0 -79 58z" />
<glyph unicode="{" horiz-adv-x="811" d="M84 471l29 166q68 0 133.5 65t83.5 166l82 461q18 104 119 181t210 77h101l-27 -151h-96q-45 0 -86.5 -32.5t-48.5 -74.5l-88 -502q-12 -64 -41.5 -115.5t-65.5 -80.5t-65 -44.5t-52 -21.5l-4 -20q17 -2 35 -10.5t41 -27.5t37 -48.5t21.5 -74.5t-5.5 -105l-71 -408 q-7 -42 23 -74.5t75 -32.5h96l-26 -151h-101q-109 0 -183 77t-56 181l65 367q19 105 -23.5 169t-111.5 64z" />
<glyph unicode="|" horiz-adv-x="462" d="M66 -20l274 1556h156l-275 -1556h-155z" />
<glyph unicode="}" horiz-adv-x="806" d="M14 -387l27 151h96q45 0 86.5 32.5t48.5 74.5l72 408q10 58 33 105t48 75t54 48t50 28t38 10l4 20q-16 4 -34 14t-40.5 30.5t-36.5 49.5t-22 71.5t4 96.5l88 502q7 42 -23 74.5t-75 32.5h-96l26 151h101q109 0 183 -77t56 -181l-81 -461q-18 -101 24.5 -166t110.5 -65 l-29 -166q-69 0 -133.5 -64t-83.5 -169l-66 -367q-18 -104 -119 -181t-210 -77h-101z" />
<glyph unicode="~" horiz-adv-x="1101" d="M70 436q119 174 286 174q54 0 114 -23t103.5 -50.5t97 -50.5t95.5 -23q49 0 91.5 33t92.5 92l74 -111q-123 -174 -287 -174q-54 0 -114 23t-104 51t-97.5 51t-95.5 23q-49 0 -91 -33t-92 -92z" />
<glyph unicode="&#xa1;" horiz-adv-x="487" d="M80 0l174 997h172l-174 -997h-172zM268 1358q9 51 51 84t99 33t89 -33t23 -84q-8 -50 -50 -83.5t-99 -33.5t-89 33.5t-24 83.5z" />
<glyph unicode="&#xa2;" horiz-adv-x="1060" d="M115 453q39 218 156.5 335.5t303.5 131.5l29 165h127l-31 -167q94 -11 160 -58q47 -35 66 -82.5t12.5 -91t-21 -78t-32.5 -55.5q-35 -40 -78 -48.5t-72 19.5q-24 20 -18.5 64.5t35.5 73.5q26 26 4 55q-44 65 -148 65q-126 0 -208.5 -82t-112.5 -247q-28 -166 29 -250 t184 -84q90 0 177 27.5t142 72.5l6 -149q-115 -79 -288 -88l-29 -166h-127l29 168q-157 13 -243.5 137.5t-51.5 331.5z" />
<glyph unicode="&#xa3;" horiz-adv-x="1054" d="M59 0l25 150h203l35 194h-160l26 150h160l21 110q20 122 122 208.5t228 86.5q73 0 134.5 -34t90.5 -91q15 -29 5.5 -60.5t-38.5 -51.5q-29 -22 -60 -18t-44 32q-13 29 -42.5 46t-64.5 17q-56 0 -103 -40t-56 -95l-21 -110h260l-26 -150h-260l-35 -194h389l-25 -150h-764z " />
<glyph unicode="&#xa4;" horiz-adv-x="1077" d="M113 209l100 98q-70 103 -70 225q0 128 70 226l-100 98l102 102l98 -98q103 70 226 70q122 0 225 -70l98 98l103 -102l-101 -98q72 -101 72 -226q0 -119 -72 -225l101 -98l-103 -100l-98 98q-98 -70 -225 -70q-128 0 -226 70l-98 -98zM287 532q0 -102 73 -174t179 -77 q101 0 177.5 73.5t76.5 177.5q0 101 -75 177.5t-179 76.5q-102 0 -177 -74.5t-75 -179.5z" />
<glyph unicode="&#xa5;" horiz-adv-x="1261" d="M248 330l24 143h197l-219 428h188l197 -395l319 395h205l-373 -428h199l-24 -143h-269l-57 -330h-172l57 330h-272z" />
<glyph unicode="&#xa6;" horiz-adv-x="462" d="M63 -20l103 583h156l-103 -583h-156zM236 956l102 584h156l-103 -584h-155z" />
<glyph unicode="&#xa7;" horiz-adv-x="1007" d="M96 141l123 121q19 -61 74.5 -97t132.5 -36q197 0 225 160q8 46 -22 79.5t-92 67.5l-301 162l28 166l402 -213q86 -46 129.5 -105.5t27.5 -148.5q-26 -149 -138.5 -233t-268.5 -84q-107 0 -195.5 43.5t-124.5 117.5zM295 1110q23 126 125 202.5t248 76.5q59 0 117 -17.5 t96 -50.5q37 -32 53 -72t11.5 -75.5t-16.5 -63.5t-28 -45q-30 -33 -64.5 -40t-58.5 17q-20 15 -17.5 53.5t25.5 63.5q22 22 2 45q-22 26 -53 35.5t-84 9.5q-76 0 -128 -36t-64 -107q-8 -42 19.5 -73.5t84.5 -61.5l289 -156l-29 -162l-377 201q-85 45 -126.5 103.5 t-24.5 152.5z" />
<glyph unicode="&#xa8;" horiz-adv-x="788" d="M334 1745q6 40 42 68t83 28q45 0 71.5 -28t20.5 -68q-7 -41 -44 -68.5t-83 -27.5q-47 0 -72.5 27.5t-17.5 68.5zM680 1745q6 40 42.5 68t82.5 28q47 0 72.5 -28t19.5 -68q-8 -41 -44 -68.5t-83 -27.5q-46 0 -71.5 27.5t-18.5 68.5z" />
<glyph unicode="&#xa9;" horiz-adv-x="1712" d="M152 569q0 187 66 357t180.5 295.5t278 199.5t349.5 74q290 0 457.5 -160.5t167.5 -429.5q0 -187 -66 -357t-181 -295t-278.5 -199t-349.5 -74q-290 0 -457 160t-167 429zM326 598q0 -216 122 -343.5t340 -127.5q151 0 283 66t219 172.5t137 240.5t50 271 q0 215 -122.5 343t-340.5 128q-122 0 -231.5 -42.5t-191.5 -116.5t-142.5 -169.5t-91.5 -204t-31 -217.5zM485 610q0 111 30 211t87.5 182t153.5 130.5t217 48.5q128 0 203.5 -44.5t117.5 -125.5l-125 -109q-46 75 -89 105t-122 30q-74 0 -133.5 -36t-95 -94.5t-54 -128 t-18.5 -142.5q0 -201 187 -201q78 0 137.5 35t126.5 109l88 -117q-71 -82 -155.5 -126t-211.5 -44q-167 0 -255.5 79.5t-88.5 237.5z" />
<glyph unicode="&#xaa;" horiz-adv-x="1077" d="M227 1085q35 199 144.5 299.5t285.5 100.5q179 0 257.5 -101t43.5 -299l-32 -184q-3 -23 9.5 -36t37.5 -7q36 9 59 -7t25 -50q2 -38 -28.5 -67.5t-90.5 -35.5q-76 -7 -122 19t-58 82q-27 -44 -85.5 -81.5t-152.5 -37.5q-176 0 -252 102t-41 303zM391 1085 q-48 -262 150 -262q90 0 147 41t84 90l23 131q46 263 -152 263q-99 0 -164 -66t-88 -197z" />
<glyph unicode="&#xab;" horiz-adv-x="1013" d="M112 551.5q8 45.5 35 77.5l250 293h203l-328 -379l183 -363h-189l-147 293q-15 33 -7 78.5zM528 551.5q8 45.5 35 77.5l250 293h203l-328 -379l182 -363h-188l-147 293q-15 33 -7 78.5z" />
<glyph unicode="&#xac;" horiz-adv-x="1228" d="M129 655l29 168h1036l-107 -610h-172l78 442h-864z" />
<glyph unicode="&#xad;" horiz-adv-x="739" d="M66 416l26 151h596l-26 -151h-596z" />
<glyph unicode="&#xae;" horiz-adv-x="1712" d="M147 569q0 187 66 357t181 295.5t278.5 199.5t349.5 74q290 0 457.5 -160.5t167.5 -429.5q0 -187 -66 -357t-181 -295t-278.5 -199t-349.5 -74q-290 0 -457.5 160t-167.5 429zM322 598q0 -216 122 -343.5t340 -127.5q151 0 283 66t219 172.5t137 240.5t50 271 q0 215 -122.5 343t-340.5 128q-122 0 -231.5 -42.5t-191.5 -116.5t-142.5 -169.5t-91.5 -204t-31 -217.5zM530 301l140 784q6 37 36.5 63t67.5 26h244q135 0 200.5 -78.5t43.5 -206.5q-15 -86 -61.5 -151.5t-117.5 -100.5l82 -336h-176l-67 299h-177l-53 -299h-162zM770 737 h154q71 0 121.5 42t62.5 110q12 69 -20 110t-103 41h-162z" />
<glyph unicode="&#xb0;" horiz-adv-x="782" d="M215 1065q17 116 111.5 196t212.5 80q116 0 183 -80t50 -196q-19 -119 -111.5 -200t-209.5 -81q-118 0 -186.5 81t-49.5 200zM340 1065q-11 -63 27.5 -110.5t101.5 -47.5q62 0 114.5 47t63.5 111q11 63 -25.5 107.5t-99.5 44.5t-117.5 -44.5t-64.5 -107.5z" />
<glyph unicode="&#xb1;" horiz-adv-x="1075" d="M86 92l27 144h768l-27 -144h-768zM182 635l27 143h305l47 271h158l-47 -271h305l-27 -143h-305l-47 -273h-158l47 273h-305z" />
<glyph unicode="&#xb2;" horiz-adv-x="831" d="M145 696l29 154q164 50 303 149t166 189q19 61 -9 99t-97 38q-146 0 -301 -84l30 172q52 22 83.5 32.5t84.5 20t115 9.5q163 0 229 -77.5t37 -207.5q-14 -61 -56 -118.5t-97 -98.5t-104.5 -68.5t-94.5 -44.5l-2 -14l92 12h168q30 0 48 -24.5t13 -55.5q-6 -34 -32.5 -58 t-57.5 -24h-547z" />
<glyph unicode="&#xb3;" horiz-adv-x="741" d="M127 725l29 160q82 -45 221 -45q171 4 184 88q8 45 -25.5 72.5t-123.5 27.5h-58l27 146h57q43 0 72 7.5t43.5 22t20 27t8.5 29.5q5 31 -24 49t-91 18q-136 0 -242 -47l29 162q101 37 233 37q137 0 214.5 -53t58.5 -160q-9 -54 -48.5 -98t-113.5 -60l-2 -14 q79 -9 116.5 -56.5t24.5 -128.5q-14 -78 -73.5 -129t-138 -70.5t-175.5 -19.5q-130 0 -223 35z" />
<glyph unicode="&#xb4;" horiz-adv-x="569" d="M313 1634l189 262l194 -20q-91 -136 -264 -270z" />
<glyph unicode="&#xb6;" horiz-adv-x="1144" d="M199 1016q40 228 207 345.5t450 113.5h195q36 0 57.5 -22.5t15.5 -57.5l-231 -1305h-156l219 1235h-125q-86 4 -159.5 -10t-136.5 -48.5t-105.5 -98t-58.5 -152.5q-25 -144 46 -221t208 -88q44 -3 66.5 -36.5t13.5 -78.5l-97 -551q-3 -23 9.5 -36t37.5 -7q36 9 59 -7 t25 -50q2 -38 -28.5 -67.5t-89.5 -35.5q-100 -9 -142.5 41.5t-27.5 155.5l94 528q-204 25 -292 141t-54 312z" />
<glyph unicode="&#xb7;" horiz-adv-x="487" d="M160 741q9 50 51.5 83.5t99.5 33.5t88.5 -33.5t22.5 -83.5q-7 -51 -50.5 -83.5t-101.5 -32.5q-57 0 -87.5 32.5t-22.5 83.5z" />
<glyph unicode="&#xb8;" horiz-adv-x="610" d="M-45 -416l16 94q58 -28 133 -28q51 0 89.5 19.5t46.5 64.5q7 45 -27.5 58.5t-93.5 8.5q-44 -4 -56 19q-10 16 15 63l80 129h114l-75 -121q71 17 128.5 -23.5t43.5 -121.5q-18 -95 -91 -140.5t-184 -45.5q-84 0 -139 24z" />
<glyph unicode="&#xb9;" horiz-adv-x="772" d="M160 696l26 150h199l70 395q7 37 -16.5 58t-61.5 12q-36 -9 -59 7t-25 50q-2 38 29 67t92 35q66 6 116.5 -12t78 -72t12.5 -139l-72 -401h174l-27 -150h-536z" />
<glyph unicode="&#xba;" horiz-adv-x="935" d="M201 969q0 101 26.5 191.5t78 164t138 117t197.5 43.5q150 0 230.5 -71.5t80.5 -213.5q0 -99 -27 -190t-79.5 -165.5t-138.5 -119.5t-195 -45q-151 0 -231 73t-80 216zM369 995q0 -172 155 -172q84 0 145.5 54t89 131t27.5 163q0 89 -38.5 132t-118.5 43 q-64 0 -115.5 -31t-82 -82.5t-46.5 -112.5t-16 -125z" />
<glyph unicode="&#xbb;" horiz-adv-x="1013" d="M25 180l327 379l-182 363h188l148 -293q15 -34 7 -79t-36 -77l-250 -293h-202zM440 180l328 379l-182 363h188l148 -293q15 -34 7 -79t-36 -77l-250 -293h-203z" />
<glyph unicode="&#xbc;" horiz-adv-x="1992" d="M139 567l27 150h199l69 395q7 37 -16.5 58t-61.5 12q-36 -9 -59 7t-25 50q-2 38 29 67t92 35q66 6 116.5 -12t78 -72t12.5 -139l-72 -401h174l-26 -150h-537zM395 0l1073 1341h181l-1074 -1341h-180zM1101 239q-20 49 21 101l355 444h196l-362 -444h233l31 172 q6 35 34 60.5t62 25.5t54 -25.5t14 -60.5l-31 -166h117l-27 -156h-117l-32 -190h-164l33 190h-338q-59 0 -79 49z" />
<glyph unicode="&#xbd;" horiz-adv-x="2050" d="M137 565l27 150h198l70 395q7 37 -16.5 58t-61.5 12q-36 -9 -59 7t-25 50q-2 38 29 67t92 35q66 6 116.5 -12t78 -72t12.5 -139l-72 -401h174l-26 -150h-537zM385 0l1073 1341h180l-1073 -1341h-180zM1212 0l29 154q164 50 303 149t166 189q19 61 -9 99t-97 38 q-146 0 -301 -84l30 172q51 21 83.5 32t85 20t114.5 9q163 0 229 -77t37 -207q-14 -61 -56 -118.5t-97 -98.5t-104.5 -68.5t-94.5 -44.5l-2 -14l92 12h168q30 0 48 -24.5t13 -55.5q-6 -34 -32.5 -58t-57.5 -24h-547z" />
<glyph unicode="&#xbe;" horiz-adv-x="2039" d="M162 586l28 159q82 -45 222 -45q171 4 184 88q8 45 -26 73t-124 28h-57l27 145h57q43 0 72 7.5t43 22t19.5 27t8.5 29.5q5 31 -23.5 49.5t-90.5 18.5q-136 0 -242 -47l29 162q99 36 233 36q137 0 214.5 -53t58.5 -160q-8 -53 -48 -97t-114 -60l-2 -15q79 -9 116.5 -56.5 t24.5 -127.5q-14 -78 -73.5 -129t-138 -70.5t-175.5 -19.5q-130 0 -223 35zM436 0l1073 1341h181l-1074 -1341h-180zM1152.5 239q-19.5 49 21.5 101l354 444h196l-362 -444h233l31 172q6 35 34 60.5t62 25.5t54 -25.5t14 -60.5l-31 -166h117l-27 -156h-116l-33 -190h-164 l33 190h-338q-59 0 -78.5 49z" />
<glyph unicode="&#xbf;" horiz-adv-x="911" d="M98 391q31 176 159.5 303.5t332.5 177.5l37 211h157l-24 -266q-1 -28 -24 -50t-52 -28q-100 -21 -176.5 -60.5t-121 -89t-69.5 -98t-34 -100.5q-20 -108 27.5 -169.5t166.5 -61.5q152 0 277 57l-31 -176q-156 -41 -272 -41q-190 0 -287 108.5t-66 282.5zM610 1358 q9 51 52 84t100 33t88 -33t22 -84q-8 -50 -51 -83.5t-100 -33.5q-56 0 -87.5 33.5t-23.5 83.5z" />
<glyph unicode="&#xc0;" d="M119 0l92 530q4 25 -8 33q-35 19 -27 68q8 50 51 69q7 4 12.5 12t6.5 14l2 7l49 281q37 217 182.5 349t356.5 132q213 0 320.5 -133t70.5 -348l-148 -830q-3 -23 9.5 -36t39.5 -7q36 9 59 -7t25 -50q2 -38 -28.5 -67t-91.5 -35q-105 -9 -155.5 37.5t-33.5 142.5l70 395 h-586l-96 -557h-172zM414 707h585l56 307q27 149 -33 239t-193 90q-135 0 -234.5 -91t-125.5 -238zM641 1876l180 25l107 -273l-117 -22q-124 130 -170 270z" />
<glyph unicode="&#xc1;" d="M119 0l92 530q4 25 -8 33q-35 19 -27 68q8 50 51 69q7 4 12.5 12t6.5 14l2 7l49 281q37 217 182.5 349t356.5 132q213 0 320.5 -133t70.5 -348l-148 -830q-3 -23 9.5 -36t39.5 -7q36 9 59 -7t25 -50q2 -38 -28.5 -67t-91.5 -35q-105 -9 -155.5 37.5t-33.5 142.5l70 395 h-586l-96 -557h-172zM414 707h585l56 307q27 149 -33 239t-193 90q-135 0 -234.5 -91t-125.5 -238zM799 1634l188 262l195 -20q-91 -136 -264 -270z" />
<glyph unicode="&#xc2;" d="M119 0l92 530q4 25 -8 33q-35 19 -27 68q8 50 51 69q7 4 12.5 12t6.5 14l2 7l49 281q37 217 182.5 349t356.5 132q213 0 320.5 -133t70.5 -348l-148 -830q-3 -23 9.5 -36t39.5 -7q36 9 59 -7t25 -50q2 -38 -28.5 -67t-91.5 -35q-105 -9 -155.5 37.5t-33.5 142.5l70 395 h-586l-96 -557h-172zM414 707h585l56 307q27 149 -33 239t-193 90q-135 0 -234.5 -91t-125.5 -238zM618 1630q84 144 220 271h180q88 -120 125 -271l-129 -22l-90 217l-164 -219z" />
<glyph unicode="&#xc3;" d="M119 0l92 530q4 25 -8 33q-35 19 -27 68q8 50 51 69q7 4 12.5 12t6.5 14l2 7l49 281q37 217 182.5 349t356.5 132q213 0 320.5 -133t70.5 -348l-148 -830q-3 -23 9.5 -36t39.5 -7q36 9 59 -7t25 -50q2 -38 -28.5 -67t-91.5 -35q-105 -9 -155.5 37.5t-33.5 142.5l70 395 h-586l-96 -557h-172zM414 707h585l56 307q27 149 -33 239t-193 90q-135 0 -234.5 -91t-125.5 -238zM528 1645q27 99 91 165t157 66q45 0 84.5 -20t62.5 -44.5t50.5 -44.5t50.5 -20q38 0 69 34t46 93l116 -37q-29 -100 -91.5 -165.5t-155.5 -65.5q-42 0 -78.5 20t-58 43.5 t-51.5 43.5t-60 20q-38 0 -69 -33.5t-46 -91.5z" />
<glyph unicode="&#xc4;" d="M119 0l92 530q4 25 -8 33q-35 19 -27 68q8 50 51 69q7 4 12.5 12t6.5 14l2 7l49 281q37 217 182.5 349t356.5 132q213 0 320.5 -133t70.5 -348l-148 -830q-3 -23 9.5 -36t39.5 -7q36 9 59 -7t25 -50q2 -38 -28.5 -67t-91.5 -35q-105 -9 -155.5 37.5t-33.5 142.5l70 395 h-586l-96 -557h-172zM414 707h585l56 307q27 149 -33 239t-193 90q-135 0 -234.5 -91t-125.5 -238zM608 1745q6 40 42 68t83 28q45 0 71.5 -28t20.5 -68q-7 -41 -44 -68.5t-83 -27.5q-47 0 -72.5 27.5t-17.5 68.5zM954 1745q6 40 42.5 68t82.5 28q47 0 72.5 -28t19.5 -68 q-8 -41 -44 -68.5t-83 -27.5q-46 0 -71.5 27.5t-18.5 68.5z" />
<glyph unicode="&#xc5;" d="M119 0l92 530q4 25 -8 33q-35 19 -27 68q8 50 51 69q7 4 12.5 12t6.5 14l2 7l49 281q37 217 182.5 349t356.5 132q213 0 320.5 -133t70.5 -348l-148 -830q-3 -23 9.5 -36t39.5 -7q36 9 59 -7t25 -50q2 -38 -28.5 -67t-91.5 -35q-105 -9 -155.5 37.5t-33.5 142.5l70 395 h-586l-96 -557h-172zM414 707h585l56 307q27 149 -33 239t-193 90q-135 0 -234.5 -91t-125.5 -238zM737 1737q9 67 63.5 114t123.5 47q67 0 107.5 -46.5t31.5 -114.5q-10 -69 -64 -116.5t-122 -47.5q-69 0 -109.5 47.5t-30.5 116.5zM821 1737q-6 -32 14 -56t52 -24t59 23.5 t33 56.5q6 32 -13 55t-51 23t-60 -23t-34 -55z" />
<glyph unicode="&#xc6;" horiz-adv-x="1732" d="M121 0l92 530q4 25 -8 33q-35 19 -27 68q8 50 51 69q7 4 12.5 12t6.5 14l2 7l45 260q39 217 184.5 349.5t356.5 132.5h931l-24 -150h-596l-111 -618h477l-26 -150h-477l-64 -362q-3 -19 6 -32t29 -13h578l-25 -150h-602q-93 0 -134 51.5t-22 147.5l62 358h-449l-96 -557 h-172zM416 707h448l109 616h-156q-134 0 -228.5 -91t-121.5 -239z" />
<glyph unicode="&#xc7;" horiz-adv-x="1587" d="M160 569q0 139 41 275t119.5 253t184 206.5t245 140.5t292.5 51q282 0 443 -149q76 -68 76 -164q0 -43 -16 -82.5t-36 -63.5q-47 -53 -106 -53q-31 0 -55 18q-24 19 -20.5 60t34.5 69q11 12 12 28t-8 28q-53 67 -139.5 105t-198.5 38q-143 0 -270 -60.5t-215 -161.5 t-139.5 -235t-51.5 -278q0 -206 114.5 -327.5t324.5 -121.5q152 0 287.5 64t224.5 178l88 -156q-115 -118 -268.5 -183t-331.5 -68l-56 -89q71 17 128.5 -23.5t43.5 -121.5q-18 -95 -91 -140.5t-183 -45.5q-83 0 -139 24l16 94q58 -28 133 -28q50 0 88.5 19.5t46.5 64.5 q7 45 -27.5 58.5t-93.5 8.5q-43 -4 -55 19q-10 16 14 63l62 103q-246 26 -382 181.5t-136 401.5z" />
<glyph unicode="&#xc8;" horiz-adv-x="1206" d="M180 199l58 331q3 25 -9 33q-35 18 -26 68q8 50 51 69q7 4 12 12t6 14l2 7l117 662q6 35 34 57.5t64 22.5h758l-24 -150h-672l-111 -618h471l-26 -150h-471l-64 -362q-3 -19 6 -32t29 -13h653l-24 -150h-678q-93 0 -134 51.5t-22 147.5zM629 1876l180 25l106 -273 l-116 -22q-124 130 -170 270z" />
<glyph unicode="&#xc9;" horiz-adv-x="1206" d="M180 199l58 331q3 25 -9 33q-35 18 -26 68q8 50 51 69q7 4 12 12t6 14l2 7l117 662q6 35 34 57.5t64 22.5h758l-24 -150h-672l-111 -618h471l-26 -150h-471l-64 -362q-3 -19 6 -32t29 -13h653l-24 -150h-678q-93 0 -134 51.5t-22 147.5zM780 1634l189 262l194 -20 q-91 -136 -264 -270z" />
<glyph unicode="&#xca;" horiz-adv-x="1206" d="M180 199l58 331q3 25 -9 33q-35 18 -26 68q8 50 51 69q7 4 12 12t6 14l2 7l117 662q6 35 34 57.5t64 22.5h758l-24 -150h-672l-111 -618h471l-26 -150h-471l-64 -362q-3 -19 6 -32t29 -13h653l-24 -150h-678q-93 0 -134 51.5t-22 147.5zM614 1630q84 144 220 271h180 q88 -120 125 -271l-129 -22l-90 217l-164 -219z" />
<glyph unicode="&#xcb;" horiz-adv-x="1206" d="M180 199l58 331q3 25 -9 33q-35 18 -26 68q8 50 51 69q7 4 12 12t6 14l2 7l117 662q6 35 34 57.5t64 22.5h758l-24 -150h-672l-111 -618h471l-26 -150h-471l-64 -362q-3 -19 6 -32t29 -13h653l-24 -150h-678q-93 0 -134 51.5t-22 147.5zM598 1745q6 40 42 68t83 28 q45 0 71.5 -28t20.5 -68q-7 -41 -44 -68.5t-83 -27.5q-47 0 -72.5 27.5t-17.5 68.5zM944 1745q6 40 42.5 68t82.5 28q47 0 72.5 -28t19.5 -68q-8 -41 -44 -68.5t-83 -27.5q-46 0 -71.5 27.5t-18.5 68.5z" />
<glyph unicode="&#xcc;" horiz-adv-x="622" d="M139 0l228 1290q3 23 -10 36t-40 7q-36 -9 -59 7.5t-25 50.5q-2 38 29 67t92 35q107 9 155.5 -42t29.5 -155l-228 -1296h-172zM283 1876l180 25l106 -273l-116 -22q-124 130 -170 270z" />
<glyph unicode="&#xcd;" horiz-adv-x="622" d="M139 0l228 1290q3 23 -10 36t-40 7q-36 -9 -59 7.5t-25 50.5q-2 38 29 67t92 35q107 9 155.5 -42t29.5 -155l-228 -1296h-172zM422 1634l188 262l195 -20q-91 -136 -264 -270z" />
<glyph unicode="&#xce;" horiz-adv-x="622" d="M139 0l228 1290q3 23 -10 36t-40 7q-36 -9 -59 7.5t-25 50.5q-2 38 29 67t92 35q107 9 155.5 -42t29.5 -155l-228 -1296h-172zM242 1630q86 146 219 271h180q88 -120 125 -271l-129 -22l-90 217l-164 -219z" />
<glyph unicode="&#xcf;" horiz-adv-x="622" d="M139 0l228 1290q3 23 -10 36t-40 7q-36 -9 -59 7.5t-25 50.5q-2 38 29 67t92 35q107 9 155.5 -42t29.5 -155l-228 -1296h-172zM256 1745q6 40 42 68t83 28q45 0 71.5 -28t20.5 -68q-7 -41 -44 -68.5t-83 -27.5q-47 0 -72.5 27.5t-17.5 68.5zM602 1745q6 40 42.5 68 t82.5 28q47 0 72.5 -28t19.5 -68q-8 -41 -44 -68.5t-83 -27.5q-46 0 -71.5 27.5t-18.5 68.5z" />
<glyph unicode="&#xd0;" horiz-adv-x="1441" d="M10 643l27 152h244l81 467q6 28 -14 41q-20 12 -27.5 17.5t-17 21.5t-8.5 38q3 40 34 69t83 26h350q161 0 289 -54t205 -151.5t108 -233.5t0 -299q-59 -330 -289.5 -533.5t-554.5 -203.5h-180q-83 0 -131 58t-33 141l78 444h-244zM348 199q-4 -20 7.5 -34.5t31.5 -14.5 h129q256 0 437.5 162t228.5 431q46 270 -70 426t-371 156h-194l-94 -530h315l-27 -152h-315z" />
<glyph unicode="&#xd1;" horiz-adv-x="1437" d="M170 -10l227 1300q3 23 -9.5 36t-37.5 7q-37 -9 -60 7t-26 51q0 38 31 67t90 35q107 9 155 -42t29 -155l-67 -383q37 98 74.5 177t87 157t102.5 130.5t120.5 85t141.5 32.5q333 0 250 -481l-148 -830q-3 -23 10 -36t38 -7q36 9 59 -7t25 -50q2 -38 -28.5 -67t-90.5 -35 q-105 -9 -155.5 38t-33.5 142l152 852q16 99 16.5 172t-33 115t-102.5 42q-98 0 -216 -153.5t-217.5 -389.5t-156.5 -487l-55 -323h-172zM551 1645q27 99 91 165t157 66q45 0 84.5 -20t62.5 -44.5t50.5 -44.5t50.5 -20q38 0 68.5 34t45.5 93l117 -37q-29 -99 -92 -165 t-156 -66q-42 0 -78.5 20t-58 43.5t-51.5 43.5t-60 20q-38 0 -68.5 -33.5t-45.5 -91.5z" />
<glyph unicode="&#xd2;" horiz-adv-x="1712" d="M154 569q0 149 42.5 289.5t122.5 255t187.5 200.5t244 133.5t285.5 47.5q289 0 453 -160t164 -430q0 -187 -67.5 -357t-183.5 -295t-281 -199t-351 -74q-289 0 -452.5 159.5t-163.5 429.5zM346 602q0 -210 113.5 -333.5t324.5 -123.5q147 0 276 64t215 167.5t135.5 233.5 t49.5 262q0 210 -113.5 333.5t-324.5 123.5q-147 0 -276 -64t-215 -167.5t-135.5 -233.5t-49.5 -262zM827 1876l181 25l106 -273l-117 -22q-124 130 -170 270z" />
<glyph unicode="&#xd3;" horiz-adv-x="1712" d="M154 569q0 149 42.5 289.5t122.5 255t187.5 200.5t244 133.5t285.5 47.5q289 0 453 -160t164 -430q0 -187 -67.5 -357t-183.5 -295t-281 -199t-351 -74q-289 0 -452.5 159.5t-163.5 429.5zM346 602q0 -210 113.5 -333.5t324.5 -123.5q147 0 276 64t215 167.5t135.5 233.5 t49.5 262q0 210 -113.5 333.5t-324.5 123.5q-147 0 -276 -64t-215 -167.5t-135.5 -233.5t-49.5 -262zM963 1634l188 262l195 -20q-90 -135 -265 -270z" />
<glyph unicode="&#xd4;" horiz-adv-x="1712" d="M154 569q0 149 42.5 289.5t122.5 255t187.5 200.5t244 133.5t285.5 47.5q289 0 453 -160t164 -430q0 -187 -67.5 -357t-183.5 -295t-281 -199t-351 -74q-289 0 -452.5 159.5t-163.5 429.5zM346 602q0 -210 113.5 -333.5t324.5 -123.5q147 0 276 64t215 167.5t135.5 233.5 t49.5 262q0 210 -113.5 333.5t-324.5 123.5q-147 0 -276 -64t-215 -167.5t-135.5 -233.5t-49.5 -262zM788 1630q84 144 220 271h180q88 -120 125 -271l-129 -22l-90 217l-164 -219z" />
<glyph unicode="&#xd5;" horiz-adv-x="1712" d="M154 569q0 149 42.5 289.5t122.5 255t187.5 200.5t244 133.5t285.5 47.5q289 0 453 -160t164 -430q0 -187 -67.5 -357t-183.5 -295t-281 -199t-351 -74q-289 0 -452.5 159.5t-163.5 429.5zM346 602q0 -210 113.5 -333.5t324.5 -123.5q147 0 276 64t215 167.5t135.5 233.5 t49.5 262q0 210 -113.5 333.5t-324.5 123.5q-147 0 -276 -64t-215 -167.5t-135.5 -233.5t-49.5 -262zM694 1645q27 99 91 165t157 66q45 0 84.5 -20t62.5 -44.5t50.5 -44.5t50.5 -20q38 0 69 34t46 93l116 -37q-29 -100 -91.5 -165.5t-155.5 -65.5q-42 0 -78.5 20t-58 43.5 t-51.5 43.5t-60 20q-38 0 -69 -33.5t-46 -91.5z" />
<glyph unicode="&#xd6;" horiz-adv-x="1712" d="M154 569q0 149 42.5 289.5t122.5 255t187.5 200.5t244 133.5t285.5 47.5q289 0 453 -160t164 -430q0 -187 -67.5 -357t-183.5 -295t-281 -199t-351 -74q-289 0 -452.5 159.5t-163.5 429.5zM346 602q0 -210 113.5 -333.5t324.5 -123.5q147 0 276 64t215 167.5t135.5 233.5 t49.5 262q0 210 -113.5 333.5t-324.5 123.5q-147 0 -276 -64t-215 -167.5t-135.5 -233.5t-49.5 -262zM803 1745q6 40 42 68t83 28q45 0 71.5 -28t20.5 -68q-7 -41 -44 -68.5t-83 -27.5q-47 0 -72.5 27.5t-17.5 68.5zM1149 1745q6 40 42.5 68t82.5 28q47 0 72.5 -28t19.5 -68 q-8 -41 -44 -68.5t-83 -27.5q-46 0 -71.5 27.5t-18.5 68.5z" />
<glyph unicode="&#xd7;" horiz-adv-x="1021" d="M86 203l326 276l-222 271l125 106l222 -270l323 274l101 -119l-324 -274l223 -270l-129 -107l-221 268l-326 -276z" />
<glyph unicode="&#xd8;" horiz-adv-x="1712" d="M154 569q0 149 42.5 289.5t122.5 255t187.5 200.5t244 133.5t285.5 47.5q123 0 228 -31l100 172l111 -47l-101 -172q134 -72 206.5 -205t72.5 -307q0 -187 -67.5 -357t-183.5 -295t-281 -199t-351 -74q-114 0 -209 24l-100 -174l-111 47l99 170q-143 71 -219 205t-76 317 zM346 602q0 -137 49 -239.5t144 -157.5l635 1104q-75 20 -152 20q-147 0 -276 -64t-215 -167.5t-135.5 -233.5t-49.5 -262zM651 160q61 -15 133 -15q147 0 276 64t215 167.5t135.5 233.5t49.5 262q0 130 -45 229t-131 156z" />
<glyph unicode="&#xd9;" d="M231 461l148 829q3 23 -9.5 36t-39.5 7q-36 -9 -59 7.5t-25 50.5q-2 38 29 67t92 35q107 9 155 -42t29 -155l-145 -831q-27 -149 31.5 -239.5t191.5 -90.5q135 0 235.5 92t126.5 238l176 1010h172l-178 -1014q-37 -217 -182 -349t-356 -132q-213 0 -321 133.5t-71 347.5z M676 1876l180 25l107 -273l-117 -22q-124 130 -170 270z" />
<glyph unicode="&#xda;" d="M231 461l148 829q3 23 -9.5 36t-39.5 7q-36 -9 -59 7.5t-25 50.5q-2 38 29 67t92 35q107 9 155 -42t29 -155l-145 -831q-27 -149 31.5 -239.5t191.5 -90.5q135 0 235.5 92t126.5 238l176 1010h172l-178 -1014q-37 -217 -182 -349t-356 -132q-213 0 -321 133.5t-71 347.5z M797 1634l188 262l195 -20q-90 -135 -265 -270z" />
<glyph unicode="&#xdb;" d="M231 461l148 829q3 23 -9.5 36t-39.5 7q-36 -9 -59 7.5t-25 50.5q-2 38 29 67t92 35q107 9 155 -42t29 -155l-145 -831q-27 -149 31.5 -239.5t191.5 -90.5q135 0 235.5 92t126.5 238l176 1010h172l-178 -1014q-37 -217 -182 -349t-356 -132q-213 0 -321 133.5t-71 347.5z M625 1630q86 146 219 271h180q88 -120 125 -271l-129 -22l-90 217l-164 -219z" />
<glyph unicode="&#xdc;" d="M231 461l148 829q3 23 -9.5 36t-39.5 7q-36 -9 -59 7.5t-25 50.5q-2 38 29 67t92 35q107 9 155 -42t29 -155l-145 -831q-27 -149 31.5 -239.5t191.5 -90.5q135 0 235.5 92t126.5 238l176 1010h172l-178 -1014q-37 -217 -182 -349t-356 -132q-213 0 -321 133.5t-71 347.5z M623 1745q6 40 42 68t83 28q45 0 71.5 -28t20.5 -68q-7 -41 -44 -68.5t-83 -27.5q-47 0 -72.5 27.5t-17.5 68.5zM969 1745q6 40 42.5 68t82.5 28q47 0 72.5 -28t19.5 -68q-8 -41 -44 -68.5t-83 -27.5q-46 0 -71.5 27.5t-18.5 68.5z" />
<glyph unicode="&#xdd;" horiz-adv-x="1406" d="M279 1378q-4 103 127 115q159 14 198 -90l191 -518l436 590h229l-600 -791l-119 -684h-180l119 678l-231 606q-24 49 -78 35q-40 -12 -65 5.5t-27 53.5zM844 1634l188 262l195 -20q-91 -136 -264 -270z" />
<glyph unicode="&#xde;" horiz-adv-x="1159" d="M102 0l258 1475h172l-69 -404q124 107 270 107q168 0 262.5 -86t94.5 -250q0 -125 -33.5 -234t-97 -192.5t-164.5 -131.5t-228 -48q-149 0 -233 104l-60 -340h-172zM358 487q84 -112 226 -112q68 0 124.5 27.5t94 72t63.5 103t37.5 118.5t11.5 121q0 114 -50.5 167.5 t-164.5 53.5q-65 0 -129.5 -27.5t-93.5 -50t-41 -36.5z" />
<glyph unicode="&#xdf;" horiz-adv-x="1179" d="M100 0l193 1098q28 161 155.5 269t296.5 108q205 0 290.5 -124t49.5 -335q-43 -241 -227 -352q101 -27 149 -107.5t27 -204.5q-28 -158 -137.5 -255t-265.5 -97h-211l24 150h179q91 0 156.5 55.5t82.5 146.5q15 94 -27.5 148.5t-136.5 54.5h-28q-37 0 -57 24.5t-13 61.5 q4 27 25 50t49 32q94 31 158 108.5t83 184.5q26 144 -19 226.5t-165 82.5q-93 0 -171 -66t-95 -161l-193 -1098h-172z" />
<glyph unicode="&#xe0;" horiz-adv-x="1202" d="M113 305q0 170 58.5 308t180 223.5t287.5 85.5q90 0 158.5 -24t108.5 -66.5t63.5 -101.5t24 -129.5t-10.5 -149.5l-47 -269q-3 -23 9.5 -36t37.5 -7q36 9 59 -7t25 -50q2 -38 -28.5 -67t-90.5 -35q-107 -9 -155 41.5t-29 154.5l10 68q-23 -50 -54 -93t-75 -83.5t-106 -64 t-133 -23.5q-132 0 -212.5 79.5t-80.5 245.5zM291 330q0 -213 151 -213q114 0 216 111.5t163 293.5q18 260 -207 260q-71 0 -128 -29t-92.5 -74.5t-59.5 -106.5t-33.5 -121t-9.5 -121zM461 1417l180 25l107 -273l-117 -22q-124 130 -170 270z" />
<glyph unicode="&#xe1;" horiz-adv-x="1202" d="M113 305q0 170 58.5 308t180 223.5t287.5 85.5q90 0 158.5 -24t108.5 -66.5t63.5 -101.5t24 -129.5t-10.5 -149.5l-47 -269q-3 -23 9.5 -36t37.5 -7q36 9 59 -7t25 -50q2 -38 -28.5 -67t-90.5 -35q-107 -9 -155 41.5t-29 154.5l10 68q-23 -50 -54 -93t-75 -83.5t-106 -64 t-133 -23.5q-132 0 -212.5 79.5t-80.5 245.5zM291 330q0 -213 151 -213q114 0 216 111.5t163 293.5q18 260 -207 260q-71 0 -128 -29t-92.5 -74.5t-59.5 -106.5t-33.5 -121t-9.5 -121zM545 1176l188 262l195 -21q-91 -136 -264 -270z" />
<glyph unicode="&#xe2;" horiz-adv-x="1202" d="M113 305q0 170 58.5 308t180 223.5t287.5 85.5q90 0 158.5 -24t108.5 -66.5t63.5 -101.5t24 -129.5t-10.5 -149.5l-47 -269q-3 -23 9.5 -36t37.5 -7q36 9 59 -7t25 -50q2 -38 -28.5 -67t-90.5 -35q-107 -9 -155 41.5t-29 154.5l10 68q-23 -50 -54 -93t-75 -83.5t-106 -64 t-133 -23.5q-132 0 -212.5 79.5t-80.5 245.5zM291 330q0 -213 151 -213q114 0 216 111.5t163 293.5q18 260 -207 260q-71 0 -128 -29t-92.5 -74.5t-59.5 -106.5t-33.5 -121t-9.5 -121zM428 1171q86 146 219 271h180q88 -120 125 -271l-129 -22l-90 217l-164 -219z" />
<glyph unicode="&#xe3;" horiz-adv-x="1202" d="M113 305q0 170 58.5 308t180 223.5t287.5 85.5q90 0 158.5 -24t108.5 -66.5t63.5 -101.5t24 -129.5t-10.5 -149.5l-47 -269q-3 -23 9.5 -36t37.5 -7q36 9 59 -7t25 -50q2 -38 -28.5 -67t-90.5 -35q-107 -9 -155 41.5t-29 154.5l10 68q-23 -50 -54 -93t-75 -83.5t-106 -64 t-133 -23.5q-132 0 -212.5 79.5t-80.5 245.5zM291 330q0 -213 151 -213q114 0 216 111.5t163 293.5q18 260 -207 260q-71 0 -128 -29t-92.5 -74.5t-59.5 -106.5t-33.5 -121t-9.5 -121zM346 1186q27 99 91 165t157 66q45 0 84.5 -20t62.5 -44.5t50.5 -44.5t50.5 -20 q38 0 68.5 34t45.5 93l117 -37q-29 -99 -92 -165t-156 -66q-42 0 -78.5 20t-57.5 43.5t-51 43.5t-60 20q-38 0 -69 -33.5t-46 -91.5z" />
<glyph unicode="&#xe4;" horiz-adv-x="1202" d="M113 305q0 170 58.5 308t180 223.5t287.5 85.5q90 0 158.5 -24t108.5 -66.5t63.5 -101.5t24 -129.5t-10.5 -149.5l-47 -269q-3 -23 9.5 -36t37.5 -7q36 9 59 -7t25 -50q2 -38 -28.5 -67t-90.5 -35q-107 -9 -155 41.5t-29 154.5l10 68q-23 -50 -54 -93t-75 -83.5t-106 -64 t-133 -23.5q-132 0 -212.5 79.5t-80.5 245.5zM291 330q0 -213 151 -213q114 0 216 111.5t163 293.5q18 260 -207 260q-71 0 -128 -29t-92.5 -74.5t-59.5 -106.5t-33.5 -121t-9.5 -121zM424 1243q6 40 42 68t83 28q45 0 71.5 -28t20.5 -68q-7 -41 -44 -68.5t-83 -27.5 q-47 0 -72.5 27.5t-17.5 68.5zM770 1243q6 40 42.5 68t82.5 28q47 0 72.5 -28t19.5 -68q-8 -41 -44 -68.5t-83 -27.5q-46 0 -71.5 27.5t-18.5 68.5z" />
<glyph unicode="&#xe5;" horiz-adv-x="1202" d="M113 305q0 170 58.5 308t180 223.5t287.5 85.5q90 0 158.5 -24t108.5 -66.5t63.5 -101.5t24 -129.5t-10.5 -149.5l-47 -269q-3 -23 9.5 -36t37.5 -7q36 9 59 -7t25 -50q2 -38 -28.5 -67t-90.5 -35q-107 -9 -155 41.5t-29 154.5l10 68q-23 -50 -54 -93t-75 -83.5t-106 -64 t-133 -23.5q-132 0 -212.5 79.5t-80.5 245.5zM291 330q0 -213 151 -213q114 0 216 111.5t163 293.5q18 260 -207 260q-71 0 -128 -29t-92.5 -74.5t-59.5 -106.5t-33.5 -121t-9.5 -121zM553 1311q9 68 63 115t123 47q67 0 108 -47t32 -115q-10 -69 -64.5 -116.5t-122.5 -47.5 q-69 0 -109.5 47.5t-29.5 116.5zM637 1311q-6 -32 13.5 -56t51.5 -24t59.5 24t33.5 56t-13 55t-51 23t-60 -23t-34 -55z" />
<glyph unicode="&#xe6;" horiz-adv-x="1781" d="M117 453q41 232 172.5 350.5t339.5 118.5q248 0 325 -170q132 170 389 170q98 0 167 -24.5t101 -65.5t44 -94.5t-2 -112.5q-12 -68 -54.5 -120t-104.5 -81t-130 -47.5t-141.5 -23.5t-127.5 -5t-100 4q0 -116 60.5 -174.5t167.5 -58.5q89 0 173.5 27.5t139.5 72.5l6 -149 q-129 -90 -344 -90q-207 0 -299 108l-14 -88h-150l25 147h-2q-3 -7 -9 -18t-30 -40t-54 -51t-84 -40t-118 -18q-208 0 -297.5 119.5t-48.5 353.5zM289 453q-57 -334 198 -334q61 0 112.5 17.5t85 47t53 54t34.5 51.5l29 164q30 166 -21 248.5t-176 82.5q-255 0 -315 -331z M1006 463q437 -12 469 166q12 69 -35 112t-121 43q-252 0 -313 -321z" />
<glyph unicode="&#xe7;" horiz-adv-x="1064" d="M115 453q41 232 172.5 351.5t339.5 119.5q149 0 233 -62q47 -35 66.5 -82.5t13 -91t-21 -78t-33.5 -55.5q-35 -40 -80 -48.5t-76 19.5q-22 21 -11 64.5t44 73.5q24 27 2 55q-44 65 -148 65q-127 0 -213 -83t-116 -248q-29 -167 25 -250.5t180 -83.5q91 0 182 28t145 72 l6 -149q-118 -82 -305 -88l-55 -91q71 17 128.5 -23.5t43.5 -121.5q-18 -95 -91 -140.5t-184 -45.5q-84 0 -139 24l17 94q58 -28 133 -28q50 0 88.5 19.5t46.5 64.5q7 45 -27.5 58.5t-93.5 8.5q-43 -4 -55 19q-10 16 14 63l62 101q-174 21 -252 139.5t-41 329.5z" />
<glyph unicode="&#xe8;" horiz-adv-x="1050" d="M117 453q82 469 512 469q79 0 139 -16t95.5 -43.5t56.5 -65.5t23 -81.5t-5 -90.5q-10 -59 -44 -105.5t-81 -76t-107 -50.5t-119 -30.5t-120 -13t-106 -2.5t-82 5q0 -117 56 -175t161 -58q91 0 181 28t144 72l6 -149q-129 -90 -344 -90q-210 0 -308 120.5t-58 352.5z M291 463q437 -12 469 166q12 70 -29.5 112.5t-114.5 42.5q-127 0 -210 -80.5t-115 -240.5zM442 1417l181 25l106 -273l-117 -22q-124 130 -170 270z" />
<glyph unicode="&#xe9;" horiz-adv-x="1050" d="M117 453q82 469 512 469q79 0 139 -16t95.5 -43.5t56.5 -65.5t23 -81.5t-5 -90.5q-10 -59 -44 -105.5t-81 -76t-107 -50.5t-119 -30.5t-120 -13t-106 -2.5t-82 5q0 -117 56 -175t161 -58q91 0 181 28t144 72l6 -149q-129 -90 -344 -90q-210 0 -308 120.5t-58 352.5z M291 463q437 -12 469 166q12 70 -29.5 112.5t-114.5 42.5q-127 0 -210 -80.5t-115 -240.5zM510 1176l188 262l195 -21q-91 -136 -264 -270z" />
<glyph unicode="&#xea;" horiz-adv-x="1050" d="M117 453q82 469 512 469q79 0 139 -16t95.5 -43.5t56.5 -65.5t23 -81.5t-5 -90.5q-10 -59 -44 -105.5t-81 -76t-107 -50.5t-119 -30.5t-120 -13t-106 -2.5t-82 5q0 -117 56 -175t161 -58q91 0 181 28t144 72l6 -149q-129 -90 -344 -90q-210 0 -308 120.5t-58 352.5z M291 463q437 -12 469 166q12 70 -29.5 112.5t-114.5 42.5q-127 0 -210 -80.5t-115 -240.5zM391 1171q86 146 219 271h181q87 -118 124 -271l-129 -22l-90 217l-164 -219z" />
<glyph unicode="&#xeb;" horiz-adv-x="1050" d="M117 453q82 469 512 469q79 0 139 -16t95.5 -43.5t56.5 -65.5t23 -81.5t-5 -90.5q-10 -59 -44 -105.5t-81 -76t-107 -50.5t-119 -30.5t-120 -13t-106 -2.5t-82 5q0 -117 56 -175t161 -58q91 0 181 28t144 72l6 -149q-129 -90 -344 -90q-210 0 -308 120.5t-58 352.5z M291 463q437 -12 469 166q12 70 -29.5 112.5t-114.5 42.5q-127 0 -210 -80.5t-115 -240.5zM377 1243q6 40 42 68t83 28q45 0 71.5 -28t20.5 -68q-7 -41 -44 -68.5t-83 -27.5q-47 0 -72.5 27.5t-17.5 68.5zM723 1243q6 40 42.5 68t82.5 28q47 0 72.5 -28t19.5 -68 q-8 -41 -44 -68.5t-83 -27.5q-46 0 -71.5 27.5t-18.5 68.5z" />
<glyph unicode="&#xec;" horiz-adv-x="579" d="M133 176l129 725h172l-127 -719q-3 -23 9.5 -36t37.5 -7q36 9 59 -7t25 -50q2 -38 -28.5 -67t-90.5 -35q-108 -9 -156.5 41.5t-29.5 154.5zM162 1417l180 25l107 -273l-117 -22q-124 130 -170 270z" />
<glyph unicode="&#xed;" horiz-adv-x="579" d="M133 176l129 725h172l-127 -719q-3 -23 9.5 -36t37.5 -7q36 9 59 -7t25 -50q2 -38 -28.5 -67t-90.5 -35q-108 -9 -156.5 41.5t-29.5 154.5zM307 1176l189 262l194 -21q-91 -136 -264 -270z" />
<glyph unicode="&#xee;" horiz-adv-x="579" d="M123 1171q86 146 219 271h180q88 -120 125 -271l-129 -22l-90 217l-164 -219zM133 176l129 725h172l-127 -719q-3 -23 9.5 -36t37.5 -7q36 9 59 -7t25 -50q2 -38 -28.5 -67t-90.5 -35q-108 -9 -156.5 41.5t-29.5 154.5z" />
<glyph unicode="&#xef;" horiz-adv-x="579" d="M125 1243q6 40 42 68t83 28q45 0 71.5 -28t20.5 -68q-7 -41 -44 -68.5t-83 -27.5q-47 0 -72.5 27.5t-17.5 68.5zM133 176l129 725h172l-127 -719q-3 -23 9.5 -36t37.5 -7q36 9 59 -7t25 -50q2 -38 -28.5 -67t-90.5 -35q-108 -9 -156.5 41.5t-29.5 154.5zM471 1243 q6 40 42.5 68t82.5 28q47 0 72.5 -28t19.5 -68q-8 -41 -44 -68.5t-83 -27.5q-46 0 -71.5 27.5t-18.5 68.5z" />
<glyph unicode="&#xf0;" horiz-adv-x="1099" d="M109 416q38 216 166.5 325t336.5 109q117 0 203 -39q-23 189 -106 348l-197 -86q-12 30 -29 57.5t-28 39.5l-11 12l195 84q-62 88 -145 145l147 64q78 -47 147 -144l175 76q42 -38 75 -104l-182 -80q53 -104 85 -226t40.5 -273t-20.5 -308q-38 -216 -167 -326t-335 -110 q-207 0 -297.5 110t-52.5 326zM279 416q-52 -295 198 -295q124 0 204.5 74t106.5 221q52 295 -194 295q-126 0 -207.5 -74t-107.5 -221z" />
<glyph unicode="&#xf1;" horiz-adv-x="1234" d="M147 817q-2 38 29 67.5t92 35.5q107 9 155.5 -42t29.5 -155l-33 -180q28 78 66.5 144.5t88.5 120t113.5 84t134.5 30.5q136 0 187.5 -91t21.5 -260l-69 -389q-3 -23 9.5 -36t37.5 -7q36 9 59 -7t25 -50q2 -38 -28.5 -67t-90.5 -35q-107 -9 -155 41.5t-29 154.5l69 399 q21 95 1 152t-87 57q-76 0 -159.5 -83t-150 -214.5t-104.5 -279.5l-34 -207h-172l125 717q3 23 -9.5 36t-38.5 7q-36 -9 -59 7t-25 50zM356 1186q27 99 91 165t157 66q45 0 84.5 -20t62.5 -44.5t50.5 -44.5t50.5 -20q38 0 69 34t46 93l116 -37q-29 -100 -91.5 -165.5 t-155.5 -65.5q-42 0 -78.5 20t-58 43.5t-51.5 43.5t-60 20q-38 0 -69 -33.5t-46 -91.5z" />
<glyph unicode="&#xf2;" horiz-adv-x="1101" d="M121 453q41 232 172.5 350.5t339.5 118.5q207 0 296 -118t48 -351q-41 -234 -172 -353.5t-338 -119.5q-208 0 -297.5 119.5t-48.5 353.5zM293 453q-30 -173 16.5 -253.5t182.5 -80.5q113 0 199 85.5t114 248.5q31 171 -15 251t-182 80q-113 0 -199 -84.5t-116 -246.5z M469 1417l180 25l107 -273l-117 -22q-124 130 -170 270z" />
<glyph unicode="&#xf3;" horiz-adv-x="1101" d="M121 453q41 232 172.5 350.5t339.5 118.5q207 0 296 -118t48 -351q-41 -234 -172 -353.5t-338 -119.5q-208 0 -297.5 119.5t-48.5 353.5zM293 453q-30 -173 16.5 -253.5t182.5 -80.5q113 0 199 85.5t114 248.5q31 171 -15 251t-182 80q-113 0 -199 -84.5t-116 -246.5z M522 1176l189 262l194 -21q-91 -136 -264 -270z" />
<glyph unicode="&#xf4;" horiz-adv-x="1101" d="M121 453q41 232 172.5 350.5t339.5 118.5q207 0 296 -118t48 -351q-41 -234 -172 -353.5t-338 -119.5q-208 0 -297.5 119.5t-48.5 353.5zM293 453q-30 -173 16.5 -253.5t182.5 -80.5q113 0 199 85.5t114 248.5q31 171 -15 251t-182 80q-113 0 -199 -84.5t-116 -246.5z M397 1171q86 146 219 271h181q88 -120 125 -271l-129 -22l-91 217l-163 -219z" />
<glyph unicode="&#xf5;" horiz-adv-x="1101" d="M121 453q41 232 172.5 350.5t339.5 118.5q207 0 296 -118t48 -351q-41 -234 -172 -353.5t-338 -119.5q-208 0 -297.5 119.5t-48.5 353.5zM293 453q-30 -173 16.5 -253.5t182.5 -80.5q113 0 199 85.5t114 248.5q31 171 -15 251t-182 80q-113 0 -199 -84.5t-116 -246.5z M322 1186q27 99 90.5 165t156.5 66q45 0 84.5 -20t62.5 -44.5t50.5 -44.5t50.5 -20q38 0 69 34t46 93l117 -37q-29 -99 -92 -165t-156 -66q-42 0 -78.5 20t-58 43.5t-51.5 43.5t-60 20q-38 0 -69 -33.5t-46 -91.5z" />
<glyph unicode="&#xf6;" horiz-adv-x="1101" d="M121 453q41 232 172.5 350.5t339.5 118.5q207 0 296 -118t48 -351q-41 -234 -172 -353.5t-338 -119.5q-208 0 -297.5 119.5t-48.5 353.5zM293 453q-30 -173 16.5 -253.5t182.5 -80.5q113 0 199 85.5t114 248.5q31 171 -15 251t-182 80q-113 0 -199 -84.5t-116 -246.5z M420 1243q6 40 42 68t83 28q45 0 71.5 -28t20.5 -68q-7 -41 -44 -68.5t-83 -27.5q-47 0 -72.5 27.5t-17.5 68.5zM766 1243q6 40 42.5 68t82.5 28q47 0 72.5 -28t19.5 -68q-8 -41 -44 -68.5t-83 -27.5q-46 0 -71.5 27.5t-18.5 68.5z" />
<glyph unicode="&#xf7;" horiz-adv-x="1021" d="M92 403l27 144h809l-27 -144h-809zM352 186q6 40 42 68.5t83 28.5q45 0 71.5 -28.5t20.5 -68.5q-7 -41 -44 -68.5t-83 -27.5q-47 0 -72.5 27.5t-17.5 68.5zM453 762q8 40 43 68t82 28q46 0 73 -28t19 -68q-7 -41 -43 -68.5t-82 -27.5q-47 0 -73.5 27.5t-18.5 68.5z" />
<glyph unicode="&#xf8;" horiz-adv-x="1101" d="M121 453q41 232 172.5 350.5t339.5 118.5q60 0 117 -13l116 205l97 -43l-113 -199q182 -104 127 -419q-41 -234 -172 -353.5t-338 -119.5q-65 0 -117 12l-112 -201l-99 45l109 193q-185 106 -127 424zM293 453q-38 -206 37 -281l344 606q-27 6 -66 6q-113 0 -199 -84.5 t-116 -246.5zM426 123q18 -4 66 -4q113 0 199 85.5t114 248.5q38 200 -35 278z" />
<glyph unicode="&#xf9;" horiz-adv-x="1234" d="M152 817q-2 38 28.5 67.5t89.5 35.5q107 9 155.5 -42t29.5 -155l-70 -397q-21 -95 -1 -152t87 -57q76 0 159 83t149 214t104 280l37 207h172l-125 -717q-5 -23 7.5 -36t39.5 -7q36 9 59 -7t25 -50q2 -38 -29 -67t-92 -35q-107 -9 -155 41.5t-29 154.5l30 180 q-57 -164 -161 -271t-240 -107t-187.5 90.5t-21.5 259.5l70 387q5 23 -8.5 36t-38.5 7q-36 -9 -59 7t-25 50zM481 1417l181 25l106 -273l-117 -22q-124 130 -170 270z" />
<glyph unicode="&#xfa;" horiz-adv-x="1234" d="M152 817q-2 38 28.5 67.5t89.5 35.5q107 9 155.5 -42t29.5 -155l-70 -397q-21 -95 -1 -152t87 -57q76 0 159 83t149 214t104 280l37 207h172l-125 -717q-5 -23 7.5 -36t39.5 -7q36 9 59 -7t25 -50q2 -38 -29 -67t-92 -35q-107 -9 -155 41.5t-29 154.5l30 180 q-57 -164 -161 -271t-240 -107t-187.5 90.5t-21.5 259.5l70 387q5 23 -8.5 36t-38.5 7q-36 -9 -59 7t-25 50zM610 1176l189 262l194 -21q-91 -136 -264 -270z" />
<glyph unicode="&#xfb;" horiz-adv-x="1234" d="M152 817q-2 38 28.5 67.5t89.5 35.5q107 9 155.5 -42t29.5 -155l-70 -397q-21 -95 -1 -152t87 -57q76 0 159 83t149 214t104 280l37 207h172l-125 -717q-5 -23 7.5 -36t39.5 -7q36 9 59 -7t25 -50q2 -38 -29 -67t-92 -35q-107 -9 -155 41.5t-29 154.5l30 180 q-57 -164 -161 -271t-240 -107t-187.5 90.5t-21.5 259.5l70 387q5 23 -8.5 36t-38.5 7q-36 -9 -59 7t-25 50zM446 1171q84 144 220 271h180q88 -120 125 -271l-129 -22l-90 217l-164 -219z" />
<glyph unicode="&#xfc;" horiz-adv-x="1234" d="M152 817q-2 38 28.5 67.5t89.5 35.5q107 9 155.5 -42t29.5 -155l-70 -397q-21 -95 -1 -152t87 -57q76 0 159 83t149 214t104 280l37 207h172l-125 -717q-5 -23 7.5 -36t39.5 -7q36 9 59 -7t25 -50q2 -38 -29 -67t-92 -35q-107 -9 -155 41.5t-29 154.5l30 180 q-57 -164 -161 -271t-240 -107t-187.5 90.5t-21.5 259.5l70 387q5 23 -8.5 36t-38.5 7q-36 -9 -59 7t-25 50zM449 1243q6 40 41.5 68t82.5 28q45 0 72 -28t21 -68q-7 -41 -44 -68.5t-83 -27.5q-47 0 -72.5 27.5t-17.5 68.5zM795 1243q6 40 42.5 68t82.5 28q47 0 72.5 -28 t19.5 -68q-8 -41 -44 -68.5t-83 -27.5q-46 0 -71.5 27.5t-18.5 68.5z" />
<glyph unicode="&#xfd;" horiz-adv-x="1185" d="M123 -465l31 164q109 -41 260 -41q123 0 212 79.5t111 201.5l54 305q-21 -50 -50.5 -93t-72.5 -83t-103.5 -63t-130.5 -23q-129 0 -196 89.5t-37 256.5l67 389q3 23 -9 36t-38 7q-36 -9 -59 7t-25 50q-2 38 29 67.5t92 35.5q108 9 156 -42t28 -155l-69 -379 q-23 -124 1.5 -174.5t96.5 -50.5q120 0 220 124.5t157 327.5l59 330h172l-170 -962q-33 -191 -175 -311t-347 -120q-158 0 -264 27zM592 1176l188 262l195 -21q-91 -136 -264 -270z" />
<glyph unicode="&#xfe;" horiz-adv-x="1177" d="M29 -512l325 1843q5 23 -7.5 36t-39.5 7q-36 -9 -59 7.5t-25 50.5q-2 38 29 67t92 35q104 9 153.5 -42.5t30.5 -154.5l-92 -520q124 107 271 107q201 0 292.5 -120.5t51.5 -350.5q-83 -473 -510 -473q-156 0 -242 63l-98 -555h-172zM369 434q-49 -315 192 -315 q127 0 208 84t110 250q31 170 -18.5 250.5t-186.5 80.5q-50 0 -97.5 -14.5t-83 -37t-53.5 -36.5t-30 -26z" />
<glyph unicode="&#xff;" horiz-adv-x="1185" d="M123 -465l31 164q109 -41 260 -41q123 0 212 79.5t111 201.5l54 305q-21 -50 -50.5 -93t-72.5 -83t-103.5 -63t-130.5 -23q-129 0 -196 89.5t-37 256.5l67 389q3 23 -9 36t-38 7q-36 -9 -59 7t-25 50q-2 38 29 67.5t92 35.5q108 9 156 -42t28 -155l-69 -379 q-23 -124 1.5 -174.5t96.5 -50.5q120 0 220 124.5t157 327.5l59 330h172l-170 -962q-33 -191 -175 -311t-347 -120q-158 0 -264 27zM414 1243q6 40 42 68t83 28q45 0 71.5 -28t20.5 -68q-7 -41 -44 -68.5t-83 -27.5q-47 0 -72.5 27.5t-17.5 68.5zM760 1243q6 40 42.5 68 t82.5 28q47 0 72.5 -28t19.5 -68q-8 -41 -44 -68.5t-83 -27.5q-46 0 -71.5 27.5t-18.5 68.5z" />
<glyph unicode="&#x152;" horiz-adv-x="1880" d="M229 737q59 330 289.5 534t554.5 204h844l-25 -150h-671l-111 -618h471l-27 -150h-471l-63 -362q-3 -19 6 -32t29 -13h653l-25 -150h-868q-215 0 -362 93t-205 260t-19 384zM414 737q-45 -257 71 -416t357 -159l205 1151q-242 0 -415.5 -159t-217.5 -417z" />
<glyph unicode="&#x153;" horiz-adv-x="1736" d="M115 453q41 233 168.5 351t334.5 118q117 0 201 -37.5t123 -110.5q131 146 363 146q79 0 140 -16t97.5 -43.5t59 -65.5t25 -81.5t-4.5 -90.5q-12 -68 -54.5 -120t-104.5 -81t-130 -47.5t-141.5 -23.5t-127.5 -5t-99 4q0 -115 58.5 -174t160.5 -59q90 0 178.5 27.5 t142.5 72.5l6 -149q-134 -91 -335 -91q-254 0 -342 158q-134 -155 -365 -155q-209 0 -302 120t-52 353zM287 453q-57 -334 198 -334q122 2 203.5 86t110.5 248q60 331 -189 331q-126 0 -209.5 -83t-113.5 -248zM975 461q126 -4 218 8.5t142.5 38t75.5 54.5t31 65 q13 70 -30 112.5t-116 42.5q-126 0 -208.5 -80.5t-112.5 -240.5z" />
<glyph unicode="&#x178;" horiz-adv-x="1406" d="M279 1378q-4 103 127 115q159 14 198 -90l191 -518l436 590h229l-600 -791l-119 -684h-180l119 678l-231 606q-24 49 -78 35q-40 -12 -65 5.5t-27 53.5zM672 1745q6 40 42 68t83 28q45 0 71.5 -28t20.5 -68q-7 -41 -44 -68.5t-83 -27.5q-47 0 -72.5 27.5t-17.5 68.5z M1018 1745q6 40 42.5 68t82.5 28q47 0 72.5 -28t19.5 -68q-8 -41 -44 -68.5t-83 -27.5q-46 0 -71.5 27.5t-18.5 68.5z" />
<glyph unicode="&#x2c6;" horiz-adv-x="749" d="M319 1630q84 144 220 271h180q88 -120 125 -271l-129 -22l-90 217l-164 -219z" />
<glyph unicode="&#x2dc;" horiz-adv-x="917" d="M319 1645q27 99 91 165t157 66q45 0 84.5 -20t62.5 -44.5t50.5 -44.5t50.5 -20q38 0 69 34t46 93l117 -37q-29 -99 -92 -165t-156 -66q-42 0 -78.5 20t-58 43.5t-51.5 43.5t-60 20q-38 0 -69 -33.5t-46 -91.5z" />
<glyph unicode="&#x2000;" horiz-adv-x="950" />
<glyph unicode="&#x2001;" horiz-adv-x="1901" />
<glyph unicode="&#x2002;" horiz-adv-x="950" />
<glyph unicode="&#x2003;" horiz-adv-x="1901" />
<glyph unicode="&#x2004;" horiz-adv-x="633" />
<glyph unicode="&#x2005;" horiz-adv-x="475" />
<glyph unicode="&#x2006;" horiz-adv-x="316" />
<glyph unicode="&#x2007;" horiz-adv-x="316" />
<glyph unicode="&#x2008;" horiz-adv-x="237" />
<glyph unicode="&#x2009;" horiz-adv-x="380" />
<glyph unicode="&#x200a;" horiz-adv-x="105" />
<glyph unicode="&#x2010;" horiz-adv-x="739" d="M66 416l26 151h596l-26 -151h-596z" />
<glyph unicode="&#x2011;" horiz-adv-x="739" d="M66 416l26 151h596l-26 -151h-596z" />
<glyph unicode="&#x2012;" horiz-adv-x="739" d="M66 416l26 151h596l-26 -151h-596z" />
<glyph unicode="&#x2013;" horiz-adv-x="776" d="M0 416v151h776v-151h-776z" />
<glyph unicode="&#x2014;" horiz-adv-x="1116" d="M0 416v151h1116v-151h-1116z" />
<glyph unicode="&#x2018;" horiz-adv-x="526" d="M297 1536h180l45 -432l-121 -25q-88 210 -104 457z" />
<glyph unicode="&#x2019;" horiz-adv-x="526" d="M225 1104l197 432h180q-102 -242 -268 -457z" />
<glyph unicode="&#x201a;" horiz-adv-x="526" d="M-6 -199l201 432h178q-102 -243 -267 -456z" />
<glyph unicode="&#x201c;" horiz-adv-x="839" d="M295 1536h180l45 -432l-121 -25q-88 210 -104 457zM608 1536h178l48 -432l-123 -25q-86 208 -103 457z" />
<glyph unicode="&#x201d;" horiz-adv-x="839" d="M225 1104l199 432h178q-104 -248 -266 -457zM539 1104l196 432h180q-102 -242 -268 -457z" />
<glyph unicode="&#x201e;" horiz-adv-x="839" d="M-6 -199l201 432h178q-102 -243 -267 -456zM307 -199l199 432h180q-101 -240 -268 -456z" />
<glyph unicode="&#x2022;" horiz-adv-x="755" d="M227 725q12 72 77 122t149 50q82 0 127.5 -49.5t33.5 -122.5q-13 -75 -76.5 -123.5t-146.5 -48.5q-85 0 -131 48.5t-33 123.5z" />
<glyph unicode="&#x2026;" horiz-adv-x="1536" d="M51 117q7 49 51 82.5t101 33.5q56 0 87 -33t23 -83q-9 -51 -51.5 -84t-99.5 -33t-88.5 33t-22.5 84zM575 117q7 49 51 82.5t101 33.5t88 -33t23 -83q-9 -51 -52 -84t-100 -33t-88.5 33t-22.5 84zM1100 117q8 50 51 83t100 33t88 -33t23 -83q-9 -51 -52 -84t-100 -33 t-88 33t-22 84z" />
<glyph unicode="&#x202f;" horiz-adv-x="380" />
<glyph unicode="&#x2039;" horiz-adv-x="598" d="M112 551.5q8 45.5 35 77.5l250 293h203l-328 -379l183 -363h-189l-147 293q-15 33 -7 78.5z" />
<glyph unicode="&#x203a;" horiz-adv-x="598" d="M25 180l327 379l-182 363h188l148 -293q15 -34 7 -79t-36 -77l-250 -293h-202z" />
<glyph unicode="&#x205f;" horiz-adv-x="475" />
<glyph unicode="&#x20ac;" horiz-adv-x="1191" d="M88 287l23 131h139l12 69h-139l24 131h156q71 152 195 230t288 78q215 0 314 -90l-64 -148q-39 45 -112 71.5t-162 26.5q-94 0 -168 -43t-111 -125h533l-53 -131h-533l-12 -69h518l-49 -131h-463q3 -83 63 -125.5t158 -42.5q89 0 173.5 27.5t139.5 72.5l7 -149 q-129 -90 -344 -90q-325 0 -377 307h-156z" />
<glyph unicode="&#x2122;" horiz-adv-x="1701" d="M254 1337l22 138h553l-22 -138h-209l-90 -510h-152l90 510h-192zM829 827l72 408q19 106 93.5 178t174.5 72q124 0 174 -99q80 99 207 99q101 0 151.5 -72.5t31.5 -177.5l-72 -408h-152l74 420q6 37 -17.5 63.5t-60.5 26.5t-70.5 -27t-39.5 -63l-74 -420h-152l74 420 q6 37 -17.5 63.5t-60.5 26.5t-70.5 -27t-39.5 -63l-74 -420h-152z" />
<glyph unicode="&#xe000;" horiz-adv-x="921" d="M0 0v922h922v-922h-922z" />
</font>
</defs>
</svg>
