<?xml version="1.0" standalone="no"?>
<!DOCTYPE svg PUBLIC "-//W3C//DTD SVG 1.1//EN" "http://www.w3.org/Graphics/SVG/1.1/DTD/svg11.dtd" >
<svg xmlns="http://www.w3.org/2000/svg">
<metadata></metadata>
<defs>
<font id="reverie_boldbold" horiz-adv-x="1712" >
<font-face units-per-em="2048" ascent="1536" descent="-512" />
<missing-glyph horiz-adv-x="614" />
<glyph horiz-adv-x="2048" />
<glyph horiz-adv-x="2048" />
<glyph unicode="&#xd;" horiz-adv-x="2048" />
<glyph unicode=" "  horiz-adv-x="614" />
<glyph unicode="&#x09;" horiz-adv-x="614" />
<glyph unicode="&#xa0;" horiz-adv-x="614" />
<glyph unicode="!" horiz-adv-x="561" d="M113 152q0 64 47.5 107.5t120.5 43.5t120.5 -43.5t47.5 -107.5q0 -66 -47.5 -109t-120.5 -43t-120.5 43t-47.5 109zM170 477v998h229v-998h-229z" />
<glyph unicode="&#x22;" horiz-adv-x="714" d="M113 995v480h190v-480h-190zM412 995v480h190v-480h-190z" />
<glyph unicode="#" horiz-adv-x="1140" d="M123 426v162h190l43 299h-168v162h191l61 426h144l-62 -426h164l62 426h143l-62 -426h189v-162h-211l-43 -299h188v-162h-211l-59 -426h-143l59 426h-164l-59 -426h-144l60 426h-168zM457 588h164l43 299h-164z" />
<glyph unicode="$" horiz-adv-x="1105" d="M135 231q0 64 34.5 101t98.5 37q49 0 79.5 -33t23.5 -84q-7 -34 45 -57t119 -23q87 0 137.5 29t50.5 71q0 29 -31.5 48t-81.5 30.5t-110 22t-120.5 29t-110.5 45.5t-81.5 76.5t-31.5 117.5q0 120 83 191t226 86v167h176v-170q198 -21 289 -116l-115 -181 q-57 56 -121.5 83.5t-154.5 27.5q-55 0 -91 -22.5t-36 -55.5q0 -28 31 -46.5t80.5 -30.5t109 -23.5t119.5 -31t109.5 -48t80.5 -80t31 -121.5q0 -63 -27.5 -114.5t-76 -85t-105.5 -54.5t-123 -30v-170h-176v168q-66 6 -122 22.5t-104.5 44.5t-76.5 74t-27 106z" />
<glyph unicode="%" horiz-adv-x="1794" d="M123 1020q0 131 95 226t228 95t227.5 -95t94.5 -226q0 -135 -94 -229.5t-228 -94.5t-228.5 94.5t-94.5 229.5zM313 0l975 1341h238l-975 -1341h-238zM315 1020q0 -62 38 -105t93 -43q54 0 93 43.5t39 104.5q0 58 -39 98.5t-93 40.5q-55 0 -93 -40t-38 -99zM1053 324 q0 131 95 226t228 95t227.5 -95t94.5 -226q0 -135 -94 -229.5t-228 -94.5t-228.5 94.5t-94.5 229.5zM1245 324q0 -62 38 -105t93 -43q54 0 92.5 43.5t38.5 104.5q0 58 -38.5 98.5t-92.5 40.5q-55 0 -93 -40t-38 -99z" />
<glyph unicode="&#x26;" horiz-adv-x="1472" d="M123 434q0 127 63.5 224.5t186.5 150.5q-92 46 -137.5 125.5t-45.5 181.5q0 163 127.5 271t335.5 108q160 0 279 -82q55 -37 88 -85.5t40.5 -94.5t4.5 -82.5t-14 -63.5q-19 -56 -68 -81.5t-104 -6.5q-41 14 -60.5 63t2.5 89q7 17 -4.5 45.5t-34.5 50.5q-49 37 -129 37 q-94 0 -151.5 -50.5t-57.5 -129.5q0 -81 58.5 -141t150.5 -60q5 0 12.5 -0.5t27 -6.5t34.5 -16t27 -32t12 -53q0 -32 -11.5 -56t-28 -35t-33.5 -17.5t-29 -7.5l-11 -1q-120 0 -198 -61.5t-78 -155.5q0 -98 78 -174t198 -76q121 0 197 75.5t76 174.5v194q0 104 75 179t179 75 h172v-225h-146q-15 0 -27 -12t-12 -27v-211q0 -193 -134.5 -318.5t-379.5 -125.5q-246 0 -388 126.5t-142 317.5z" />
<glyph unicode="'" horiz-adv-x="415" d="M113 995v480h190v-480h-190z" />
<glyph unicode="(" horiz-adv-x="735" d="M72 596q2 569 315 991h277q-326 -408 -326 -991q0 -554 326 -983h-277q-315 417 -315 983z" />
<glyph unicode=")" horiz-adv-x="735" d="M72 -387q325 427 325 983q0 584 -325 991h276q314 -423 316 -991q0 -565 -316 -983h-276z" />
<glyph unicode="*" horiz-adv-x="1052" d="M121 1180q14 44 53 66t80 9q112 -36 190 -94q-30 92 -30 211q0 43 32.5 73t79.5 30t80 -30t33 -73q0 -116 -31 -211q77 58 191 94q41 13 80 -9t53 -66q15 -44 -4 -85t-60 -55q-106 -34 -209 -34q83 -62 150 -152q25 -35 15.5 -79.5t-46.5 -72.5q-38 -28 -83 -22t-70 41 q-71 100 -99 188q-29 -91 -98 -188q-26 -35 -71 -41t-83 22q-37 28 -46 72.5t16 79.5q68 92 149 152q-103 0 -209 34q-41 13 -59.5 54.5t-3.5 85.5z" />
<glyph unicode="+" horiz-adv-x="1116" d="M154 385v184h305v305h198v-305h306v-184h-306v-307h-198v307h-305z" />
<glyph unicode="," horiz-adv-x="561" d="M113 152q0 64 47.5 107.5t120.5 43.5t120.5 -43.5t47.5 -107.5q0 -25 -11 -54h2l-168 -366h-149l127 270q-62 8 -99.5 49t-37.5 101z" />
<glyph unicode="-" horiz-adv-x="780" d="M72 395v193h637v-193h-637z" />
<glyph unicode="." horiz-adv-x="561" d="M113 152q0 64 47.5 107.5t120.5 43.5t120.5 -43.5t47.5 -107.5q0 -66 -47.5 -109t-120.5 -43t-120.5 43t-47.5 109z" />
<glyph unicode="/" horiz-adv-x="1064" d="M143 0l559 1475h220l-560 -1475h-219z" />
<glyph unicode="0" horiz-adv-x="1146" d="M102 451q0 195 138 333t333 138t333 -138t138 -333t-138 -333t-333 -138t-333 138t-138 333zM346 451q0 -104 66.5 -177t160.5 -73t161 73t67 177q0 102 -67 174.5t-161 72.5t-160.5 -72t-66.5 -175z" />
<glyph unicode="1" horiz-adv-x="1028" d="M143 680q56 18 108 49.5t87 63t61.5 60.5t38.5 47l13 18h225v-703h219v-215h-741v215h260v363q-9 -9 -25.5 -22.5t-62.5 -41.5t-86 -39z" />
<glyph unicode="2" horiz-adv-x="1052" d="M102 0v229q73 17 140 38.5t136 53.5t119.5 68t82.5 83.5t32 98.5q0 138 -170 138q-126 0 -327 -88v237q157 68 342 68q75 0 139.5 -10t122.5 -33.5t99 -59.5t65 -91t24 -126q0 -127 -117 -238.5t-276 -154.5l2 -12l332 35q44 4 76 -34.5t32 -86.5q0 -46 -31.5 -80.5 t-76.5 -34.5h-746z" />
<glyph unicode="3" horiz-adv-x="976" d="M82 -131q160 -70 317 -70q101 0 161.5 40t60.5 130q0 114 -59 154.5t-200 40.5l-100 -2v227l100 -2q110 -2 165 33t55 133q0 149 -205 149q-136 0 -283 -57v221q145 52 299 52q93 0 174 -20.5t147 -62.5t104 -112.5t38 -163.5q0 -216 -201 -276v-11q93 -16 166.5 -106.5 t73.5 -218.5q0 -80 -26 -143.5t-70 -105.5t-106 -70t-130.5 -40t-146.5 -12q-176 0 -334 51v242z" />
<glyph unicode="4" horiz-adv-x="1167" d="M83.5 125q-1.5 51 22.5 104l373 693h277l-385 -699h291v232q0 45 35.5 79.5t86.5 34.5q53 0 90 -34.5t37 -79.5v-232h62q44 0 78 -33t34 -77t-34 -78.5t-78 -34.5h-62v-424h-249v424h-447q-58 0 -94 37t-37.5 88z" />
<glyph unicode="5" horiz-adv-x="1013" d="M102 -150q3 -1 29.5 -10t35.5 -12t34.5 -10.5t42 -10.5t41 -8t49 -6.5t49.5 -1.5q131 0 200.5 64.5t69.5 167.5t-69.5 167t-200.5 64q-141 0 -281 -33v617q0 34 25 59t59 25h600q44 0 78.5 -33.5t34.5 -77.5t-34.5 -78.5t-78.5 -34.5h-407v-229h18q257 0 396 -122 t139 -324q0 -196 -152 -321.5t-383 -125.5q-142 0 -295 49v225z" />
<glyph unicode="6" horiz-adv-x="1175" d="M102 547q0 120 24 223.5t64.5 177.5t93 134.5t110.5 99.5t115.5 68t110 44t93 24t64.5 11l24 2l121 -203q-9 0 -25.5 -0.5t-65.5 -7.5t-95 -19.5t-107 -40.5t-110 -66.5t-94.5 -101t-70.5 -140.5q93 114 264 114q191 0 323 -129.5t132 -314.5q0 -183 -140 -312.5 t-339 -129.5q-169 0 -297.5 95.5t-165.5 243.5q-29 106 -29 228zM360 422q0 -91 68 -156t166 -65t165.5 65t67.5 156q0 93 -67.5 158t-165.5 65t-166 -65t-68 -158z" />
<glyph unicode="7" horiz-adv-x="1042" d="M61 809q0 44 35.5 78.5t79.5 34.5h592q112 0 155 -69.5t7 -160.5l-445 -1116h-264l457 1124h-502q-45 0 -80 32.5t-35 76.5z" />
<glyph unicode="8" horiz-adv-x="1062" d="M82 377q0 114 60.5 203.5t168.5 136.5q-82 41 -127 113.5t-45 164.5q0 146 108.5 246t282.5 100q175 0 284.5 -100t109.5 -246q0 -92 -46 -164t-128 -114q108 -48 169.5 -137.5t61.5 -202.5q0 -167 -127 -282t-324 -115q-196 0 -322 115t-126 282zM315 399 q0 -85 59.5 -141.5t155.5 -56.5t155.5 56.5t59.5 141.5q0 86 -59 142.5t-156 56.5t-156 -56.5t-59 -142.5zM360 983q0 -63 47 -107.5t123 -44.5q77 0 123.5 44t46.5 108q0 65 -46.5 108.5t-123.5 43.5q-76 0 -123 -43.5t-47 -108.5z" />
<glyph unicode="9" horiz-adv-x="1175" d="M102 481q0 183 140.5 313t339.5 130q167 0 296 -96t166 -244q29 -106 29 -228q0 -120 -24 -223.5t-64.5 -177.5t-92.5 -134.5t-110 -99.5t-116 -68t-110 -44t-92.5 -24t-64.5 -11l-24 -2l-121 203q9 0 25.5 0.5t65 7.5t95 20t107 41t110 66.5t94.5 101t70 140.5 q-94 -115 -264 -115q-191 0 -323 129.5t-132 314.5zM348 481q0 -93 68 -158t166 -65t165.5 65t67.5 158q0 91 -67.5 156t-165.5 65t-166 -65t-68 -156z" />
<glyph unicode=":" horiz-adv-x="561" d="M113 152q0 64 47.5 107.5t120.5 43.5t120.5 -43.5t47.5 -107.5q0 -66 -47.5 -109t-120.5 -43t-120.5 43t-47.5 109zM113 791q0 64 47.5 107.5t120.5 43.5t120.5 -43.5t47.5 -107.5q0 -66 -47.5 -109t-120.5 -43t-120.5 43t-47.5 109z" />
<glyph unicode=";" horiz-adv-x="587" d="M113 791q0 64 47.5 107.5t120.5 43.5t120.5 -43.5t47.5 -107.5q0 -66 -47.5 -109t-120.5 -43t-120.5 43t-47.5 109zM139 152q0 64 47.5 107.5t120.5 43.5t120.5 -43.5t47.5 -107.5q0 -27 -10 -54h2l-168 -366h-149l126 270q-62 8 -99.5 49t-37.5 101z" />
<glyph unicode="&#x3c;" horiz-adv-x="743" d="M102 489l258 414h261v-18l-261 -389l261 -414v-12h-261z" />
<glyph unicode="=" horiz-adv-x="1067" d="M154 209v184h759v-184h-759zM154 561v184h759v-184h-759z" />
<glyph unicode="&#x3e;" horiz-adv-x="743" d="M123 70v12l260 414l-260 389v18h260l258 -414l-258 -419h-260z" />
<glyph unicode="?" horiz-adv-x="1009" d="M113 1169v254q179 52 321 52q209 0 336 -109t127 -283q0 -168 -107.5 -292t-306.5 -179v-192h-243l-27 258q-9 88 82 115q328 100 328 288q0 65 -49 111.5t-142 46.5q-148 0 -319 -70zM201 152q0 64 47.5 107.5t120.5 43.5t120.5 -43.5t47.5 -107.5q0 -66 -47.5 -109 t-120.5 -43t-120.5 43t-47.5 109z" />
<glyph unicode="@" horiz-adv-x="1937" d="M184 487q0 201 63.5 355t175.5 248t256.5 141t315.5 47q166 0 304 -43.5t239.5 -127.5t158 -215t56.5 -298q0 -120 -15.5 -211.5t-50.5 -164t-97 -114.5t-150 -51q-83 -8 -137.5 31.5t-71.5 124.5q-12 -46 -94.5 -108t-184.5 -62q-389 0 -389 457q0 218 107 335t307 117 q199 0 305.5 -111.5t106.5 -324.5v-199q0 -19 17.5 -31.5t29.5 -7.5q20 8 34 22t27.5 45.5t20 91.5t6.5 149q0 247 -145.5 373t-389.5 126q-265 0 -414 -153t-149 -441q0 -563 516 -563q60 0 149.5 14.5t141.5 32.5l33 -196q-62 -22 -159.5 -35.5t-178.5 -13.5 q-358 0 -551 195t-193 566zM823 498q0 -139 38.5 -197.5t115.5 -58.5q128 0 153 147v109q0 137 -38 194.5t-115 57.5t-115.5 -57.5t-38.5 -194.5z" />
<glyph unicode="A" horiz-adv-x="1546" d="M154 631q0 72 55 100q9 5 14 17t5 21l1 9v183q0 239 140.5 386.5t373.5 147.5q236 0 377.5 -147.5t141.5 -386.5v-711q0 -34 13.5 -40t47.5 7q18 6 35 6q26 0 52 -14q42 -23 50 -70q3 -15 3 -29q1 -38 -23 -66q-32 -39 -103 -52q-54 -12 -102 -12q-89 0 -153 42 q-98 64 -97 224v270h-479v-516h-277v485q3 38 -20 50q-55 30 -55 96zM506 743h479v218q0 135 -65.5 218t-174.5 83t-174 -83t-65 -218v-218z" />
<glyph unicode="B" horiz-adv-x="1374" d="M174 795q0 72 55 100q9 5 14 17t6 21l1 9v449q0 34 25 59t59 25h239q24 1 47 1q510 0 510 -362q0 -212 -157 -293q139 -46 219 -155t80 -238q0 -68 -21 -130.5t-68.5 -119t-117 -97t-173.5 -62.5q-92 -19 -203 -19h-30h-155q-104 0 -179 75t-75 179v395q2 37 -21 49 q-55 30 -55 97zM526 266q0 -15 12 -27t27 -12h94h19q153 0 231 60q82 64 82 166q1 101 -81 165q-78 61 -211 60h-13h-160v-412zM526 911h45q157 0 222 41t65 127q0 92 -66 133q-57 36 -184 36q-19 0 -39 -1h-43v-336z" />
<glyph unicode="C" horiz-adv-x="1640" d="M123 737q0 223 89 395t256 267.5t388 95.5q297 0 494 -172q42 -35 68 -80.5t32 -88.5q5 -31 5 -58q-1 -10 -1 -20q-2 -36 -12 -62q-24 -71 -86 -102q-37 -18 -74 -18q-26 0 -53 9q-43 15 -63 69q-8 22 -9 45q0 32 17 64q5 12 5 23q0 27 -30 53q-121 105 -293 105 q-207 0 -332 -145.5t-125 -379.5q0 -233 128.5 -378.5t336.5 -145.5q134 0 253.5 62t195.5 163l174 -188q-101 -127 -266 -198.5t-357 -71.5q-222 0 -390.5 95.5t-259.5 267t-91 394.5z" />
<glyph unicode="D" horiz-adv-x="1536" d="M137 1368q1 51 34 79t85 28h442q216 0 379 -93t249.5 -260t86.5 -385q0 -162 -50.5 -298.5t-142.5 -233.5t-226 -151t-296 -54h-215q-104 0 -179 75t-75 179v944q0 44 -22 55q-70 37 -70 109v6zM506 266q0 -15 12 -27t27 -12h153q202 0 323.5 141t121.5 369 q0 229 -121 369.5t-324 140.5h-192v-981z" />
<glyph unicode="E" horiz-adv-x="1269" d="M174 631q0 72 55 100q9 5 14 17t6 21l1 9v613q0 34 25 59t59 25h803v-228h-611v-504h365l-2 -227h-363v-250q0 -15 12 -27t27 -12h592v-227h-653q-104 0 -179 75t-75 179v231q2 38 -21 50q-55 30 -55 96z" />
<glyph unicode="F" horiz-adv-x="1249" d="M174 631q0 72 55 100q9 5 14 17t6 21l1 9v613q0 34 25 59t59 25h803v-228h-611v-504h418l-2 -227h-416v-516h-276v485q2 38 -21 50q-55 30 -55 96z" />
<glyph unicode="G" horiz-adv-x="1640" d="M123 737q0 223 89 395t256 267.5t388 95.5q297 0 494 -172q42 -35 68 -80.5t32 -88.5q5 -31 5 -58q0 -11 -1 -20q-2 -36 -12 -62q-24 -71 -86 -102q-37 -18 -74 -18q-26 0 -53 9q-44 16 -63 69q-9 22 -9 45q0 32 17 64q5 12 5 23q0 28 -30 53q-121 105 -293 105 q-207 0 -332 -145.5t-125 -379.5t124.5 -379t332.5 -145q195 0 334 123v180h-320v227h512q34 0 59 -25t25 -59v-423q-103 -121 -263.5 -188.5t-346.5 -67.5q-334 0 -533.5 209t-199.5 548z" />
<glyph unicode="H" horiz-adv-x="1523" d="M76 1335q-3 15 -3 28q0 39 24 69q32 40 102 53q53 11 99 11q92 0 157 -43q98 -64 98 -222v-488h469v732h276v-1475h-276v516h-469v-516h-277v1225q0 34 -13.5 41t-47.5 -6q-19 -7 -38 -7q-25 1 -49 13q-42 22 -52 69z" />
<glyph unicode="I" horiz-adv-x="788" d="M86 1335q-3 15 -3 28q0 39 24 69q32 40 102 53q53 11 99 11q92 0 157 -43q98 -64 98 -222v-1231h-276v1225q0 34 -14 41t-48 -6q-19 -7 -38 -7q-25 1 -49 13q-42 22 -52 69z" />
<glyph unicode="J" horiz-adv-x="1011" d="M82 180q1 54 42 92q39 37 90 37h5q68 0 107 -59q28 -39 82 -39q102 0 102 166v1098h276v-1098q0 -192 -94.5 -294.5t-281.5 -102.5q-91 0 -166.5 26t-120.5 76q-41 41 -41 98z" />
<glyph unicode="K" horiz-adv-x="1460" d="M76 1335q-3 15 -3 28q0 39 24 69q32 40 102 53q53 11 99 11q92 0 157 -43q98 -64 98 -222v-375l467 619h311l-473 -611l232 -475q28 -58 58.5 -107t43.5 -59q16 -12 37 -12q12 0 24 4q17 5 33 5q26 0 52 -14q40 -23 48 -69q2 -11 2 -22q0 -42 -28 -73q-35 -39 -105 -52 q-50 -10 -92 -10q-58 0 -103 19q-77 33 -122 122l-260 512l-125 -164v-469h-277v1225q0 34 -13.5 41t-47.5 -6q-19 -7 -38 -7q-25 1 -49 13q-42 22 -52 69z" />
<glyph unicode="L" horiz-adv-x="1214" d="M225 254v1221h277v-1209q0 -15 12 -27t27 -12h592v-227h-654q-104 0 -179 75t-75 179z" />
<glyph unicode="M" horiz-adv-x="1681" d="M135 1368q1 51 34 79t85 28h125q88 0 143 -76l295 -420l295 440q55 76 143 76q67 0 109.5 -35.5t42.5 -89.5v-1120q0 -34 13.5 -41t47.5 6q19 7 37 7q25 0 49 -13q42 -23 52 -70q3 -15 3 -28q0 -39 -24 -69q-32 -40 -102 -52q-53 -11 -99 -11q-92 0 -158 43 q-98 64 -98 222v739l-133 -199l-24 -36q-8 -16 -19.5 -44.5t-20 -45.5t-23 -35.5t-37 -27.5t-54.5 -9q-31 0 -53.5 7.5t-37.5 26t-22.5 32t-18.5 43.5t-17 42l-162 246v-983h-279v1198q0 44 -22 55q-70 37 -70 109v6z" />
<glyph unicode="N" horiz-adv-x="1523" d="M135 1368q1 51 34 79t85 28h137q98 0 144 -76l485 -832v908h278v-1371q0 -54 -43 -89t-110 -35q-95 0 -137 75l-502 877v-932h-279v1198q0 44 -22 55q-70 37 -70 109v6z" />
<glyph unicode="O" d="M123 737q0 223 89 395t256 267.5t388 95.5t388 -95.5t256 -267.5t89 -395q0 -339 -199.5 -548t-533.5 -209t-533.5 209t-199.5 548zM399 737q0 -234 124.5 -379t332.5 -145t332.5 145t124.5 379t-125 379.5t-332 145.5t-332 -145.5t-125 -379.5z" />
<glyph unicode="P" horiz-adv-x="1372" d="M184 631q0 71 56 100q9 5 14 17t6 21v9v613q0 34 25 59t59 25h354q19 1 38 1q260 0 392 -119q142 -127 142 -356q0 -111 -34 -200.5t-102 -155.5q-68 -65 -179 -99q-99 -30 -226 -30h-31h-161v-516h-277v485q3 38 -20 50q-56 31 -56 96zM537 743h161q156 0 227.5 68.5 t71.5 189.5q0 120 -71 183t-228 63h-161v-504z" />
<glyph unicode="Q" d="M123 737q0 223 89 395t256 267.5t388 95.5t388 -95.5t256 -267.5t89 -395q0 -300 -159.5 -501t-432.5 -244v-137q0 -34 14 -40t48 7q18 6 35 6q26 0 52 -14q41 -23 50 -70q3 -15 3 -29q0 -38 -23 -66q-33 -39 -103 -52q-55 -12 -103 -12q-89 0 -152 41q-97 64 -97 224 v140q-277 41 -437.5 243t-160.5 504zM399 737q0 -193 86.5 -328t237.5 -178q9 0 21.5 5.5t17.5 15.5q28 55 100 55q71 0 96 -55q11 -17 35 -21q149 44 234.5 179t85.5 327q0 234 -125 379.5t-332 145.5t-332 -145.5t-125 -379.5z" />
<glyph unicode="R" horiz-adv-x="1476" d="M184 631q0 71 56 100q9 5 14 17t6 21v9v613q0 34 25 59t59 25h354q19 1 38 1q260 0 392 -119q142 -127 142 -356q0 -300 -226 -419q58 -220 144 -351q20 -27 55 -16q17 5 34 5q27 0 53 -14q42 -23 50 -69q3 -15 3 -29q1 -38 -23 -66q-32 -39 -103 -52q-48 -10 -90 -10 q-57 0 -102 19q-77 33 -131 122q-79 131 -152 395h-84h-161v-516h-277v485q3 38 -20 50q-56 31 -56 96zM537 743h161q156 0 227.5 68.5t71.5 189.5q0 120 -71 183t-228 63h-161v-504z" />
<glyph unicode="S" horiz-adv-x="1294" d="M143 231l179 187q18 -34 42.5 -65t62 -62t91.5 -49.5t117 -18.5q111 0 174 44t63 130q0 49 -24 86t-64.5 62t-93 46.5t-110.5 42.5t-116 45.5t-110.5 60.5t-93 83t-64.5 117.5t-24 159.5q0 108 54 197.5t159.5 143.5t243.5 54q232 0 354 -117q39 -37 64 -81.5t33 -84.5 q7 -34 7 -64q-1 -6 -1 -12q-2 -34 -11 -59q-24 -69 -85 -99q-35 -18 -72 -18q-26 0 -52 9q-44 17 -62 73q-7 22 -7 43q0 34 18 68q7 13 7 25q0 23 -25 45q-53 47 -174 47q-94 0 -145.5 -50.5t-51.5 -129.5q0 -57 39 -100t101 -72.5t137 -57t150 -63.5t137 -82t101 -122 t39 -175q0 -108 -39 -193t-107 -138t-155.5 -80t-189.5 -27q-167 0 -302 66t-194 185z" />
<glyph unicode="T" horiz-adv-x="1181" d="M82 1260v215h1018v-215h-332q-15 0 -27 -12t-12 -27v-1221h-276v1221q0 15 -12 27t-27 12h-332z" />
<glyph unicode="U" horiz-adv-x="1523" d="M86 1335q-3 15 -3 28q0 39 24 69q32 40 102 53q53 11 99 11q92 0 157 -43q98 -64 98 -222v-717q0 -135 65.5 -218t174.5 -83t174 83t65 218v961h277v-961q0 -239 -140.5 -386.5t-373.5 -147.5q-236 0 -377 147t-141 387v711q0 34 -14 41t-48 -6q-19 -7 -38 -7 q-25 1 -49 13q-42 22 -52 69z" />
<glyph unicode="V" horiz-adv-x="1339" d="M82 1475h321l267 -1053l266 1053h321l-440 -1393q-1 -4 -4.5 -11t-15.5 -24.5t-27 -31t-42 -24.5t-58 -11q-34 0 -61.5 10.5t-42.5 25.5t-25 30t-13 26l-4 10z" />
<glyph unicode="W" horiz-adv-x="2166" d="M82 1475h321l267 -1053l266 956q14 52 52.5 83.5t94.5 31.5t94.5 -30t53.5 -85l266 -956l266 1053h322l-443 -1393q-13 -45 -54.5 -73.5t-92.5 -28.5q-52 0 -92.5 29t-52.5 73l-267 932l-266 -932q-12 -44 -52.5 -73t-92.5 -29q-51 0 -93 28.5t-55 73.5z" />
<glyph unicode="X" horiz-adv-x="1372" d="M82 0l448 731l-448 744h321l283 -484l283 484h321l-448 -744l448 -731h-334l-270 465l-270 -465h-334z" />
<glyph unicode="Y" horiz-adv-x="1351" d="M82 1475h319l275 -510l274 510h320l-455 -775v-700h-276v698z" />
<glyph unicode="Z" horiz-adv-x="1177" d="M86 158q4 44 29 84l628 1015h-616v216l834 2q45 0 77 -23t46 -58q10 -26 11 -57q1 -9 -1 -21q-4 -44 -31 -83l-666 -1018h670v-215h-850q-45 0 -77 22.5t-46 57.5q-10 26 -10 57q1 10 2 21z" />
<glyph unicode="[" horiz-adv-x="774" d="M143 -387v1974h488v-190h-256v-1594h256v-190h-488z" />
<glyph unicode="\" horiz-adv-x="1064" d="M143 1475h219l560 -1475h-220z" />
<glyph unicode="]" horiz-adv-x="774" d="M143 -197h256v1594h-256v190h488v-1974h-488v190z" />
<glyph unicode="^" horiz-adv-x="931" d="M102 840l275 635h182l270 -635h-215l-147 403l-152 -403h-213z" />
<glyph unicode="_" horiz-adv-x="866" d="M0 0h866v-158h-866v158z" />
<glyph unicode="`" horiz-adv-x="630" d="M113 1876l252 25l153 -273l-188 -22q-149 133 -217 270z" />
<glyph unicode="a" horiz-adv-x="1351" d="M123 451q0 233 122.5 352t354.5 119q231 0 354 -118.5t123 -350.5v-193q0 -34 14 -41t48 6q19 7 37 7q24 0 48 -12q42 -22 52 -70q3 -15 3 -28q0 -40 -24 -70q-32 -40 -102 -52q-52 -11 -99 -11q-48 -1 -88 11q-80 22 -122 90q-107 -110 -303 -110q-203 0 -310.5 119 t-107.5 352zM397 451q0 -137 58 -206t168 -69q124 0 180 86v191q0 272 -203 272t-203 -274z" />
<glyph unicode="b" horiz-adv-x="1335" d="M55 1374q-3 15 -3 28q0 40 24 70q32 40 102 52q53 11 99 11q92 0 157 -43q98 -64 98 -222v-424q101 76 263 76q203 0 310 -118t107 -351q0 -234 -123 -353.5t-354 -119.5q-233 0 -357 119.5t-124 353.5v811q0 34 -13.5 40.5t-47.5 -6.5q-19 -7 -37 -7q-24 0 -48 13 q-42 23 -53 70zM532 451q0 -275 201 -275q205 0 205 275q0 137 -57.5 205.5t-167.5 68.5q-126 0 -181 -88v-186z" />
<glyph unicode="c" horiz-adv-x="1177" d="M123 453q0 233 122.5 351t354.5 118q86 0 191 -27q68 -19 117.5 -54t73.5 -73t34 -80q9 -35 8 -64v-10q-2 -32 -12 -57q-22 -63 -76 -89q-32 -15 -63 -15q-23 0 -46 8q-39 15 -56 61q-7 19 -7 38q0 28 14 56q5 10 5 20q0 24 -31 48q-60 41 -152 41q-203 0 -203 -272 q0 -136 60.5 -205.5t165.5 -69.5q73 0 165 32t148 79l76 -201q-64 -53 -167.5 -80.5t-221.5 -27.5q-235 0 -367.5 120.5t-132.5 352.5z" />
<glyph unicode="d" horiz-adv-x="1355" d="M123 451q0 233 107.5 352t310.5 119q161 0 262 -76v690h278v-1286q0 -34 14 -41t48 6q19 7 37 7q25 0 48 -13q41 -23 52 -70q3 -15 3 -28q0 -39 -24 -69q-32 -40 -102 -52q-52 -11 -98 -11q-49 0 -93 13q-84 24 -126 94q-103 -106 -299 -106q-203 0 -310.5 119 t-107.5 352zM397 451q0 -137 58 -206t168 -69q124 0 180 86v375q-55 88 -180 88q-110 0 -168 -69t-58 -205z" />
<glyph unicode="e" horiz-adv-x="1165" d="M123 453q0 233 122.5 351t354.5 118q109 0 191 -26.5t126.5 -70.5t65.5 -94t21 -106q0 -63 -25 -112.5t-64 -80t-95 -51.5t-108 -30t-114 -13q-48 -3 -84 -2h-20q-42 1 -84 4q45 -162 213 -162q73 0 165 32t148 79l76 -201q-64 -53 -167.5 -80.5t-221.5 -27.5 q-235 0 -367.5 120.5t-132.5 352.5zM399 508q93 1 158 10.5t96.5 21t48.5 31t19 31t2 31.5q0 35 -31 63.5t-92 28.5q-89 0 -140.5 -54.5t-60.5 -162.5z" />
<glyph unicode="f" horiz-adv-x="1013" d="M164 793q0 71 55 96q9 6 14 18.5t6 21.5l1 9v201q0 192 94.5 294.5t281.5 102.5q88 0 156 -29.5t105.5 -76.5t56 -97t18.5 -100q0 -67 -38 -99q-35 -30 -87 -30h-10q-51 3 -83 44q-25 33 -25 69q0 9 2 18q4 31 -23 50.5t-70 19.5q-102 0 -102 -166v-238h356v-215h-356 v-1198h-276v1157q-1 35 -21 47q-55 28 -55 101z" />
<glyph unicode="g" horiz-adv-x="1173" d="M72 -393l65 225q201 -123 422 -123q50 0 84 2.5t76 10.5t64 28t22 51q0 45 -44 65.5t-136 20.5h-15h-61t-65.5 2t-71.5 6t-68.5 12t-67 19.5t-56 29.5t-47 40.5t-29 54.5t-11.5 70q0 59 27.5 113t83.5 88q-121 92 -121 258q0 164 119.5 253t330.5 89q88 0 181 -21 q6 39 37 62.5t83 23.5q58 0 90.5 -30.5t32.5 -77.5q0 -61 -47 -91q74 -83 74 -208q0 -166 -120.5 -256.5t-330.5 -90.5q-94 0 -163 17q-24 -38 -24 -69q0 -11 4 -21q11 -39 48 -51q42 -12 130 -12q27 0 59 1q25 1 48 1q190 0 291 -57q113 -65 113 -235q0 -76 -36.5 -134.5 t-92 -92.5t-129.5 -55.5t-139 -29t-131 -7.5q-292 0 -479 119zM395 580q0 -75 46.5 -114.5t131.5 -39.5t132 39.5t47 114.5q0 73 -47.5 112t-131.5 39t-131 -39t-47 -112z" />
<glyph unicode="h" horiz-adv-x="1402" d="M55 1374q-3 15 -3 28q0 40 24 70q32 40 102 52q53 11 99 11q92 0 157 -43q98 -64 98 -222v-422q91 74 226 74q180 0 275 -92t95 -259v-321q0 -34 14 -40t48 7q18 6 35 6q25 0 51 -14q42 -23 51 -70q3 -15 3 -29q0 -38 -24 -66q-32 -39 -102 -52q-54 -12 -102 -12 q-88 0 -152 42q-98 64 -98 224v264q0 96 -42 152.5t-116 56.5q-104 0 -162 -80v-639h-278v1264q0 34 -13.5 40.5t-47.5 -6.5q-19 -7 -37 -7q-24 0 -48 13q-42 23 -53 70z" />
<glyph unicode="i" horiz-adv-x="735" d="M174 1237v133q0 46 42.5 75.5t107.5 29.5q61 0 103 -30t42 -75v-22q0 -47 -38.5 -79t-98.5 -32h-158zM184 246v655h277v-651q0 -34 13.5 -40t47.5 7q18 6 35 6q25 0 51 -14q42 -23 51 -70q3 -15 3 -29q0 -37 -23 -66q-32 -39 -102 -52q-54 -12 -102 -12q-89 0 -153 42 q-98 64 -98 224z" />
<glyph unicode="j" horiz-adv-x="794" d="M86 -352q9 47 50 70q26 14 52 14q17 0 35 -6q34 -14 48 -8t14 40v1143h276v-1147q0 -160 -97 -224q-64 -42 -153 -42q-48 0 -102 12q-70 13 -103 52q-23 29 -23 67q0 14 3 29zM274 1237v133q0 46 42.5 75.5t107.5 29.5q61 0 103 -30t42 -75v-22q0 -47 -38.5 -79 t-98.5 -32h-158z" />
<glyph unicode="k" horiz-adv-x="1339" d="M55 1374q-3 15 -3 28q0 40 24 70q32 40 102 52q53 11 99 11q92 0 157 -43q98 -64 98 -222v-676h170q58 56 90 156q23 71 23 141q0 28 -4 55h291q6 -38 6 -74q0 -93 -40 -176q-54 -115 -165 -184q67 -191 139 -281q14 -20 39 -20q11 0 25 4q17 5 34 5q26 0 52 -14 q42 -23 51 -69q3 -15 3 -29q0 -38 -24 -66q-32 -39 -102 -52q-49 -10 -90 -10q-56 0 -98 18q-72 32 -127 123q-59 96 -117 262h-156v-383h-278v1264q0 34 -13.5 40.5t-47.5 -6.5q-19 -7 -37 -7q-24 0 -48 13q-42 23 -53 70z" />
<glyph unicode="l" horiz-adv-x="735" d="M184 246v1290h277v-1286q0 -34 13.5 -40t47.5 7q18 6 35 6q25 0 51 -14q42 -23 51 -70q3 -15 3 -29q0 -37 -23 -66q-32 -39 -102 -52q-54 -12 -102 -12q-89 0 -153 42q-98 64 -98 224z" />
<glyph unicode="m" horiz-adv-x="1947" d="M86 762q-3 15 -3 28q0 38 24 68q32 40 102 53q52 10 98 11q51 0 95 -14q84 -24 124 -97q33 48 97.5 79.5t136.5 31.5q103 0 181 -37.5t122 -108.5q21 61 93 103.5t159 42.5q164 0 261 -93.5t97 -257.5v-321q0 -34 14 -40t48 7q18 6 35 6q26 0 52 -14q42 -23 50 -70 q3 -15 3 -29q1 -38 -23 -66q-32 -39 -103 -52q-54 -12 -102 -12q-89 0 -153 42q-98 64 -97 224v264q0 97 -36.5 153t-103.5 56q-89 0 -143 -84q4 -40 4 -64v-571h-276v510q0 97 -36.5 153t-103.5 56q-86 0 -139 -78v-641h-278v651q0 34 -14 41t-48 -6q-19 -7 -37 -7 q-25 0 -48 13q-41 23 -52 70z" />
<glyph unicode="n" horiz-adv-x="1433" d="M86 762q-3 15 -3 28q0 38 24 68q32 40 102 53q51 10 97 11q52 0 96 -14q84 -25 126 -97q35 48 106 79.5t154 31.5q180 0 275.5 -92t95.5 -259v-321q0 -34 14 -40t48 7q18 6 35 6q26 0 52 -14q42 -23 50 -70q3 -15 3 -29q1 -38 -23 -66q-32 -39 -103 -52q-54 -12 -102 -12 q-89 0 -153 42q-98 64 -97 224v264q0 96 -42 152.5t-116 56.5q-104 0 -162 -80v-639h-278v651q0 34 -14 41t-48 -6q-19 -7 -37 -7q-25 0 -48 13q-41 23 -52 70z" />
<glyph unicode="o" horiz-adv-x="1200" d="M123 453q0 233 122.5 351t354.5 118q231 0 354 -118.5t123 -350.5q0 -234 -123 -353.5t-354 -119.5q-232 0 -354.5 119.5t-122.5 353.5zM397 453q0 -275 203 -275t203 275q0 272 -203 272t-203 -272z" />
<glyph unicode="p" horiz-adv-x="1366" d="M86 762q-3 15 -3 28q0 39 24 68q32 40 102 53q52 11 97 11q50 0 94 -13q82 -24 124 -96q109 109 301 109q203 0 310.5 -119t107.5 -352t-107.5 -352t-310.5 -119q-161 0 -262 73v-565h-278v1163q0 34 -14 41t-48 -6q-19 -7 -37 -7q-24 0 -48 13q-41 23 -52 70zM563 262 q56 -86 180 -86q110 0 168 69t58 206q0 136 -58 205t-168 69q-125 0 -180 -88v-375z" />
<glyph unicode="q" horiz-adv-x="1366" d="M123 451q0 233 107.5 352t310.5 119q193 0 299 -109q42 72 125 96q43 13 94 13q46 0 98 -11q70 -13 102 -53q24 -29 24 -68q0 -13 -3 -28q-11 -47 -52 -70q-24 -13 -48 -13q-18 0 -37 7q-34 13 -48 6t-14 -41v-1163h-278v565q-101 -73 -262 -73q-203 0 -310.5 119 t-107.5 352zM397 451q0 -137 58 -206t168 -69q124 0 180 86v375q-55 88 -180 88q-110 0 -168 -69t-58 -205z" />
<glyph unicode="r" horiz-adv-x="1161" d="M86 762q-3 15 -3 29q-1 38 23 66q32 39 103 52q57 13 102 13q154 0 215 -113q37 53 111 83t156 30q61 0 115 -17t97 -50.5t65 -89.5q18 -44 18 -98q0 -14 -1 -30q-7 -67 -51 -103q-41 -34 -101 -34h-7q-46 2 -78 43q-23 29 -23 65q0 14 4 29q2 9 2 17q-1 26 -25 42 q-32 20 -79 23h-8q-47 1 -90 -21q-46 -24 -70 -80v-618h-276v651q0 34 -14 40t-48 -7q-18 -6 -35 -6q-26 0 -52 14q-42 23 -50 70z" />
<glyph unicode="s" horiz-adv-x="1138" d="M169.5 332q34.5 37 98.5 37q51 0 89 -32q31 -26 31 -64q0 -8 -1 -17q-1 -3 -1 -6q0 -28 50 -50q55 -24 117 -24q79 0 124.5 27.5t45.5 68.5q0 29 -31.5 48t-81.5 30.5t-110 22t-120.5 29t-110.5 45.5t-81.5 76.5t-31.5 117.5q0 134 114 207.5t291 73.5q132 0 239 -33 t163 -90l-115 -181q-114 111 -293 111q-52 0 -87.5 -23t-35.5 -55q0 -25 24.5 -42.5t65 -27.5t92 -21.5t105.5 -22.5t105.5 -33t92 -50t65 -75.5t24.5 -108.5q0 -74 -40.5 -132t-106 -91t-140 -50t-150.5 -17t-147 12t-138.5 39t-108.5 79q-40 50 -40 118q0 67 34.5 104z " />
<glyph unicode="t" horiz-adv-x="1075" d="M164 795q0 72 55 100q9 5 14 17t6 21l1 9v295h276v-336h377v-215h-377v-309q0 -166 102 -166q43 0 70 19.5t23 50.5q-2 9 -2 18q-1 36 25 69q32 41 83 44h10q52 0 87 -30q38 -32 38 -99q0 -50 -18.5 -100t-56 -97t-105.5 -76.5t-156 -29.5q-187 0 -281.5 102.5 t-94.5 294.5v272q-1 35 -21 49q-55 25 -55 97z" />
<glyph unicode="u" horiz-adv-x="1402" d="M55 764q-3 15 -3 29q0 38 24 66q32 39 102 52q54 12 102 12q88 0 152 -42q98 -64 98 -224v-266q0 -96 42 -152.5t116 -56.5q103 0 162 80v639h278v-651q0 -34 14 -41t48 6q19 7 37 8q25 0 48 -14q41 -23 52 -70q3 -15 3 -28q0 -39 -24 -69q-32 -40 -102 -52 q-51 -10 -97 -10q-53 0 -97 13q-84 25 -125 97q-34 -48 -105.5 -79t-154.5 -31q-180 0 -275.5 91.5t-95.5 258.5v323q0 34 -13.5 40t-47.5 -7q-18 -6 -35 -6q-27 0 -52 14q-42 23 -51 70z" />
<glyph unicode="v" horiz-adv-x="1308" d="M86 762q-3 15 -3 29q-1 38 23 66q32 39 103 52q54 12 102 12q89 0 153 -42q98 -64 97 -224v-440q0 -31 31 -31q84 0 146.5 72.5t89.5 179.5q22 88 22 188q0 22 -1 46q-6 127 -50 231h297q32 -77 42 -174q5 -47 6 -96q0 -51 -6 -104q-11 -103 -52.5 -201t-107.5 -175 t-173.5 -124t-241.5 -47q-140 0 -209 69t-69 184v418q0 34 -14 40t-48 -7q-18 -6 -35 -6q-26 0 -52 14q-42 23 -50 70z" />
<glyph unicode="w" horiz-adv-x="1794" d="M86 762q-3 15 -3 29q-1 38 23 66q32 39 103 52q57 13 102 13q115 0 182.5 -67.5t67.5 -199.5v-440q0 -14 7.5 -22.5t19.5 -8.5q69 0 119.5 64.5t74 163t23.5 215.5v274h270v-686q0 -14 7.5 -22.5t19.5 -8.5q69 0 124.5 63.5t85 164.5t29.5 215q0 152 -45 274h291 q43 -113 43 -266q0 -94 -18 -184.5t-59.5 -176.5t-102 -150.5t-153.5 -104t-207 -39.5q-183 0 -213 172q-101 -172 -314 -172q-131 0 -204.5 70.5t-73.5 182.5v418q0 34 -14 40t-48 -7q-18 -6 -35 -6q-26 0 -52 14q-42 23 -50 70z" />
<glyph unicode="x" horiz-adv-x="1198" d="M92 0l365 451l-353 450h322l172 -246l162 246h334l-346 -450l358 -451h-334l-174 252l-184 -252h-322z" />
<glyph unicode="y" horiz-adv-x="1333" d="M76 764q-3 15 -3 29q0 38 23 66q33 39 103 52q54 12 102 12q89 0 153 -42q97 -64 97 -224v-266q0 -96 42 -152.5t116 -56.5q102 0 161 80v639h279v-954q0 -199 -137 -319t-383 -120q-151 0 -299 41v228q149 -56 299 -56q241 0 241 226v106q-86 -73 -225 -73 q-180 0 -275.5 91.5t-95.5 258.5v323q0 34 -13.5 40t-47.5 -7q-18 -6 -35 -6q-26 0 -52 14q-41 23 -50 70z" />
<glyph unicode="z" horiz-adv-x="1128" d="M143 149q3 60 47 103l443 432h-471v217h688q62 -1 100 -47q34 -42 34 -96v-12q-4 -62 -50 -103l-461 -428h510v-215h-704q-63 0 -101 44q-35 41 -35 96v9z" />
<glyph unicode="{" horiz-adv-x="884" d="M82 492v217q81 0 146 67.5t65 181.5v371q0 104 88 181t197 77h143v-190h-131q-28 0 -51 -21t-23 -47v-405q0 -61 -16.5 -113t-40.5 -84.5t-54 -57.5t-53 -36.5t-43 -16.5v-32q20 -5 43 -16.5t53 -36.5t54 -57.5t40.5 -84.5t16.5 -113v-405q0 -26 23 -47t51 -21h131v-190 h-143q-109 0 -197 77t-88 181v371q0 114 -65 182t-146 68z" />
<glyph unicode="|" horiz-adv-x="512" d="M154 -20v1556h204v-1556h-204z" />
<glyph unicode="}" horiz-adv-x="884" d="M164 -197h131q28 0 51 21t23 47v405q0 61 16.5 113t40 84.5t53.5 57.5t53 36.5t43 16.5v32q-20 5 -43 16.5t-53 36.5t-53.5 57.5t-40 84.5t-16.5 113v405q0 26 -23 47t-51 21h-131v190h143q109 0 197 -77t88 -181v-371q0 -114 65 -181.5t146 -67.5v-217q-81 0 -146 -68 t-65 -182v-371q0 -104 -88 -181t-197 -77h-143v190z" />
<glyph unicode="~" horiz-adv-x="1101" d="M16 432q43 83 130 145t184 62q53 0 116.5 -23t112 -50.5t106 -50.5t99.5 -23q57 0 98 36t78 101l133 -148q-41 -83 -127.5 -145t-183.5 -62q-54 0 -118 24t-112.5 52t-105.5 52t-98 24q-95 0 -178 -141z" />
<glyph unicode="&#xa1;" horiz-adv-x="561" d="M113 1323q0 66 47.5 109t120.5 43t120.5 -43t47.5 -109q0 -64 -47.5 -108t-120.5 -44t-120.5 44t-47.5 108zM170 0v997h229v-997h-229z" />
<glyph unicode="&#xa2;" horiz-adv-x="1177" d="M123 453q0 213 102 329.5t299 135.5v167h176v-170q9 -1 91 -20q68 -19 117.5 -54t73 -73.5t34 -80t8.5 -74t-12 -56.5q-21 -62 -75.5 -88.5t-109.5 -7.5q-39 14 -56 60.5t7 94.5q18 35 -26 68q-60 41 -152 41q-203 0 -203 -272q0 -136 60.5 -205.5t165.5 -69.5 q73 0 165 32t148 79l76 -201q-110 -88 -312 -104v-168h-176v170q-191 24 -296 142t-105 325z" />
<glyph unicode="&#xa3;" horiz-adv-x="1191" d="M143 0v227h209v142h-176v186h176v39q0 192 95 294.5t282 102.5q211 0 297 -155q58 -105 -39 -170q-51 -30 -101 -12.5t-77 69.5q-19 37 -78 37q-102 0 -102 -166v-39h209v-186h-209v-142h385v-227h-871z" />
<glyph unicode="&#xa4;" horiz-adv-x="1097" d="M113 223l94 94q-64 103 -64 218q0 116 64 219l-94 94l123 123l94 -94q97 63 219 63t219 -63l94 94l123 -123l-94 -94q63 -102 63 -219q0 -116 -63 -218l94 -94l-123 -125l-94 97q-98 -64 -219 -64q-116 -3 -219 64l-94 -97zM328 535q0 -90 64 -152.5t157 -67.5 q89 0 155 64.5t66 155.5q0 89 -65 155t-156 66q-89 0 -155 -64.5t-66 -156.5z" />
<glyph unicode="&#xa5;" horiz-adv-x="1204" d="M82 901h319l201 -332l201 332h319l-299 -403h211v-195h-293v-303h-276v303h-295v195h209z" />
<glyph unicode="&#xa6;" horiz-adv-x="462" d="M129 -20v583h205v-583h-205zM129 956v580h205v-580h-205z" />
<glyph unicode="&#xa7;" horiz-adv-x="1122" d="M154 180l141 164q90 -172 248 -172q77 0 125.5 29.5t48.5 70.5q0 52 -58 80l-452 219v209l610 -297q66 -31 102.5 -84.5t36.5 -124.5q0 -78 -35 -136.5t-94.5 -92t-131 -49.5t-152.5 -16q-132 0 -237.5 52.5t-151.5 147.5zM188 1114q0 150 107.5 230.5t267.5 80.5 q72 0 139 -16t124.5 -47.5t92 -86.5t33.5 -126q0 -64 -34.5 -100.5t-98.5 -36.5q-49 0 -79 32.5t-23 83.5q7 43 -39 74t-111 31q-77 0 -116 -32t-39 -87q0 -57 55 -84l426 -207v-209l-565 275q-66 31 -103 89.5t-37 135.5z" />
<glyph unicode="&#xa8;" horiz-adv-x="894" d="M113 1767q0 51 38.5 86t96.5 35q59 0 97 -34.5t38 -86.5q0 -51 -37.5 -84.5t-97.5 -33.5q-58 0 -96.5 33.5t-38.5 84.5zM512 1767q0 51 38.5 86t96.5 35q59 0 97 -34.5t38 -86.5q0 -51 -37.5 -84.5t-97.5 -33.5q-58 0 -96.5 33.5t-38.5 84.5z" />
<glyph unicode="&#xa9;" d="M123 737q0 223 89 395t256 267.5t388 95.5t388 -95.5t256 -267.5t89 -395q0 -339 -199.5 -548t-533.5 -209t-533.5 209t-199.5 548zM313 737q0 -263 148.5 -426.5t394.5 -163.5t394.5 163.5t148.5 426.5t-148.5 426.5t-394.5 163.5t-394.5 -163.5t-148.5 -426.5zM449 739 q0 220 105 331.5t308 111.5q223 0 342 -150l-133 -139q-57 58 -100.5 82t-108.5 24q-194 0 -194 -260q0 -264 194 -264q65 0 108.5 24t100.5 83l131 -142q-58 -71 -137.5 -109t-202.5 -38q-204 0 -308.5 111.5t-104.5 334.5z" />
<glyph unicode="&#xaa;" horiz-adv-x="1157" d="M113 1092q0 195 103 295t298 100q194 0 297.5 -99.5t103.5 -293.5v-162q0 -29 12 -35t40 4q38 15 72.5 -4t43.5 -59q8 -48 -18.5 -80.5t-85.5 -44.5q-189 -40 -262 73q-90 -90 -252 -90q-171 0 -261.5 100t-90.5 296zM344 1092q0 -232 188 -232q104 0 152 72v162 q0 229 -170 229t-170 -231z" />
<glyph unicode="&#xab;" horiz-adv-x="1132" d="M93 552q0 45 22 77l198 293h250l-256 -371l256 -371h-250l-198 293q-22 34 -22 79zM570 552q0 45 22 77l199 293h249l-256 -371l256 -371h-249l-199 293q-22 34 -22 79z" />
<glyph unicode="&#xac;" horiz-adv-x="1228" d="M96 645v189h1037v-621h-193v432h-844z" />
<glyph unicode="&#xad;" horiz-adv-x="780" d="M72 395v193h637v-193h-637z" />
<glyph unicode="&#xae;" d="M123 737q0 223 89 395t256 267.5t388 95.5t388 -95.5t256 -267.5t89 -395q0 -339 -199.5 -548t-533.5 -209t-533.5 209t-199.5 548zM313 737q0 -263 148.5 -426.5t394.5 -163.5t394.5 163.5t148.5 426.5t-148.5 426.5t-394.5 163.5t-394.5 -163.5t-148.5 -426.5zM555 315 v770q0 37 25.5 63t62.5 26h248q135 0 217 -79t82 -206q0 -86 -37 -152.5t-104 -101.5l141 -320h-201l-115 285h-133v-285h-186zM741 766h117q71 0 109.5 33t38.5 90t-38.5 90t-109.5 33h-117v-246z" />
<glyph unicode="&#xb0;" horiz-adv-x="815" d="M113 1065q0 122 86 207.5t211 85.5q124 0 208 -85.5t84 -207.5q0 -126 -84 -211.5t-208 -85.5q-126 0 -211.5 85.5t-85.5 211.5zM268 1065q0 -57 42.5 -100t99.5 -43q56 0 96.5 42.5t40.5 100.5q0 57 -40 97t-97 40t-99.5 -40t-42.5 -97z" />
<glyph unicode="&#xb1;" horiz-adv-x="1116" d="M154 92v184h809v-184h-809zM154 614v185h305v264h198v-264h306v-185h-306v-266h-198v266h-305z" />
<glyph unicode="&#xb2;" horiz-adv-x="884" d="M113 696v162q99 26 185 70t146 111t60 139q0 59 -43 88.5t-107 29.5q-100 0 -231 -67v188q134 58 287 58q62 0 116 -14t101 -44t74.5 -84t27.5 -127q0 -107 -82.5 -203.5t-187.5 -128.5l82 7h143q38 0 63 -27t25 -66q0 -38 -25 -65t-63 -27h-571z" />
<glyph unicode="&#xb3;" horiz-adv-x="856" d="M129 719v176q97 -39 238 -39q68 2 107.5 20.5t39.5 55.5q0 38 -31 58t-114 20h-70v164h70q63 0 88.5 21.5t25.5 49.5q0 29 -28 47.5t-84 18.5q-145 0 -242 -41v164q117 41 229 41q159 0 261 -52.5t102 -156.5q0 -119 -152 -158v-12q80 -12 127 -61t47 -126 q0 -59 -31.5 -103t-87.5 -68.5t-123 -36t-147 -11.5q-125 0 -225 29z" />
<glyph unicode="&#xb4;" horiz-adv-x="630" d="M113 1628l153 273l252 -25q-68 -137 -217 -270z" />
<glyph unicode="&#xb6;" horiz-adv-x="1275" d="M102 1001q0 229 141.5 356t430.5 118h397q34 0 59 -25t25 -59v-1231h-235v1087h-246q-157 0 -228 -63t-71 -183q0 -225 231 -253q58 -7 95.5 -50.5t37.5 -103.5v-551q0 -33 20 -40t54 7q45 15 86.5 -8t50.5 -70q12 -56 -20.5 -95t-102.5 -52q-315 -67 -315 254v485 q-206 30 -308 156.5t-102 320.5z" />
<glyph unicode="&#xb7;" horiz-adv-x="561" d="M113 776q0 64 47.5 108t120.5 44t120.5 -44t47.5 -108q0 -66 -47.5 -108.5t-120.5 -42.5t-120.5 42.5t-47.5 108.5z" />
<glyph unicode="&#xb8;" horiz-adv-x="651" d="M113 -285q77 -28 151 -28q96 0 96 57q0 33 -43 44.5t-94 4.5q-42 -4 -57 19q-8 13 -7 35.5t9 41.5l55 123h170l-51 -106q76 0 136.5 -43t60.5 -119q0 -51 -24 -88t-64.5 -57t-86 -29.5t-96.5 -9.5q-88 0 -155 24v131z" />
<glyph unicode="&#xb9;" horiz-adv-x="782" d="M121 696v170h196l-2 344q0 40 -24 65.5t-60 16.5q-40 -9 -68.5 8.5t-37.5 55.5q-10 45 19.5 78t97.5 39q125 10 197.5 -52t72.5 -204v-351h158v-170h-549z" />
<glyph unicode="&#xba;" horiz-adv-x="1026" d="M113 1085q0 199 102.5 299.5t298.5 100.5q194 0 296.5 -100.5t102.5 -299.5q0 -201 -102.5 -303t-296.5 -102q-195 0 -298 102t-103 303zM334 1085q0 -235 180 -235t180 235q0 234 -180 234t-180 -234z" />
<glyph unicode="&#xbb;" horiz-adv-x="1132" d="M92 180l256 371l-256 371h250l199 -293q22 -32 22 -77t-22 -79l-199 -293h-250zM569 180l256 371l-256 371h250l199 -293q22 -32 22 -77t-22 -79l-199 -293h-250z" />
<glyph unicode="&#xbc;" horiz-adv-x="2037" d="M133 545v170h197l-2 344q0 40 -24 65.5t-60 16.5q-40 -9 -69 8t-38 55q-10 45 19.5 78t97.5 39q125 10 197.5 -52t72.5 -204v-350h158v-170h-549zM461 0l975 1341h237l-975 -1341h-237zM1247.5 235q-28.5 53 3.5 105l277 444h211l-277 -432h205v148q0 35 28 60.5t62 25.5 q35 0 64.5 -26t29.5 -60v-142h105v-176h-105v-182h-184v182h-332q-59 0 -87.5 53z" />
<glyph unicode="&#xbd;" horiz-adv-x="2131" d="M133 545v170h197l-2 344q0 40 -24 65.5t-60 16.5q-40 -9 -69 8t-38 55q-10 45 19.5 78t97.5 39q125 10 197.5 -52t72.5 -204v-350h158v-170h-549zM463 0l975 1341h237l-975 -1341h-237zM1380 2v162q100 26 186 70t146 110.5t60 138.5q0 59 -43 89t-107 30 q-100 0 -231 -67v188q131 57 286 57q62 0 116.5 -14t101.5 -43.5t74.5 -83.5t27.5 -127q0 -106 -82.5 -203t-188.5 -129l82 6h144q38 0 63 -26.5t25 -65.5q0 -38 -25 -65t-63 -27h-572z" />
<glyph unicode="&#xbe;" horiz-adv-x="2000" d="M98 565v176q97 -39 238 -39q68 2 107.5 20.5t39.5 55.5q0 38 -31 58t-114 20h-70v164h70q63 0 89 22t26 50t-28 46.5t-85 18.5q-145 0 -242 -41v164q117 41 230 41q103 0 182 -21t129.5 -69t50.5 -119q0 -119 -151 -158v-12q80 -12 127 -61t47 -125q0 -59 -31.5 -103 t-87.5 -68.5t-123 -36t-147 -11.5q-130 0 -226 28zM422 0l975 1341h237l-975 -1341h-237zM1210.5 235q-28.5 53 3.5 105l277 444h211l-277 -432h205v148q0 35 28 60.5t62 25.5q35 0 65 -26t30 -60v-142h104v-176h-104v-182h-185v182h-332q-59 0 -87.5 53z" />
<glyph unicode="&#xbf;" horiz-adv-x="1009" d="M113 391q0 168 107 292t306 179v193h244l27 -258q9 -88 -82 -115q-328 -100 -328 -289q0 -65 49 -111t142 -46q151 0 319 69v-254q-175 -51 -322 -51q-209 0 -335.5 108.5t-126.5 282.5zM473 1323q0 66 47.5 109t120.5 43t120.5 -43t47.5 -109q0 -64 -47.5 -108 t-120.5 -44t-120.5 44t-47.5 108z" />
<glyph unicode="&#xc0;" horiz-adv-x="1546" d="M154 631q0 72 55 100q9 5 14 17t5 21l1 9v183q0 239 140.5 386.5t373.5 147.5q236 0 377.5 -147.5t141.5 -386.5v-711q0 -34 13.5 -40t47.5 7q45 15 86.5 -8t50.5 -70q12 -56 -20.5 -95t-102.5 -52q-157 -34 -254.5 30t-97.5 224v270h-479v-516h-277v485q3 38 -20 50 q-55 30 -55 96zM451 1876l251 25l154 -273l-188 -22q-149 133 -217 270zM506 743h479v218q0 135 -65.5 218t-174.5 83t-174 -83t-65 -218v-218z" />
<glyph unicode="&#xc1;" horiz-adv-x="1546" d="M154 631q0 72 55 100q9 5 14 17t5 21l1 9v183q0 239 140.5 386.5t373.5 147.5q236 0 377.5 -147.5t141.5 -386.5v-711q0 -34 13.5 -40t47.5 7q45 15 86.5 -8t50.5 -70q12 -56 -20.5 -95t-102.5 -52q-157 -34 -254.5 30t-97.5 224v270h-479v-516h-277v485q3 38 -20 50 q-55 30 -55 96zM506 743h479v218q0 135 -65.5 218t-174.5 83t-174 -83t-65 -218v-218zM623 1628l153 273l252 -25q-68 -137 -217 -270z" />
<glyph unicode="&#xc2;" horiz-adv-x="1546" d="M154 631q0 72 55 100q9 5 14 17t5 21l1 9v183q0 239 140.5 386.5t373.5 147.5q236 0 377.5 -147.5t141.5 -386.5v-711q0 -34 13.5 -40t47.5 7q45 15 86.5 -8t50.5 -70q12 -56 -20.5 -95t-102.5 -52q-157 -34 -254.5 30t-97.5 224v270h-479v-516h-277v485q3 38 -20 50 q-55 30 -55 96zM432 1630q62 150 172 271h273q110 -121 172 -271l-197 -24l-111 186l-110 -186zM506 743h479v218q0 135 -65.5 218t-174.5 83t-174 -83t-65 -218v-218z" />
<glyph unicode="&#xc3;" horiz-adv-x="1546" d="M154 631q0 72 55 100q9 5 14 17t5 21l1 9v183q0 239 140.5 386.5t373.5 147.5q236 0 377.5 -147.5t141.5 -386.5v-711q0 -34 13.5 -40t47.5 7q45 15 86.5 -8t50.5 -70q12 -56 -20.5 -95t-102.5 -52q-157 -34 -254.5 30t-97.5 224v270h-479v-516h-277v485q3 38 -20 50 q-55 30 -55 96zM381 1651q10 96 71.5 160.5t168.5 64.5q51 0 96.5 -16.5t71.5 -37t53 -37t45 -16.5q30 0 48 28t23 77l168 -43q-11 -97 -72 -161t-167 -64q-48 0 -90.5 16.5t-68 36.5t-54.5 36.5t-53 16.5q-31 0 -50 -27.5t-22 -76.5zM506 743h479v218q0 135 -65.5 218 t-174.5 83t-174 -83t-65 -218v-218z" />
<glyph unicode="&#xc4;" horiz-adv-x="1546" d="M154 631q0 72 55 100q9 5 14 17t5 21l1 9v183q0 239 140.5 386.5t373.5 147.5q236 0 377.5 -147.5t141.5 -386.5v-711q0 -34 13.5 -40t47.5 7q45 15 86.5 -8t50.5 -70q12 -56 -20.5 -95t-102.5 -52q-157 -34 -254.5 30t-97.5 224v270h-479v-516h-277v485q3 38 -20 50 q-55 30 -55 96zM408 1767q0 51 38.5 86t96.5 35q59 0 97 -34.5t38 -86.5q0 -51 -37.5 -84.5t-97.5 -33.5q-58 0 -96.5 33.5t-38.5 84.5zM506 743h479v218q0 135 -65.5 218t-174.5 83t-174 -83t-65 -218v-218zM807 1767q0 51 38.5 86t96.5 35q59 0 97 -34.5t38 -86.5 q0 -51 -37.5 -84.5t-97.5 -33.5q-58 0 -96.5 33.5t-38.5 84.5z" />
<glyph unicode="&#xc5;" horiz-adv-x="1546" d="M154 631q0 72 55 100q9 5 14 17t5 21l1 9v183q0 239 140.5 386.5t373.5 147.5q236 0 377.5 -147.5t141.5 -386.5v-711q0 -34 13.5 -40t47.5 7q45 15 86.5 -8t50.5 -70q12 -56 -20.5 -95t-102.5 -52q-157 -34 -254.5 30t-97.5 224v270h-479v-516h-277v485q3 38 -20 50 q-55 30 -55 96zM506 743h479v218q0 135 -65.5 218t-174.5 83t-174 -83t-65 -218v-218zM561 1772q0 74 52 126t128 52q74 0 126.5 -52.5t52.5 -125.5q0 -76 -52.5 -128.5t-126.5 -52.5q-76 0 -128 52t-52 129zM668 1772q0 -29 22 -51.5t51 -22.5t50.5 22.5t21.5 51.5 t-21.5 50t-50.5 21t-51 -21t-22 -50z" />
<glyph unicode="&#xc6;" horiz-adv-x="1857" d="M154 631q0 72 55 100q9 5 14 17t5 21l1 9v162q0 239 140.5 387t373.5 148h981v-228h-536v-504h364l-2 -227h-362v-250q0 -15 12 -27t27 -12h518v-227h-580q-104 0 -179 75t-75 179v262h-405v-516h-277v485q3 38 -20 50q-55 30 -55 96zM506 743h405v498h-166 q-109 0 -174 -83t-65 -218v-197z" />
<glyph unicode="&#xc7;" horiz-adv-x="1640" d="M123 737q0 223 89 395t256 267.5t388 95.5q297 0 494 -172q42 -35 68 -80.5t32.5 -88.5t4 -78.5t-12.5 -61.5q-24 -71 -86.5 -102t-126.5 -9q-44 16 -63.5 69.5t8.5 108.5q18 40 -25 76q-121 105 -293 105q-207 0 -332 -145.5t-125 -379.5q0 -233 128.5 -378.5 t336.5 -145.5q134 0 253.5 62t195.5 163l174 -188q-97 -121 -251.5 -191.5t-336.5 -76.5l-35 -76q76 0 136.5 -43t60.5 -119q0 -51 -24 -88t-64 -57t-85.5 -29.5t-96.5 -9.5q-89 0 -156 24v131q77 -28 151 -28q97 0 97 57q0 33 -43.5 44.5t-94.5 4.5q-42 -4 -57 19 q-8 13 -7 35.5t9 41.5l45 101q-281 40 -446.5 241.5t-165.5 505.5z" />
<glyph unicode="&#xc8;" horiz-adv-x="1269" d="M174 631q0 72 55 100q9 5 14 17t6 21l1 9v613q0 34 25 59t59 25h803v-228h-611v-504h365l-2 -227h-363v-250q0 -15 12 -27t27 -12h592v-227h-653q-104 0 -179 75t-75 179v231q2 38 -21 50q-55 30 -55 96zM428 1876l252 25l154 -273l-189 -22q-149 133 -217 270z" />
<glyph unicode="&#xc9;" horiz-adv-x="1269" d="M174 631q0 72 55 100q9 5 14 17t6 21l1 9v613q0 34 25 59t59 25h803v-228h-611v-504h365l-2 -227h-363v-250q0 -15 12 -27t27 -12h592v-227h-653q-104 0 -179 75t-75 179v231q2 38 -21 50q-55 30 -55 96zM584 1628l153 273l252 -25q-68 -137 -217 -270z" />
<glyph unicode="&#xca;" horiz-adv-x="1269" d="M174 631q0 72 55 100q9 5 14 17t6 21l1 9v613q0 34 25 59t59 25h803v-228h-611v-504h365l-2 -227h-363v-250q0 -15 12 -27t27 -12h592v-227h-653q-104 0 -179 75t-75 179v231q2 38 -21 50q-55 30 -55 96zM383 1630q62 150 172 271h272q110 -121 172 -271l-196 -24 l-111 186l-110 -186z" />
<glyph unicode="&#xcb;" horiz-adv-x="1269" d="M174 631q0 72 55 100q9 5 14 17t6 21l1 9v613q0 34 25 59t59 25h803v-228h-611v-504h365l-2 -227h-363v-250q0 -15 12 -27t27 -12h592v-227h-653q-104 0 -179 75t-75 179v231q2 38 -21 50q-55 30 -55 96zM367 1767q0 51 38.5 86t96.5 35q59 0 97 -34.5t38 -86.5 q0 -51 -37.5 -84.5t-97.5 -33.5q-58 0 -96.5 33.5t-38.5 84.5zM766 1767q0 51 38.5 86t96.5 35q59 0 97 -34.5t38 -86.5q0 -51 -37.5 -84.5t-97.5 -33.5q-58 0 -96.5 33.5t-38.5 84.5z" />
<glyph unicode="&#xcc;" horiz-adv-x="788" d="M86 1335q-11 58 21 97.5t102 52.5q158 32 256 -32t98 -222v-1231h-276v1225q0 34 -14 41t-48 -6q-44 -17 -86.5 5.5t-52.5 69.5zM96 1876l252 25l154 -273l-189 -22q-149 133 -217 270z" />
<glyph unicode="&#xcd;" horiz-adv-x="788" d="M86 1335q-11 58 21 97.5t102 52.5q158 32 256 -32t98 -222v-1231h-276v1225q0 34 -14 41t-48 -6q-44 -17 -86.5 5.5t-52.5 69.5zM293 1628l153 273l252 -25q-68 -137 -217 -270z" />
<glyph unicode="&#xce;" horiz-adv-x="788" d="M86 1335q-11 58 21 97.5t102 52.5q158 32 256 -32t98 -222v-1231h-276v1225q0 34 -14 41t-48 -6q-44 -17 -86.5 5.5t-52.5 69.5zM90 1630q62 150 172 271h273q110 -121 172 -271l-197 -24l-111 186l-110 -186z" />
<glyph unicode="&#xcf;" horiz-adv-x="788" d="M57 1767q0 51 39 86t97 35q59 0 97 -34.5t38 -86.5q0 -51 -37.5 -84.5t-97.5 -33.5q-59 0 -97.5 33.5t-38.5 84.5zM86 1335q-11 58 21 97.5t102 52.5q158 32 256 -32t98 -222v-1231h-276v1225q0 34 -14 41t-48 -6q-44 -17 -86.5 5.5t-52.5 69.5zM457 1767q0 51 38.5 86 t96.5 35q59 0 97 -34.5t38 -86.5q0 -51 -37.5 -84.5t-97.5 -33.5q-58 0 -96.5 33.5t-38.5 84.5z" />
<glyph unicode="&#xd0;" horiz-adv-x="1531" d="M31 618v201h194v379q0 44 -22 55q-73 39 -70 115q1 51 34 79t85 28h442q216 0 379 -93t249.5 -260t86.5 -385q0 -162 -50.5 -298.5t-142.5 -233.5t-226 -151t-296 -54h-215q-104 0 -179 75t-75 179v364h-194zM502 266q0 -15 12 -27t27 -12h153q202 0 323.5 141t121.5 369 q0 229 -121 369.5t-324 140.5h-192v-428h260v-201h-260v-352z" />
<glyph unicode="&#xd1;" horiz-adv-x="1523" d="M135 1368q1 51 34 79t85 28h137q98 0 144 -76l485 -832v908h278v-1371q0 -54 -43 -89t-110 -35q-95 0 -137 75l-502 877v-932h-279v1198q0 44 -22 55q-73 39 -70 115zM371 1651q10 96 71.5 160.5t167.5 64.5q51 0 96.5 -16.5t72 -37t53.5 -37t45 -16.5q30 0 48 28t23 77 l168 -43q-11 -97 -72 -161t-167 -64q-48 0 -90.5 16.5t-68 36.5t-55 36.5t-53.5 16.5q-31 0 -49.5 -27.5t-21.5 -76.5z" />
<glyph unicode="&#xd2;" d="M123 737q0 223 89 395t256 267.5t388 95.5t388 -95.5t256 -267.5t89 -395q0 -339 -199.5 -548t-533.5 -209t-533.5 209t-199.5 548zM399 737q0 -234 124.5 -379t332.5 -145t332.5 145t124.5 379t-125 379.5t-332 145.5t-332 -145.5t-125 -379.5zM551 1876l252 25 l153 -273l-188 -22q-149 133 -217 270z" />
<glyph unicode="&#xd3;" d="M123 737q0 223 89 395t256 267.5t388 95.5t388 -95.5t256 -267.5t89 -395q0 -339 -199.5 -548t-533.5 -209t-533.5 209t-199.5 548zM399 737q0 -234 124.5 -379t332.5 -145t332.5 145t124.5 379t-125 379.5t-332 145.5t-332 -145.5t-125 -379.5zM729 1628l154 273 l252 -25q-68 -137 -217 -270z" />
<glyph unicode="&#xd4;" d="M123 737q0 223 89 395t256 267.5t388 95.5t388 -95.5t256 -267.5t89 -395q0 -339 -199.5 -548t-533.5 -209t-533.5 209t-199.5 548zM399 737q0 -234 124.5 -379t332.5 -145t332.5 145t124.5 379t-125 379.5t-332 145.5t-332 -145.5t-125 -379.5zM549 1630q62 150 172 271 h272q110 -121 172 -271l-196 -24l-111 186l-110 -186z" />
<glyph unicode="&#xd5;" d="M123 737q0 223 89 395t256 267.5t388 95.5t388 -95.5t256 -267.5t89 -395q0 -339 -199.5 -548t-533.5 -209t-533.5 209t-199.5 548zM399 737q0 -234 124.5 -379t332.5 -145t332.5 145t124.5 379t-125 379.5t-332 145.5t-332 -145.5t-125 -379.5zM485 1651 q10 96 71.5 160.5t168.5 64.5q51 0 96.5 -16.5t71.5 -37t53 -37t45 -16.5q30 0 48.5 28.5t23.5 76.5l168 -43q-11 -97 -72.5 -161t-167.5 -64q-48 0 -90.5 16.5t-68 36.5t-54.5 36.5t-53 16.5q-31 0 -50 -27.5t-22 -76.5z" />
<glyph unicode="&#xd6;" d="M123 737q0 223 89 395t256 267.5t388 95.5t388 -95.5t256 -267.5t89 -395q0 -339 -199.5 -548t-533.5 -209t-533.5 209t-199.5 548zM399 737q0 -234 124.5 -379t332.5 -145t332.5 145t124.5 379t-125 379.5t-332 145.5t-332 -145.5t-125 -379.5zM520 1767q0 51 38.5 86 t96.5 35q59 0 97.5 -34.5t38.5 -86.5q0 -51 -38 -84.5t-98 -33.5q-58 0 -96.5 33.5t-38.5 84.5zM920 1767q0 51 38.5 86t96.5 35q59 0 97 -34.5t38 -86.5q0 -51 -37.5 -84.5t-97.5 -33.5q-58 0 -96.5 33.5t-38.5 84.5z" />
<glyph unicode="&#xd7;" horiz-adv-x="1021" d="M119 213l262 262l-262 262l139 140l262 -263l256 258l139 -139l-258 -258l263 -260l-142 -137l-260 258l-260 -260z" />
<glyph unicode="&#xd8;" d="M123 737q0 223 89 395t256 267.5t388 95.5q105 0 203 -25l69 172l144 -57l-68 -166q183 -90 284 -268t101 -414q0 -339 -199.5 -548t-533.5 -209q-106 0 -217 26l-72 -180l-143 57l70 176q-176 91 -273.5 268.5t-97.5 409.5zM399 737q0 -145 49.5 -258.5t139.5 -181.5 l383 950q-69 15 -115 15q-207 0 -332 -145.5t-125 -379.5zM729 229q62 -16 127 -16q208 0 332.5 145t124.5 379q0 148 -52.5 264.5t-148.5 184.5z" />
<glyph unicode="&#xd9;" horiz-adv-x="1523" d="M86 1335q-11 58 21 97.5t102 52.5q158 32 256 -32t98 -222v-717q0 -135 65.5 -218t174.5 -83t174 83t65 218v961h277v-961q0 -239 -140.5 -386.5t-373.5 -147.5q-236 0 -377 147t-141 387v711q0 34 -14 41t-48 -6q-44 -17 -86.5 5.5t-52.5 69.5zM465 1876l252 25 l153 -273l-188 -22q-149 133 -217 270z" />
<glyph unicode="&#xda;" horiz-adv-x="1523" d="M86 1335q-11 58 21 97.5t102 52.5q158 32 256 -32t98 -222v-717q0 -135 65.5 -218t174.5 -83t174 83t65 218v961h277v-961q0 -239 -140.5 -386.5t-373.5 -147.5q-236 0 -377 147t-141 387v711q0 34 -14 41t-48 -6q-44 -17 -86.5 5.5t-52.5 69.5zM641 1628l154 273 l252 -25q-68 -135 -218 -270z" />
<glyph unicode="&#xdb;" horiz-adv-x="1523" d="M86 1335q-11 58 21 97.5t102 52.5q158 32 256 -32t98 -222v-717q0 -135 65.5 -218t174.5 -83t174 83t65 218v961h277v-961q0 -239 -140.5 -386.5t-373.5 -147.5q-236 0 -377 147t-141 387v711q0 34 -14 41t-48 -6q-44 -17 -86.5 5.5t-52.5 69.5zM487 1630q62 150 172 271 h273q110 -121 172 -271l-197 -24l-110 186l-111 -186z" />
<glyph unicode="&#xdc;" horiz-adv-x="1523" d="M86 1335q-11 58 21 97.5t102 52.5q158 32 256 -32t98 -222v-717q0 -135 65.5 -218t174.5 -83t174 83t65 218v961h277v-961q0 -239 -140.5 -386.5t-373.5 -147.5q-236 0 -377 147t-141 387v711q0 34 -14 41t-48 -6q-44 -17 -86.5 5.5t-52.5 69.5zM465 1767q0 51 38.5 86 t96.5 35q59 0 97 -34.5t38 -86.5q0 -51 -37.5 -84.5t-97.5 -33.5q-58 0 -96.5 33.5t-38.5 84.5zM864 1767q0 51 38.5 86t96.5 35q59 0 97.5 -34.5t38.5 -86.5q0 -51 -38 -84.5t-98 -33.5q-58 0 -96.5 33.5t-38.5 84.5z" />
<glyph unicode="&#xdd;" horiz-adv-x="1406" d="M137 1475h320l274 -510l275 510h319l-455 -775v-700h-276v698zM625 1628l153 273l252 -25q-68 -137 -217 -270z" />
<glyph unicode="&#xde;" horiz-adv-x="1265" d="M184 0v1475h279v-342q100 75 262 75q203 0 310.5 -119t107.5 -352t-107.5 -352t-310.5 -119q-159 0 -262 74v-340h-279zM463 549q56 -86 180 -86q110 0 167.5 68.5t57.5 205.5t-57.5 206t-167.5 69q-125 0 -180 -88v-375z" />
<glyph unicode="&#xdf;" horiz-adv-x="1261" d="M184 0v1071q0 171 124.5 287.5t314.5 116.5q221 0 339.5 -125t118.5 -336q0 -69 -16.5 -129t-44.5 -102.5t-55.5 -70.5t-57.5 -48q109 -27 170.5 -107t61.5 -205q0 -158 -93 -255t-249 -97h-213v227h139q55 0 95 36.5t40 107.5q0 68 -45.5 107.5t-114.5 39.5 q-62 0 -102.5 36.5t-40.5 90.5q0 41 24 73.5t64 47.5q158 63 158 246q0 105 -45 166t-133 61q-68 0 -114 -46t-46 -116v-1077h-279z" />
<glyph unicode="&#xe0;" horiz-adv-x="1351" d="M123 451q0 233 122.5 352t354.5 119q231 0 354 -118.5t123 -350.5v-193q0 -34 14 -41t48 6q44 17 85.5 -5.5t51.5 -69.5q11 -58 -21 -97.5t-102 -52.5q-106 -22 -186.5 0.5t-122.5 89.5q-107 -110 -303 -110q-203 0 -310.5 119t-107.5 352zM315 1417l252 25l154 -273 l-189 -22q-149 133 -217 270zM397 451q0 -137 58 -206t168 -69q124 0 180 86v191q0 272 -203 272t-203 -274z" />
<glyph unicode="&#xe1;" horiz-adv-x="1351" d="M123 451q0 233 122.5 352t354.5 119q231 0 354 -118.5t123 -350.5v-193q0 -34 14 -41t48 6q44 17 85.5 -5.5t51.5 -69.5q11 -58 -21 -97.5t-102 -52.5q-106 -22 -186.5 0.5t-122.5 89.5q-107 -110 -303 -110q-203 0 -310.5 119t-107.5 352zM397 451q0 -137 58 -206 t168 -69q124 0 180 86v191q0 272 -203 272t-203 -274zM481 1169l154 273l252 -25q-68 -137 -217 -270z" />
<glyph unicode="&#xe2;" horiz-adv-x="1351" d="M123 451q0 233 122.5 352t354.5 119q231 0 354 -118.5t123 -350.5v-193q0 -34 14 -41t48 6q44 17 85.5 -5.5t51.5 -69.5q11 -58 -21 -97.5t-102 -52.5q-106 -22 -186.5 0.5t-122.5 89.5q-107 -110 -303 -110q-203 0 -310.5 119t-107.5 352zM301 1171q62 150 172 271h272 q112 -123 173 -271l-197 -24l-111 186l-110 -186zM397 451q0 -137 58 -206t168 -69q124 0 180 86v191q0 272 -203 272t-203 -274z" />
<glyph unicode="&#xe3;" horiz-adv-x="1351" d="M123 451q0 233 122.5 352t354.5 119q231 0 354 -118.5t123 -350.5v-193q0 -34 14 -41t48 6q44 17 85.5 -5.5t51.5 -69.5q11 -58 -21 -97.5t-102 -52.5q-106 -22 -186.5 0.5t-122.5 89.5q-107 -110 -303 -110q-203 0 -310.5 119t-107.5 352zM256 1192q10 96 71.5 160.5 t168.5 64.5q51 0 96.5 -16.5t71.5 -36.5t53 -36.5t45 -16.5q30 0 48.5 28t23.5 76l167 -43q-11 -97 -72 -161t-167 -64q-48 0 -90.5 16.5t-68 36.5t-54.5 36.5t-53 16.5q-31 0 -50 -27.5t-22 -76.5zM397 451q0 -137 58 -206t168 -69q124 0 180 86v191q0 272 -203 272 t-203 -274z" />
<glyph unicode="&#xe4;" horiz-adv-x="1351" d="M123 451q0 233 122.5 352t354.5 119q231 0 354 -118.5t123 -350.5v-193q0 -34 14 -41t48 6q44 17 85.5 -5.5t51.5 -69.5q11 -58 -21 -97.5t-102 -52.5q-106 -22 -186.5 0.5t-122.5 89.5q-107 -110 -303 -110q-203 0 -310.5 119t-107.5 352zM274 1266q0 51 39 85.5 t97 34.5q59 0 97 -34t38 -86q0 -51 -37.5 -85t-97.5 -34q-58 0 -97 34t-39 85zM397 451q0 -137 58 -206t168 -69q124 0 180 86v191q0 272 -203 272t-203 -274zM674 1266q0 51 38.5 85.5t96.5 34.5q59 0 97 -34t38 -86q0 -51 -38 -85t-97 -34q-58 0 -96.5 34t-38.5 85z" />
<glyph unicode="&#xe5;" horiz-adv-x="1351" d="M123 451q0 233 122.5 352t354.5 119q231 0 354 -118.5t123 -350.5v-193q0 -34 14 -41t48 6q44 17 85.5 -5.5t51.5 -69.5q11 -58 -21 -97.5t-102 -52.5q-106 -22 -186.5 0.5t-122.5 89.5q-107 -110 -303 -110q-203 0 -310.5 119t-107.5 352zM397 451q0 -137 58 -206 t168 -69q124 0 180 86v191q0 272 -203 272t-203 -274zM430 1327q0 74 52 126t128 52q74 0 126 -52.5t52 -125.5q0 -76 -52 -128t-126 -52q-76 0 -128 51.5t-52 128.5zM537 1327q0 -29 22 -51.5t51 -22.5t50.5 22.5t21.5 51.5t-21.5 50.5t-50.5 21.5t-51 -21.5t-22 -50.5z " />
<glyph unicode="&#xe6;" horiz-adv-x="1847" d="M123 451q0 233 122.5 352t354.5 119q221 0 340 -107q122 107 342 107q109 0 191 -26.5t126.5 -70.5t65.5 -94t21 -106q0 -63 -25 -112.5t-64 -80t-95 -51.5t-108.5 -30t-114 -12.5t-103.5 -2.5t-84 4q45 -162 213 -162q73 0 165 32t148 79l76 -201q-64 -53 -167.5 -80.5 t-221.5 -27.5q-187 0 -291 98v-78h-187v74q-104 -94 -286 -94q-203 0 -310.5 119t-107.5 352zM397 451q0 -137 58 -206t168 -69q124 0 180 86v191q0 272 -203 272t-203 -274zM1081 508q93 1 158 10.5t96.5 21t48.5 31t19 31t2 31.5q0 35 -31 63.5t-92 28.5 q-89 0 -140.5 -54.5t-60.5 -162.5z" />
<glyph unicode="&#xe7;" horiz-adv-x="1177" d="M123 453q0 233 122.5 351t354.5 118q86 0 191 -27q68 -19 117.5 -54t73 -73.5t34 -80t8.5 -74t-12 -56.5q-21 -62 -75.5 -88.5t-109.5 -7.5q-39 14 -56 60.5t7 94.5q18 35 -26 68q-60 41 -152 41q-203 0 -203 -272q0 -136 60.5 -205.5t165.5 -69.5q73 0 165 32t148 79 l76 -201q-60 -50 -156 -77.5t-205 -30.5l-35 -74q76 0 136.5 -43t60.5 -119q0 -51 -24 -88t-64 -57t-85.5 -29.5t-96.5 -9.5q-89 0 -156 24v131q77 -28 152 -28q96 0 96 57q0 33 -43 44.5t-94 4.5q-43 -4 -58 19q-8 13 -7 35.5t9 41.5l45 103q-173 30 -268.5 147.5 t-95.5 313.5z" />
<glyph unicode="&#xe8;" horiz-adv-x="1165" d="M123 453q0 233 122.5 351t354.5 118q109 0 191 -26.5t126.5 -70.5t65.5 -94t21 -106q0 -63 -25 -112.5t-64 -80t-95 -51.5t-108.5 -30t-114 -12.5t-103.5 -2.5t-84 4q45 -162 213 -162q73 0 165 32t148 79l76 -201q-64 -53 -167.5 -80.5t-221.5 -27.5 q-235 0 -367.5 120.5t-132.5 352.5zM307 1417l252 25l154 -273l-189 -22q-149 133 -217 270zM399 508q93 1 158 10.5t96.5 21t48.5 31t19 31t2 31.5q0 35 -31 63.5t-92 28.5q-89 0 -140.5 -54.5t-60.5 -162.5z" />
<glyph unicode="&#xe9;" horiz-adv-x="1165" d="M123 453q0 233 122.5 351t354.5 118q109 0 191 -26.5t126.5 -70.5t65.5 -94t21 -106q0 -63 -25 -112.5t-64 -80t-95 -51.5t-108.5 -30t-114 -12.5t-103.5 -2.5t-84 4q45 -162 213 -162q73 0 165 32t148 79l76 -201q-64 -53 -167.5 -80.5t-221.5 -27.5 q-235 0 -367.5 120.5t-132.5 352.5zM399 508q93 1 158 10.5t96.5 21t48.5 31t19 31t2 31.5q0 35 -31 63.5t-92 28.5q-89 0 -140.5 -54.5t-60.5 -162.5zM485 1169l154 273l252 -25q-68 -137 -217 -270z" />
<glyph unicode="&#xea;" horiz-adv-x="1165" d="M123 453q0 233 122.5 351t354.5 118q109 0 191 -26.5t126.5 -70.5t65.5 -94t21 -106q0 -63 -25 -112.5t-64 -80t-95 -51.5t-108.5 -30t-114 -12.5t-103.5 -2.5t-84 4q45 -162 213 -162q73 0 165 32t148 79l76 -201q-64 -53 -167.5 -80.5t-221.5 -27.5 q-235 0 -367.5 120.5t-132.5 352.5zM295 1171q62 150 172 271h272q110 -121 172 -271l-196 -24l-111 186l-110 -186zM399 508q93 1 158 10.5t96.5 21t48.5 31t19 31t2 31.5q0 35 -31 63.5t-92 28.5q-89 0 -140.5 -54.5t-60.5 -162.5z" />
<glyph unicode="&#xeb;" horiz-adv-x="1165" d="M123 453q0 233 122.5 351t354.5 118q109 0 191 -26.5t126.5 -70.5t65.5 -94t21 -106q0 -63 -25 -112.5t-64 -80t-95 -51.5t-108.5 -30t-114 -12.5t-103.5 -2.5t-84 4q45 -162 213 -162q73 0 165 32t148 79l76 -201q-64 -53 -167.5 -80.5t-221.5 -27.5 q-235 0 -367.5 120.5t-132.5 352.5zM266 1266q0 51 38.5 85.5t96.5 34.5q59 0 97.5 -34.5t38.5 -85.5t-38 -85t-98 -34q-58 0 -96.5 34t-38.5 85zM399 508q93 1 158 10.5t96.5 21t48.5 31t19 31t2 31.5q0 35 -31 63.5t-92 28.5q-89 0 -140.5 -54.5t-60.5 -162.5zM666 1266 q0 51 38.5 85.5t96.5 34.5q59 0 97 -34t38 -86q0 -51 -38 -85t-97 -34q-58 0 -96.5 34t-38.5 85z" />
<glyph unicode="&#xec;" horiz-adv-x="645" d="M6 1417l252 25l154 -273l-189 -22q-149 133 -217 270zM184 246v655h277v-651q0 -34 13.5 -40t47.5 7q45 15 86.5 -8t50.5 -70q12 -56 -20 -95t-102 -52q-157 -34 -255 30t-98 224z" />
<glyph unicode="&#xed;" horiz-adv-x="735" d="M184 246v655h277v-651q0 -34 13.5 -40t47.5 7q45 15 86.5 -8t50.5 -70q12 -56 -20 -95t-102 -52q-157 -34 -255 30t-98 224zM207 1169l153 273l252 -25q-68 -137 -217 -270z" />
<glyph unicode="&#xee;" horiz-adv-x="735" d="M23 1171q62 150 172 271h272q110 -121 172 -271l-197 -24l-110 186l-111 -186zM184 246v655h277v-651q0 -34 13.5 -40t47.5 7q45 15 86.5 -8t50.5 -70q12 -56 -20 -95t-102 -52q-157 -34 -255 30t-98 224z" />
<glyph unicode="&#xef;" horiz-adv-x="735" d="M2 1266q0 51 38.5 85.5t96.5 34.5q59 0 97 -34t38 -86q0 -51 -38 -85t-97 -34q-58 0 -96.5 34t-38.5 85zM184 246v655h277v-651q0 -34 13.5 -40t47.5 7q45 15 86.5 -8t50.5 -70q12 -56 -20 -95t-102 -52q-157 -34 -255 30t-98 224zM401 1266q0 51 39 85.5t97 34.5 q59 0 97 -34t38 -86q0 -51 -38 -85t-97 -34q-58 0 -97 34t-39 85z" />
<glyph unicode="&#xf0;" horiz-adv-x="1200" d="M123 432q0 222 122.5 335.5t354.5 113.5q74 0 154 -17q-45 115 -111 217l-178 -84q-18 34 -47 71t-48 57l-20 20l180 84q-80 88 -172 145l215 101q85 -48 172 -144l160 76q9 -7 23.5 -19.5t47.5 -50t52 -73.5l-172 -82q96 -149 155.5 -336t65.5 -391v-23 q0 -224 -123 -338t-354 -114q-232 0 -354.5 114t-122.5 338zM397 432q0 -254 203 -254t203 254t-203 254t-203 -254z" />
<glyph unicode="&#xf1;" horiz-adv-x="1433" d="M86 762q-11 57 21 96.5t102 52.5q110 22 193.5 -3t125.5 -97q35 48 106 79.5t154 31.5q180 0 275.5 -92t95.5 -259v-321q0 -34 14 -40t48 7q45 15 86.5 -8t50.5 -70q12 -56 -20.5 -95t-102.5 -52q-157 -34 -254.5 30t-97.5 224v264q0 96 -42 152.5t-116 56.5 q-104 0 -162 -80v-639h-278v651q0 34 -14 41t-48 -6q-44 -17 -85 6t-52 70zM328 1192q10 96 71.5 160.5t167.5 64.5q51 0 96.5 -16.5t72 -36.5t53.5 -36.5t45 -16.5q61 0 71 104l168 -43q-11 -97 -72 -161t-167 -64q-48 0 -90.5 16.5t-68 36.5t-55 36.5t-53.5 16.5 q-31 0 -49.5 -27.5t-21.5 -76.5z" />
<glyph unicode="&#xf2;" horiz-adv-x="1200" d="M123 453q0 233 122.5 351t354.5 118q231 0 354 -118.5t123 -350.5q0 -234 -123 -353.5t-354 -119.5q-232 0 -354.5 119.5t-122.5 353.5zM326 1417l252 25l153 -273l-188 -22q-149 133 -217 270zM397 453q0 -275 203 -275t203 275q0 272 -203 272t-203 -272z" />
<glyph unicode="&#xf3;" horiz-adv-x="1200" d="M123 453q0 233 122.5 351t354.5 118q231 0 354 -118.5t123 -350.5q0 -234 -123 -353.5t-354 -119.5q-232 0 -354.5 119.5t-122.5 353.5zM397 453q0 -275 203 -275t203 275q0 272 -203 272t-203 -272zM451 1169l153 273l252 -25q-68 -137 -217 -270z" />
<glyph unicode="&#xf4;" horiz-adv-x="1200" d="M123 453q0 233 122.5 351t354.5 118q231 0 354 -118.5t123 -350.5q0 -234 -123 -353.5t-354 -119.5q-232 0 -354.5 119.5t-122.5 353.5zM287 1171q62 150 172 271h272q110 -121 172 -271l-196 -24l-111 186l-111 -186zM397 453q0 -275 203 -275t203 275q0 272 -203 272 t-203 -272z" />
<glyph unicode="&#xf5;" horiz-adv-x="1200" d="M123 453q0 233 122.5 351t354.5 118q231 0 354 -118.5t123 -350.5q0 -234 -123 -353.5t-354 -119.5q-232 0 -354.5 119.5t-122.5 353.5zM240 1192q10 96 71.5 160.5t167.5 64.5q51 0 96.5 -16.5t71.5 -36.5t53 -36.5t45 -16.5q30 0 48.5 28t23.5 76l168 -43 q-11 -97 -72.5 -161t-167.5 -64q-48 0 -90.5 16.5t-68 36.5t-54.5 36.5t-53 16.5q-31 0 -49.5 -27.5t-21.5 -76.5zM397 453q0 -275 203 -275t203 275q0 272 -203 272t-203 -272z" />
<glyph unicode="&#xf6;" horiz-adv-x="1200" d="M123 453q0 233 122.5 351t354.5 118q231 0 354 -118.5t123 -350.5q0 -234 -123 -353.5t-354 -119.5q-232 0 -354.5 119.5t-122.5 353.5zM262 1266q0 51 38.5 85.5t96.5 34.5q59 0 97 -34t38 -86q0 -51 -38 -85t-97 -34q-58 0 -96.5 34t-38.5 85zM397 453q0 -275 203 -275 t203 275q0 272 -203 272t-203 -272zM662 1266q0 51 38.5 85.5t96.5 34.5q59 0 97 -34t38 -86q0 -51 -38 -85t-97 -34q-58 0 -96.5 34t-38.5 85z" />
<glyph unicode="&#xf7;" horiz-adv-x="1024" d="M109 381v184h809v-184h-809zM387 170q0 47 36 80t91 33q53 0 90 -33.5t37 -79.5q0 -49 -36.5 -81t-90.5 -32q-56 0 -91.5 32t-35.5 81zM387 778q0 47 36 80t91 33q53 0 90 -33.5t37 -79.5q0 -49 -36 -80.5t-91 -31.5q-56 0 -91.5 31.5t-35.5 80.5z" />
<glyph unicode="&#xf8;" horiz-adv-x="1200" d="M123 453q0 233 122.5 351t354.5 118q53 0 121 -11l80 203l102 -43l-74 -188q248 -98 248 -430q0 -234 -123 -353.5t-354 -119.5q-59 0 -121 10l-76 -199l-104 45l72 182q-248 96 -248 435zM397 453q0 -148 60 -217l188 485q-28 4 -45 4q-203 0 -203 -272zM555 182 q28 -4 45 -4q203 0 203 275q0 144 -60 213z" />
<glyph unicode="&#xf9;" horiz-adv-x="1402" d="M55 764q-12 56 20.5 95t102.5 52q157 34 254.5 -30t97.5 -224v-266q0 -96 42 -152.5t116 -56.5q103 0 162 80v639h278v-651q0 -34 14 -41t48 6q44 17 85 -6t52 -70q11 -57 -21 -96.5t-102 -52.5q-110 -22 -193.5 3t-125.5 97q-34 -48 -105.5 -79t-154.5 -31 q-180 0 -275.5 91.5t-95.5 258.5v323q0 34 -13.5 40t-47.5 -7q-45 -15 -87 8t-51 70zM281 1417l251 25l154 -273l-188 -22q-149 133 -217 270z" />
<glyph unicode="&#xfa;" horiz-adv-x="1402" d="M55 764q-12 56 20.5 95t102.5 52q157 34 254.5 -30t97.5 -224v-266q0 -96 42 -152.5t116 -56.5q103 0 162 80v639h278v-651q0 -34 14 -41t48 6q44 17 85 -6t52 -70q11 -57 -21 -96.5t-102 -52.5q-110 -22 -193.5 3t-125.5 97q-34 -48 -105.5 -79t-154.5 -31 q-180 0 -275.5 91.5t-95.5 258.5v323q0 34 -13.5 40t-47.5 -7q-45 -15 -87 8t-51 70zM559 1169l154 273l252 -25q-68 -137 -217 -270z" />
<glyph unicode="&#xfb;" horiz-adv-x="1402" d="M55 764q-12 56 20.5 95t102.5 52q157 34 254.5 -30t97.5 -224v-266q0 -96 42 -152.5t116 -56.5q103 0 162 80v639h278v-651q0 -34 14 -41t48 6q44 17 85 -6t52 -70q11 -57 -21 -96.5t-102 -52.5q-110 -22 -193.5 3t-125.5 97q-34 -48 -105.5 -79t-154.5 -31 q-180 0 -275.5 91.5t-95.5 258.5v323q0 34 -13.5 40t-47.5 -7q-45 -15 -87 8t-51 70zM362 1171q61 148 173 271h272q110 -121 172 -271l-197 -24l-110 186l-111 -186z" />
<glyph unicode="&#xfc;" horiz-adv-x="1402" d="M55 764q-12 56 20.5 95t102.5 52q157 34 254.5 -30t97.5 -224v-266q0 -96 42 -152.5t116 -56.5q103 0 162 80v639h278v-651q0 -34 14 -41t48 6q44 17 85 -6t52 -70q11 -57 -21 -96.5t-102 -52.5q-110 -22 -193.5 3t-125.5 97q-34 -48 -105.5 -79t-154.5 -31 q-180 0 -275.5 91.5t-95.5 258.5v323q0 34 -13.5 40t-47.5 -7q-45 -15 -87 8t-51 70zM352 1266q0 51 38.5 85.5t96.5 34.5q59 0 97.5 -34.5t38.5 -85.5t-38 -85t-98 -34q-58 0 -96.5 34t-38.5 85zM752 1266q0 51 38.5 85.5t96.5 34.5q59 0 97 -34t38 -86q0 -51 -38 -85 t-97 -34q-58 0 -96.5 34t-38.5 85z" />
<glyph unicode="&#xfd;" horiz-adv-x="1333" d="M76 764q-12 56 20.5 95t102.5 52q157 34 254.5 -30t97.5 -224v-266q0 -96 42 -152.5t116 -56.5q102 0 161 80v639h279v-954q0 -199 -137 -319t-383 -120q-151 0 -299 41v228q149 -56 299 -56q241 0 241 226v106q-86 -73 -225 -73q-180 0 -275.5 91.5t-95.5 258.5v323 q0 34 -13.5 40t-47.5 -7q-45 -15 -86.5 8t-50.5 70zM582 1169l153 273l252 -25q-68 -137 -217 -270z" />
<glyph unicode="&#xfe;" horiz-adv-x="1335" d="M55 1374q-11 58 21 97.5t102 52.5q158 32 256 -32t98 -222v-424q101 76 263 76q203 0 310 -118t107 -351q0 -234 -123 -353.5t-354 -119.5q-111 0 -203 28v-520h-278v1776q0 34 -13.5 40.5t-47.5 -6.5q-44 -17 -85.5 6t-52.5 70zM532 451q0 -275 201 -275q205 0 205 275 q0 137 -57.5 205.5t-167.5 68.5q-126 0 -181 -88v-186z" />
<glyph unicode="&#xff;" horiz-adv-x="1333" d="M76 764q-12 56 20.5 95t102.5 52q157 34 254.5 -30t97.5 -224v-266q0 -96 42 -152.5t116 -56.5q102 0 161 80v639h279v-954q0 -199 -137 -319t-383 -120q-151 0 -299 41v228q149 -56 299 -56q241 0 241 226v106q-86 -73 -225 -73q-180 0 -275.5 91.5t-95.5 258.5v323 q0 34 -13.5 40t-47.5 -7q-45 -15 -86.5 8t-50.5 70zM356 1266q0 51 39 85.5t97 34.5q59 0 97 -34t38 -86q0 -51 -37.5 -85t-97.5 -34q-58 0 -97 34t-39 85zM756 1266q0 51 38.5 85.5t96.5 34.5q59 0 97 -34t38 -86q0 -51 -38 -85t-97 -34q-58 0 -96.5 34t-38.5 85z" />
<glyph unicode="&#x152;" horiz-adv-x="1855" d="M123 737q0 217 97.5 384t280.5 260.5t425 93.5h796v-228h-542v-504h364v-227h-364v-250q0 -15 12 -27t27 -12h524v-227h-817q-242 0 -425 93t-280.5 260t-97.5 384zM399 737q0 -220 141.5 -361t362.5 -149v1020q-221 -8 -362.5 -149.5t-141.5 -360.5z" />
<glyph unicode="&#x153;" horiz-adv-x="1816" d="M123 453q0 233 122.5 351t354.5 118q221 0 340 -107q122 107 342 107q109 0 191 -26.5t126.5 -70.5t65.5 -94t21 -106q0 -63 -25 -112.5t-64 -80t-95 -51.5t-108.5 -30t-114 -12.5t-103.5 -2.5t-84 4q45 -162 213 -162q73 0 165 32t148 79l76 -201q-64 -53 -167.5 -80.5 t-221.5 -27.5q-231 0 -359 110q-122 -110 -346 -110q-232 0 -354.5 119.5t-122.5 353.5zM397 453q0 -275 203 -275t203 275q0 272 -203 272t-203 -272zM1081 508q93 1 158 10.5t96.5 21t48.5 31t19 31t2 31.5q0 35 -31 63.5t-92 28.5q-89 0 -140.5 -54.5t-60.5 -162.5z" />
<glyph unicode="&#x178;" horiz-adv-x="1351" d="M82 1475h319l275 -510l274 510h320l-455 -775v-700h-276v698zM342 1767q0 51 38.5 86t96.5 35q59 0 97 -34.5t38 -86.5q0 -51 -37.5 -84.5t-97.5 -33.5q-58 0 -96.5 33.5t-38.5 84.5zM741 1767q0 51 39 86t97 35q59 0 97 -34.5t38 -86.5q0 -51 -37.5 -84.5t-97.5 -33.5 q-59 0 -97.5 33.5t-38.5 84.5z" />
<glyph unicode="&#x2c6;" horiz-adv-x="841" d="M113 1630q62 150 172 271h272q110 -121 172 -271l-197 -24l-110 186l-111 -186z" />
<glyph unicode="&#x2dc;" horiz-adv-x="970" d="M113 1651q10 96 71.5 160.5t167.5 64.5q51 0 96.5 -16.5t71.5 -37t53 -37t45 -16.5q30 0 48.5 28.5t23.5 76.5l168 -43q-11 -97 -72.5 -161t-167.5 -64q-48 0 -90.5 16.5t-68 36.5t-54.5 36.5t-53 16.5q-31 0 -49.5 -27.5t-21.5 -76.5z" />
<glyph unicode="&#x2000;" horiz-adv-x="975" />
<glyph unicode="&#x2001;" horiz-adv-x="1950" />
<glyph unicode="&#x2002;" horiz-adv-x="975" />
<glyph unicode="&#x2003;" horiz-adv-x="1950" />
<glyph unicode="&#x2004;" horiz-adv-x="650" />
<glyph unicode="&#x2005;" horiz-adv-x="487" />
<glyph unicode="&#x2006;" horiz-adv-x="325" />
<glyph unicode="&#x2007;" horiz-adv-x="325" />
<glyph unicode="&#x2008;" horiz-adv-x="243" />
<glyph unicode="&#x2009;" horiz-adv-x="390" />
<glyph unicode="&#x200a;" horiz-adv-x="108" />
<glyph unicode="&#x2010;" horiz-adv-x="780" d="M72 395v193h637v-193h-637z" />
<glyph unicode="&#x2011;" horiz-adv-x="780" d="M72 395v193h637v-193h-637z" />
<glyph unicode="&#x2012;" horiz-adv-x="780" d="M72 395v193h637v-193h-637z" />
<glyph unicode="&#x2013;" horiz-adv-x="872" d="M0 395v193h872v-193h-872z" />
<glyph unicode="&#x2014;" horiz-adv-x="1234" d="M0 395v193h1235v-193h-1235z" />
<glyph unicode="&#x2018;" horiz-adv-x="585" d="M113 1536h233l127 -444l-160 -39q-61 103 -116.5 236.5t-83.5 246.5z" />
<glyph unicode="&#x2019;" horiz-adv-x="585" d="M113 1092l127 444h233q-28 -112 -83.5 -246t-117.5 -237z" />
<glyph unicode="&#x201a;" horiz-adv-x="585" d="M113 -211l127 444h233q-28 -112 -83.5 -246t-117.5 -237z" />
<glyph unicode="&#x201c;" horiz-adv-x="952" d="M113 1536h233l127 -444l-160 -39q-61 103 -116.5 236.5t-83.5 246.5zM479 1536h234l127 -444l-160 -39q-62 103 -117.5 237t-83.5 246z" />
<glyph unicode="&#x201d;" horiz-adv-x="952" d="M113 1092l127 444h233q-28 -112 -83.5 -246t-117.5 -237zM479 1092l127 444h234q-28 -112 -83.5 -246t-117.5 -237z" />
<glyph unicode="&#x201e;" horiz-adv-x="952" d="M113 -211l127 444h233q-28 -112 -83.5 -246t-117.5 -237zM479 -211l127 444h234q-28 -112 -83.5 -246t-117.5 -237z" />
<glyph unicode="&#x2022;" horiz-adv-x="864" d="M184 776q0 94 70.5 158.5t177.5 64.5t177.5 -64.5t70.5 -158.5q0 -97 -70 -160t-178 -63t-178 63t-70 160z" />
<glyph unicode="&#x2026;" horiz-adv-x="1779" d="M113 152q0 64 47.5 107.5t120.5 43.5t120.5 -43.5t47.5 -107.5q0 -66 -47.5 -109t-120.5 -43t-120.5 43t-47.5 109zM719 152q0 64 47.5 107.5t120.5 43.5t120.5 -43.5t47.5 -107.5q0 -66 -47.5 -109t-120.5 -43t-120.5 43t-47.5 109zM1331 152q0 64 47.5 107.5 t120.5 43.5t120.5 -43.5t47.5 -107.5q0 -66 -47.5 -109t-120.5 -43t-120.5 43t-47.5 109z" />
<glyph unicode="&#x202f;" horiz-adv-x="390" />
<glyph unicode="&#x2039;" horiz-adv-x="655" d="M93 552q0 45 22 77l198 293h250l-256 -371l256 -371h-250l-198 293q-22 34 -22 79z" />
<glyph unicode="&#x203a;" horiz-adv-x="655" d="M92 180l256 371l-256 371h250l199 -293q22 -32 22 -77t-22 -79l-199 -293h-250z" />
<glyph unicode="&#x205f;" horiz-adv-x="487" />
<glyph unicode="&#x20ac;" horiz-adv-x="1292" d="M123 362v177h131q24 191 153.5 289t342.5 98q117 0 221 -28t168 -81l-76 -201q-56 47 -148 79t-165 32q-87 0 -144.5 -47.5t-75.5 -140.5h508l-65 -177h-441q18 -92 74.5 -138t143.5 -46q73 0 165 32t148 79l76 -201q-64 -53 -167.5 -80.5t-221.5 -27.5 q-211 0 -340.5 96.5t-153.5 285.5h-133z" />
<glyph unicode="&#x2122;" horiz-adv-x="1757" d="M102 1317v158h574v-158h-199v-490h-192v490h-183zM782 827v392q0 111 69.5 188.5t170.5 77.5q124 0 197 -96q70 96 196 96q101 0 170.5 -77.5t69.5 -188.5v-392h-193v392q0 34 -21 56.5t-52 22.5t-52.5 -22.5t-21.5 -56.5v-392h-193v392q0 34 -21 56.5t-52 22.5 t-52.5 -22.5t-21.5 -56.5v-392h-193z" />
<glyph unicode="&#xe000;" horiz-adv-x="901" d="M0 0v901h901v-901h-901z" />
</font>
</defs>
</svg>
