<?xml version="1.0" standalone="no"?>
<!DOCTYPE svg PUBLIC "-//W3C//DTD SVG 1.1//EN" "http://www.w3.org/Graphics/SVG/1.1/DTD/svg11.dtd" >
<svg xmlns="http://www.w3.org/2000/svg">
<metadata></metadata>
<defs>
<font id="reverie_bold_italicBdIt" horiz-adv-x="1521" >
<font-face units-per-em="2048" ascent="1536" descent="-512" />
<missing-glyph horiz-adv-x="614" />
<glyph horiz-adv-x="2048" />
<glyph horiz-adv-x="2048" />
<glyph unicode="&#xd;" horiz-adv-x="2048" />
<glyph unicode=" "  horiz-adv-x="614" />
<glyph unicode="&#x09;" horiz-adv-x="614" />
<glyph unicode="&#xa0;" horiz-adv-x="614" />
<glyph unicode="!" horiz-adv-x="561" d="M55 152q11 64 66.5 107.5t128.5 43.5t112.5 -43.5t28.5 -107.5q-12 -66 -66.5 -109t-127.5 -43q-74 0 -114 43t-28 109zM170 477l174 998h229l-174 -998h-229z" />
<glyph unicode="&#x22;" horiz-adv-x="714" d="M199 995l84 480h190l-84 -480h-190zM498 995l84 480h190l-84 -480h-190z" />
<glyph unicode="#" horiz-adv-x="1181" d="M137 426l29 162h192l95 299h-168l28 162h191l135 426h143l-135 -426h164l135 426h144l-136 -426h189l-29 -162h-211l-94 -299h186l-28 -162h-209l-135 -426h-144l135 426h-163l-136 -426h-143l135 426h-170zM502 588h164l94 299h-164z" />
<glyph unicode="$" horiz-adv-x="1105" d="M100 231q12 64 53.5 101t104.5 37q49 0 74 -33t8 -84q-13 -34 33 -57t112 -23q77 0 131 29.5t62 70.5q4 26 -17.5 44t-60.5 28t-88.5 21t-102 21.5t-101 31t-84 47t-52.5 72.5t-6 106q21 121 124.5 192t260.5 83l29 167h176l-31 -170q186 -21 262 -116l-151 -189 q-41 61 -99 90t-149 29q-55 0 -94.5 -22.5t-44.5 -55.5q-4 -25 17.5 -42.5t60.5 -27.5t89 -22t102.5 -23t101 -33t84.5 -50.5t53 -76t6 -108.5q-16 -86 -78 -148.5t-143.5 -93t-180.5 -40.5l-29 -170h-176l29 168q-64 6 -117 22.5t-96.5 44.5t-63 74t-8.5 106z" />
<glyph unicode="%" horiz-adv-x="1794" d="M219 0l1211 1341h237l-1210 -1341h-238zM219 1020q17 131 125.5 226t241.5 95t214 -95t64 -226q-19 -135 -125.5 -229.5t-240.5 -94.5t-216 94.5t-63 229.5zM412 1020q-11 -62 20 -105t86 -43q54 0 100 43.5t56 104.5q10 58 -21.5 98.5t-85.5 40.5q-55 0 -99.5 -40 t-55.5 -99zM1026 324q15 131 123.5 226t241.5 95q132 0 213.5 -94.5t66.5 -226.5q-17 -135 -122 -229.5t-238 -94.5q-134 0 -218 95t-67 229zM1219 324q-11 -62 20 -105t86 -43q54 0 100 43.5t56 104.5q10 58 -21.5 98.5t-85.5 40.5q-55 0 -99.5 -40t-55.5 -99z" />
<glyph unicode="&#x26;" horiz-adv-x="1370" d="M80 356q0 153 90 273t231 180q-133 74 -133 233q0 84 30.5 157.5t82.5 127t119.5 92t143 57.5t151.5 19q89 0 170 -29.5t137.5 -94t56.5 -150.5q0 -54 -19.5 -105.5t-61 -88t-95.5 -36.5q-41 0 -67.5 27.5t-26.5 66.5q0 19 14.5 48t14.5 45q0 30 -14 52t-37.5 33 t-48.5 16t-52 5q-94 0 -160 -50.5t-80 -129.5q-14 -82 33 -141.5t139 -59.5q4 0 10.5 -0.5t23 -5.5t29.5 -13.5t23.5 -26.5t10.5 -42q0 -60 -40.5 -98.5t-95.5 -38.5q-118 0 -204.5 -61t-110.5 -156q-24 -98 39 -174t186 -76q121 0 212.5 75.5t109.5 174.5l35 194 q19 106 104.5 180t194.5 74h172l-41 -225h-142q-15 0 -28.5 -12t-16.5 -27l-36 -211q-34 -194 -187.5 -319t-398.5 -125q-220 0 -343.5 102t-123.5 264z" />
<glyph unicode="'" horiz-adv-x="415" d="M203 995l84 480h190l-84 -480h-190z" />
<glyph unicode="(" horiz-adv-x="727" d="M88 596q31 171 85 325t124 276.5t136 212.5t145 177h296q-404 -404 -522 -991q-108 -555 131 -983h-254q-241 415 -141 983z" />
<glyph unicode=")" horiz-adv-x="727" d="M0 -387q401 431 498 983q104 585 -152 991h252q249 -422 166 -991q-88 -564 -467 -983h-297z" />
<glyph unicode="*" horiz-adv-x="1052" d="M230.5 1095q-11.5 41 11.5 85q22 44 64.5 66t82.5 9q104 -36 172 -94q-13 89 8 211q8 43 45 73t84 30t75.5 -30t21.5 -73q-20 -116 -70 -211q88 58 209 94q43 14 78 -8.5t41 -66.5q8 -44 -18 -85.5t-70 -54.5q-112 -34 -215 -34q71 -60 122 -152q18 -35 1.5 -79.5 t-58.5 -72.5q-43 -28 -86.5 -22t-62.5 41q-53 94 -66 188q-45 -88 -131 -188q-32 -35 -78 -41t-80 22q-32 28 -33.5 72.5t29.5 79.5q85 92 176 152q-101 0 -202 34q-39 14 -50.5 55z" />
<glyph unicode="+" horiz-adv-x="1116" d="M137 385l33 184h305l53 305h199l-53 -305h305l-33 -184h-305l-55 -307h-199l55 307h-305z" />
<glyph unicode="," horiz-adv-x="561" d="M-6 -268l176 270q-60 8 -90.5 49t-20.5 101q11 64 66.5 107.5t128.5 43.5q85 0 124 -64.5t-3 -140.5l-232 -366h-149z" />
<glyph unicode="-" horiz-adv-x="780" d="M57 395l33 193h637l-33 -193h-637z" />
<glyph unicode="." horiz-adv-x="561" d="M53 152q11 64 66.5 107.5t128.5 43.5t112.5 -43.5t28.5 -107.5q-12 -66 -66.5 -109t-127.5 -43q-74 0 -114 43t-28 109z" />
<glyph unicode="/" horiz-adv-x="1069" d="M66 0l817 1475h219l-817 -1475h-219z" />
<glyph unicode="0" horiz-adv-x="1146" d="M94 387q0 141 77 265.5t201.5 197t260.5 72.5q178 0 294.5 -117.5t116.5 -290.5q0 -141 -76.5 -265t-201 -196.5t-260.5 -72.5q-179 0 -295.5 117t-116.5 290zM342 451q-19 -104 35.5 -177t148.5 -73t173 73t98 177q19 102 -35 174.5t-148 72.5t-173.5 -72t-98.5 -175z " />
<glyph unicode="1" horiz-adv-x="1028" d="M72 0l37 215h256l63 363q-11 -9 -29.5 -22.5t-69 -41.5t-93.5 -39l-60 205q59 18 116.5 49.5t97.5 63t71.5 60.5t46.5 47l16 18h230l-123 -703h219l-37 -215h-741z" />
<glyph unicode="2" horiz-adv-x="1042" d="M16 0l33 193q93 23 187 59t180.5 84t145.5 109.5t71 125.5q13 73 -28 105.5t-118 32.5q-136 0 -352 -99l43 248q171 68 346 68q68 0 128 -10t115.5 -33.5t93 -59t54.5 -91.5t5 -126q-23 -128 -156 -239t-299 -154v-12l334 26q44 3 68 -33.5t16 -82.5q-8 -45 -43.5 -78 t-79.5 -33h-744z" />
<glyph unicode="3" horiz-adv-x="997" d="M-66 -373l43 242q61 -23 130 -39t144 -20t137.5 8t108.5 50.5t58 100.5q22 114 -29.5 154.5t-193.5 40.5l-103 -2l41 227l101 -2q109 -2 168 33.5t79 136.5q10 51 -6.5 85.5t-53 49.5t-86 18.5t-106.5 -4.5t-112.5 -22.5t-106.5 -34.5l39 217q82 28 170 41.5t172 10.5 t157 -26.5t125 -65t75.5 -110.5t9.5 -157q-35 -215 -250 -276l-2 -11q90 -16 147 -106.5t35 -218.5q-16 -96 -66.5 -168.5t-123 -114t-160.5 -64.5t-183 -24t-185.5 12t-172.5 39z" />
<glyph unicode="4" horiz-adv-x="1169" d="M22.5 126q5.5 53 40.5 103l496 693h285l-508 -699h278l41 232q8 45 52 79.5t96 34.5q53 0 85.5 -34.5t24.5 -79.5l-41 -232h58q44 0 71.5 -33t20.5 -77q-8 -44 -47.5 -78.5t-83.5 -34.5h-57l-76 -424h-258l75 424h-442q-58 0 -87 36.5t-23.5 89.5z" />
<glyph unicode="5" horiz-adv-x="1013" d="M-51 -375l41 225q4 -1 24 -8.5l28 -10.5t28.5 -9.5t32.5 -9.5t33.5 -8t39 -7t40 -4t44.5 -2q131 0 211 64.5t98 167.5q20 103 -38.5 167t-190.5 64q-141 0 -285 -33l109 617q4 34 34 59t64 25h672l-39 -222h-479l-41 -231h18q257 0 374 -122t81 -324 q-34 -196 -207.5 -321.5t-404.5 -125.5q-142 0 -287 49z" />
<glyph unicode="6" horiz-adv-x="1175" d="M98 389q0 65 17 158q21 120 63 223.5t95.5 177.5t116.5 134.5t127.5 99.5t127.5 68t118 44t97 24t66 11l24 2l86 -203q-9 0 -25.5 -0.5t-67 -7.5t-99 -19.5t-114 -40.5t-122 -66.5t-113 -101t-94.5 -140.5q114 114 285 114q163 0 273 -105t110 -261q0 -144 -81.5 -265 t-210.5 -188t-271 -67q-181 0 -294.5 117t-113.5 292zM350 422q-23 -90 35 -155.5t160 -65.5q97 0 176 64.5t96 156.5q22 92 -35.5 157.5t-158.5 65.5q-98 0 -178 -65.5t-95 -157.5z" />
<glyph unicode="7" horiz-adv-x="1036" d="M59 -424l656 1124h-496q-45 0 -74 32.5t-22 76.5t48.5 78.5t86.5 34.5h635q67 0 95.5 -38t20.5 -89t-38 -103l-641 -1116h-271z" />
<glyph unicode="8" horiz-adv-x="1062" d="M66 319q-4 139 76.5 245.5t209.5 160.5q-117 75 -123 221q-5 114 62.5 207t169 140.5t209.5 47.5q155 0 250 -80t100 -204q4 -115 -55 -202.5t-160 -135.5q79 -42 123 -110.5t47 -155.5q3 -101 -42 -189.5t-119 -147t-167 -92.5t-186 -34q-175 0 -282.5 93t-112.5 236z M307 410q-15 -85 34.5 -142t145.5 -57t165.5 57t84.5 142q14 86 -35 142t-145 56q-97 0 -166.5 -56t-83.5 -142zM453 983q-11 -64 28 -108t115 -44q77 0 131.5 44t65.5 108q11 65 -28 108.5t-116 43.5q-76 0 -130.5 -43.5t-65.5 -108.5z" />
<glyph unicode="9" horiz-adv-x="1175" d="M100 403q0 145 77 265.5t206.5 188t280.5 67.5q105 0 184.5 -33.5t126 -93.5t69.5 -135.5t23 -165.5q0 -193 -74 -373.5t-207 -304.5q-69 -64 -153 -113t-154.5 -73t-130.5 -39t-94 -18l-35 -3l-86 203q9 0 25.5 0.5t67 7.5t99 20t114 41t122 66.5t113 101t94.5 140.5 q-118 -115 -285 -115q-163 0 -273 105t-110 261zM352 481q-17 -92 40 -157.5t155 -65.5t176.5 65t95.5 158q15 92 -41 156.5t-153 64.5q-98 0 -178 -65t-95 -156z" />
<glyph unicode=":" horiz-adv-x="487" d="M16 152q11 64 66.5 107.5t128.5 43.5t112.5 -43.5t28.5 -107.5q-12 -66 -66.5 -109t-127.5 -43q-74 0 -114 43t-28 109zM131 791q11 64 66.5 107.5t128.5 43.5t112.5 -43.5t28.5 -107.5q-12 -66 -67 -109t-128 -43t-113 43t-28 109z" />
<glyph unicode=";" horiz-adv-x="487" d="M-47 -268l176 270q-60 8 -90.5 49t-20.5 101q11 64 66.5 107.5t128.5 43.5q85 0 124 -64.5t-3 -140.5l-232 -366h-149zM131 791q11 64 66.5 107.5t128.5 43.5t112.5 -43.5t28.5 -107.5q-12 -66 -67 -109t-128 -43t-113 43t-28 109z" />
<glyph unicode="&#x3c;" horiz-adv-x="743" d="M102 489l316 414h274l-2 -18l-332 -408l177 -395l-5 -12h-245z" />
<glyph unicode="=" horiz-adv-x="1067" d="M104 209l33 184h760l-33 -184h-760zM168 561l33 184h760l-33 -184h-760z" />
<glyph unicode="&#x3e;" horiz-adv-x="743" d="M51 70l2 18l332 408l-176 395l4 12h246l182 -420l-315 -413h-275z" />
<glyph unicode="?" horiz-adv-x="1009" d="M143 152q11 64 66.5 107.5t128.5 43.5t112.5 -43.5t28.5 -107.5q-12 -66 -66.5 -109t-127.5 -43q-74 0 -114 43t-28 109zM229 420l19 258q7 88 102 115q343 99 379 288q10 66 -31 112t-133 46q-144 0 -332 -70l46 254q187 52 329 52q210 0 318.5 -109t77.5 -283 q-30 -168 -159 -292t-339 -179l-33 -192h-244z" />
<glyph unicode="@" horiz-adv-x="1937" d="M185.5 158q-29.5 142 2.5 329q29 162 93 293.5t152.5 223.5t200.5 154t236 91t260 29q133 0 244.5 -27.5t198 -82.5t141 -137t73.5 -191t-5 -246q-22 -121 -53.5 -211.5t-80 -163.5t-118.5 -115t-162 -51q-85 -8 -132 31.5t-50 124.5q-7 -18 -34.5 -45.5t-67.5 -56 t-95.5 -48.5t-109.5 -20q-81 0 -145 26t-110 81.5t-60 142t5 207.5q38 219 162.5 335.5t323.5 116.5q200 0 290 -112t54 -324l-37 -199q-3 -19 13 -31.5t28 -7.5q30 10 50.5 32.5t46 90.5t46.5 185q43 251 -74.5 375t-371.5 124q-261 0 -439.5 -153.5t-230.5 -440.5 q-97 -563 418 -563q60 0 152.5 14.5t146.5 32.5l-2 -196q-66 -22 -165.5 -35.5t-180.5 -13.5q-165 0 -292.5 49t-209.5 145t-111.5 238zM829 498q-24 -139 4 -197.5t105 -58.5q128 0 180 147l19 109q25 137 -3.5 194.5t-105.5 57.5t-125.5 -57.5t-73.5 -194.5z" />
<glyph unicode="A" d="M123 0l84 485q8 38 -10 50q-41 24 -41 73q0 11 2 23q11 71 71 100q11 5 19 17t10 21l2 9l31 183q43 241 204.5 387.5t393.5 146.5q237 0 357 -148q88 -109 89 -267q0 -57 -12 -119l-125 -711q-6 -34 7 -40t48 7q19 6 36 6q27 0 49 -14q38 -23 38 -70v-8q0 -51 -36 -87 q-39 -40 -111 -52q-57 -12 -104 -12q-89 0 -145 42q-64 48 -65 151q0 34 7 73l47 270h-480l-90 -516h-276zM530 743h480l37 218q9 48 9 89q0 76 -30 130q-46 82 -156 82t-194 -83.5t-109 -217.5z" />
<glyph unicode="B" horiz-adv-x="1349" d="M182 254l70 395q10 37 -10 49q-41 24 -41 74q0 11 2 23q11 71 73 100q10 5 17.5 17t9.5 21l2 9l78 449q6 34 35 59t63 25h230q25 1 50 1q255 0 365 -86q96 -74 96 -203q0 -35 -8 -73q-38 -213 -208 -293q132 -46 192 -155q43 -78 44 -166q0 -35 -7 -72q-12 -69 -42 -131 t-84.5 -118.5t-128.5 -97t-180 -62.5q-93 -19 -203 -19h-30h-174q-105 0 -167 75q-48 58 -48 132q0 23 4 47zM461 266q-2 -15 8 -27t25 -12h84h19q155 1 247 61q98 64 114 165q4 22 4 41q0 74 -55 124q-67 61 -200 60h-13h-159zM575 911h35q158 0 235 41.5t91 126.5 q5 23 5 43q-1 60 -41 90q-47 35 -173 36q-19 0 -39 -1h-53z" />
<glyph unicode="C" horiz-adv-x="1601" d="M152 573q0 188 65.5 357.5t178.5 293.5t275.5 197.5t346.5 73.5q55 0 114 -9t120 -26.5t115 -47t96.5 -66t67.5 -88t25 -109.5q0 -70 -32.5 -136t-93.5 -101q-35 -20 -73 -20q-28 0 -57 11q-34 13 -44 49q-6 19 -6 38q0 18 4 36q10 38 30 61q10 16 10 31q0 23 -22 45 q-95 99 -275 99q-102 0 -193 -38.5t-158 -103.5t-116.5 -148.5t-74.5 -175.5t-25 -182q0 -184 100.5 -292.5t278.5 -108.5q135 0 268 62t226 163l141 -188q-126 -129 -296 -199.5t-360 -70.5q-292 0 -464 161.5t-172 431.5z" />
<glyph unicode="D" horiz-adv-x="1531" d="M184 254l168 944q6 45 -14 55q-52 31 -52 87q0 13 3 28q10 51 47.5 79t89.5 28h432q283 0 446.5 -156t163.5 -418q0 -184 -64 -349.5t-174.5 -287t-269 -193t-339.5 -71.5h-226q-105 0 -167 75q-48 58 -48 132q0 23 4 47zM463 266q-2 -15 8 -27t25 -12h143q100 0 190 38 t156 101.5t114.5 145.5t72.5 172t24 178q0 178 -92 281.5t-264 103.5h-203z" />
<glyph unicode="E" horiz-adv-x="1245" d="M178 631q11 70 72 100q11 5 19 17t10 21l2 9l106 613q6 34 35 59t63 25h803l-39 -228h-610l-88 -504h364l-43 -227h-362l-45 -250q-2 -15 8 -27t25 -12h592l-39 -227h-654q-105 0 -167 75q-48 58 -48 132q0 23 4 47l41 231q8 38 -10 50q-41 24 -41 73q0 11 2 23z" />
<glyph unicode="F" horiz-adv-x="1224" d="M139 0l84 485q8 38 -10 50q-41 24 -41 73q0 11 2 23q11 70 72 100q11 5 18.5 17t9.5 21l2 9l107 613q6 34 35 59t63 25h803l-39 -228h-610l-88 -504h418l-43 -227h-416l-90 -516h-277z" />
<glyph unicode="G" horiz-adv-x="1640" d="M168 737q61 341 290.5 549.5t561.5 208.5q150 0 274.5 -45t202.5 -127q47 -46 62 -110q9 -40 9 -74q0 -21 -3 -39q-9 -50 -29 -86q-38 -71 -105 -102q-39 -18 -76 -18q-27 0 -52 9q-41 16 -51 69q-2 12 -2 23q0 42 30 86q14 22 14 41t-16 35q-47 50 -122 77.5t-163 27.5 q-207 0 -357 -145.5t-192 -379.5q-13 -73 -13 -137q0 -143 65 -242q93 -145 299 -145q96 0 193 33t177 92l31 178h-319l41 227h512q34 0 53.5 -25t13.5 -59l-74 -423q-125 -122 -292.5 -189t-352.5 -67q-222 0 -374.5 95.5t-213.5 266.5q-38 104 -38 227q0 80 16 168z" />
<glyph unicode="H" horiz-adv-x="1472" d="M139 0l215 1225q6 34 -7 41t-48 -6q-20 -7 -39 -7q-24 1 -46 13q-38 22 -42 69q0 57 39 97t111 53q55 11 101 11q91 0 149 -43q65 -48 66 -150q0 -33 -7 -72l-84 -488h469l127 732h276l-258 -1475h-276l90 516h-469l-90 -516h-277z" />
<glyph unicode="I" horiz-adv-x="727" d="M143 0l215 1225q6 34 -7 41t-48 -6q-20 -7 -39 -7q-24 1 -46 13q-38 22 -42 69q0 57 39 97t111 53q55 11 101 11q91 0 149 -43q65 -48 66 -150q0 -33 -7 -72l-215 -1231h-277z" />
<glyph unicode="J" horiz-adv-x="1011" d="M31 180q11 56 51 93q38 36 89 36h3q69 0 96 -59q20 -39 92 -39q102 0 132 166l192 1098h277l-193 -1098q-34 -192 -147 -294.5t-299 -102.5q-91 0 -162 26t-107 76q-26 32 -26 74q0 12 2 24z" />
<glyph unicode="K" horiz-adv-x="1548" d="M221 0l84 483q6 35 -12 47q-40 23 -40 72q0 14 3 29q11 70 72 96q10 6 17 18.5t9 21.5l2 9l80 449q6 34 -7 41t-48 -6q-20 -7 -39 -7q-24 1 -46 13q-38 22 -40 69q0 57 39 97t111 53q55 11 101 11q91 0 149 -43q65 -48 66 -150q0 -33 -7 -72l-86 -479q196 0 341 191.5 t212 531.5h293q-52 -294 -197.5 -506.5t-353.5 -311.5q58 -14 98 -45.5t63 -78.5t37 -91t31 -107.5t33 -103.5q6 -15 26 -23.5t39 7.5q4 4 4.5 15.5t-2.5 17.5q-7 18 -7 35t6 33q13 34 42 49q32 14 66 15h3q33 0 65 -22q32 -23 47 -65q13 -37 13 -72q0 -70 -50 -137 q-75 -104 -250 -104q-157 0 -225 133q-25 48 -42.5 105t-25 95.5t-23.5 78t-40 63t-72.5 38.5t-122.5 15h-51l-88 -508h-277z" />
<glyph unicode="L" horiz-adv-x="1193" d="M188 254l215 1221h277l-215 -1221q-2 -15 8 -27t25 -12h592l-37 -215h-654q-105 0 -167 75q-48 58 -48 132q0 23 4 47z" />
<glyph unicode="M" horiz-adv-x="2260" d="M221 0l213 1225q6 34 -7 41t-48 -6q-20 -7 -39 -7q-24 1 -46 13q-38 22 -40 69q0 57 39 97t110 53q55 11 101 11q92 0 150 -43q66 -48 66 -151q0 -33 -7 -71l-39 -221q170 483 424 485h7q71 0 123 -20q56 -21 89 -58.5t51 -90.5q18 -52 19 -113q0 -64 -13 -140l-10 -49 q169 469 420 471h7q71 0 123 -20q56 -21 89 -58.5t51 -90.5q18 -52 19 -113q0 -64 -13 -140l-145 -823q-6 -34 7 -40t48 7q19 6 36 6q28 0 50 -14q38 -23 37 -70v-8q0 -51 -36 -87q-39 -39 -111 -52q-57 -12 -104 -12q-89 0 -146 42q-65 48 -65 151q0 34 7 73l148 839 q10 63 12 111q0 3 1 7q-1 43 -19 68q-20 27 -62 27q-57 0 -126.5 -88t-133 -224.5t-118.5 -298.5t-89 -314l-65 -373h-277l191 1085q10 63 12 111q0 3 1 7q-1 43 -19 68q-20 27 -62 27q-76 0 -172 -154t-175 -369t-124 -423l-61 -352h-279z" />
<glyph unicode="N" horiz-adv-x="1638" d="M221 0l215 1225q6 34 -7 41t-48 -6q-20 -7 -39 -7q-24 1 -46 13q-38 22 -40 69q0 57 39 97t111 53q55 11 101 11q91 0 149 -43q65 -48 66 -150q0 -33 -7 -72l-37 -213q42 98 91 179t109 150t132 108t147 40h3q178 -1 245 -115q44 -77 44 -186q0 -56 -11 -121l-146 -823 q-6 -34 7.5 -40t48.5 7q19 6 36 6q26 0 49 -14q37 -23 37 -70v-8q0 -51 -36 -87q-39 -40 -111 -52q-57 -12 -104 -12q-89 0 -145 42q-64 48 -65 151q0 34 7 73l147 839q12 70 12 116q1 44 -19 70q-20 27 -64 27q-65 0 -148 -97t-157 -243.5t-137.5 -319.5t-94.5 -325 l-55 -313h-279z" />
<glyph unicode="O" horiz-adv-x="1712" d="M147 569q0 150 41.5 289.5t119.5 254.5t183 201t240.5 133.5t284.5 47.5q290 0 460.5 -161t170.5 -429q0 -187 -65.5 -357t-178.5 -295t-276 -199t-349 -74q-290 0 -460.5 160.5t-170.5 428.5zM428 610q0 -183 97.5 -290t273.5 -107q103 0 194.5 38.5t158.5 104 t116 149.5t73.5 176t24.5 183q0 183 -97.5 290.5t-273.5 107.5q-103 0 -194.5 -39t-158.5 -104t-116 -149t-73.5 -176.5t-24.5 -183.5z" />
<glyph unicode="P" horiz-adv-x="1337" d="M141 0l84 481q8 37 -12 49q-41 25 -41 74q0 11 2 23q13 70 74 100q10 5 17 17t9 21l2 9l109 617q6 34 35 59t63 25h340h34q231 1 351 -89q129 -96 129 -274q0 -194 -87.5 -332t-233.5 -203q-138 -61 -311 -61h-21h-176l-90 -516h-277zM549 743h151q155 0 258 88t103 230 q0 92 -59.5 139t-194.5 47h-170z" />
<glyph unicode="Q" horiz-adv-x="1712" d="M168 737q61 341 290.5 549.5t561.5 208.5q222 0 375.5 -95.5t216.5 -267.5q38 -106 38 -229q0 -79 -16 -166q-54 -309 -234.5 -503t-488.5 -242l-24 -137q-6 -34 7 -40t48 7q19 6 36 6q27 0 50 -14q37 -23 37 -70v-8q0 -51 -36 -86q-39 -39 -111 -53q-57 -12 -105 -12 q-89 0 -145 41q-65 48 -65 151q0 34 7 73l25 140q-253 39 -387 245q-95 147 -95 341q0 77 15 161zM444 737q-12 -68 -12 -129q0 -112 40 -199q63 -135 206 -178q28 0 43 21q39 55 110 55t87 -55q8 -17 30 -21q158 44 267 179t143 327q13 72 13 136q0 143 -66 244 q-95 145 -301 145q-208 0 -363.5 -146t-196.5 -379z" />
<glyph unicode="R" horiz-adv-x="1476" d="M178 0l86 492q8 37 -12 49q-41 25 -41 74q0 11 2 22q13 70 74 100q10 5 17 17t9 21l2 9l107 607q6 34 35 59t63 25h340h34q232 0 352 -91q128 -98 128 -278q0 -191 -85 -321.5t-234 -196.5q16 -201 78 -357q4 -14 25.5 -23.5t39.5 7.5q4 4 4.5 15.5t-2.5 17.5 q-7 18 -7 35t6 33q13 34 42 49q32 14 66 15h3q34 0 64 -22q32 -23 47 -65q13 -37 13 -72q0 -70 -50 -137q-75 -104 -256 -104q-157 0 -225 133q-76 149 -104 417h-76h-176l-92 -530h-277zM586 745h151q167 6 264 89t97 235q0 92 -59 141.5t-191 49.5h-172z" />
<glyph unicode="S" horiz-adv-x="1294" d="M100 231l205 183q69 -191 277 -191q112 0 182.5 44t85.5 130q3 15 3 30q-1 36 -17 65q-22 41 -66.5 66t-103 50t-119.5 47.5t-117.5 59.5t-97 85t-56.5 124q-8 37 -9 80q0 45 9 96q31 169 168.5 282t343.5 113q107 0 202 -28.5t147 -88.5q43 -49 59 -110q10 -41 10 -76 q0 -16 -2 -32q-8 -48 -28 -83q-36 -69 -103 -99q-39 -18 -75 -18q-26 0 -50 9q-40 17 -48 73q-1 10 -1 19q0 46 31 92q13 18 14 38t-12 36q-23 24 -60.5 33.5t-103.5 9.5q-94 0 -158 -50.5t-78 -129.5q-2 -14 -3 -27q0 -29 13 -55q18 -36 54.5 -61t85.5 -49t103.5 -44.5 t108.5 -48t101 -59.5t80 -79.5t46 -106.5q6 -28 7 -62q0 -37 -8 -80q-25 -144 -107 -244.5t-195.5 -147t-250.5 -46.5q-169 0 -299.5 66.5t-167.5 184.5z" />
<glyph unicode="T" horiz-adv-x="1286" d="M232 1231q-4 15 -4 33q0 24 8 55q44 164 329 164q33 0 68 -2q68 0 193.5 -27t183.5 -27q68 0 164 16.5t158 32.5l61 17l-39 -231q-21 -7 -58 -17t-139 -26.5t-190 -16.5h-23l-213 -1202h-276l221 1247q-46 6 -90 6q-49 0 -82 -8t-46.5 -18t-34.5 -26.5t-40 -26.5 q-29 -15 -60.5 -13.5t-56 18.5t-34.5 52z" />
<glyph unicode="U" d="M236 1335v5q0 52 38 90q40 40 111 53q57 12 104 12q89 0 145 -42q64 -48 65 -151q0 -34 -7 -73l-125 -715q-8 -44 -9 -83q0 -79 35 -135q51 -84 161 -83q109 0 188.5 83t104.5 218l167 961h277l-168 -961q-43 -239 -209 -386.5t-399 -147.5q-235 0 -351 148 q-84 107 -85 263q0 58 12 123l125 711q6 34 -7 40t-49 -8q-19 -6 -36 -6q-28 0 -50 14q-38 23 -38 70z" />
<glyph unicode="V" horiz-adv-x="1531" d="M254 1335v5q0 52 38 90q40 40 111 53q57 12 104 12q89 0 146 -42q65 -48 65 -151q0 -34 -7 -73l-164 -948q-6 -35 13 -52t54 -8q71 18 148 85t144.5 165.5t126.5 223t95 257t49 268.5q4 46 4 90q0 86 -16 165h285q13 -64 13 -146t-12 -174t-38 -191.5t-62.5 -199.5 t-86.5 -197t-109 -184t-132.5 -161t-153.5 -127.5t-175.5 -84t-195.5 -30.5q-139 0 -196 84q-41 60 -41 142q0 33 7 70l166 949q6 34 -6.5 39.5t-48.5 -7.5q-19 -6 -36 -6q-27 0 -50 14q-38 23 -39 70z" />
<glyph unicode="W" horiz-adv-x="2138" d="M256 1338q0 42 24 74t64.5 49t82.5 25.5t83 8.5q115 0 171 -67q39 -47 39 -126q0 -34 -7 -73l-166 -948q-6 -36 13 -53t54 -7q96 29 196 148t180.5 300.5t115.5 379.5l74 426h254l-209 -1194q-6 -36 12 -53t53 -7q95 27 191 146.5t171.5 300t110.5 381.5q25 144 25 272 q0 81 -10 154h290q12 -72 12 -156q0 -124 -26 -272q-19 -106 -49 -210t-74 -210.5t-98 -200.5t-125 -176.5t-150.5 -142t-178 -93.5t-205.5 -34q-116 0 -166 80q-31 50 -32 117q0 40 11 85q-186 -282 -489 -282q-139 0 -196 84q-41 60 -41 142q0 33 7 70l168 949 q6 34 -6.5 39.5t-48.5 -7.5q-19 -6 -36 -6q-27 0 -50 14q-39 23 -39 73z" />
<glyph unicode="X" horiz-adv-x="1372" d="M0 0l573 737l-204 471q-24 55 -66 55q-9 0 -20 -3q-18 -5 -35 -5q-27 -1 -50 13q-37 22 -36 69q0 55 41.5 94.5t113.5 53.5q48 9 90 10q61 -1 109 -21q80 -34 115 -120l143 -355l354 476h338l-575 -752l201 -457q15 -33 34.5 -46.5t51.5 -4.5q18 5 35 6q27 0 49 -15 q36 -23 34 -69q0 -55 -41.5 -94t-113.5 -53q-48 -9 -90 -9q-61 -1 -109 19q-80 34 -115 121l-137 336l-340 -457h-350z" />
<glyph unicode="Y" horiz-adv-x="1351" d="M176 1337q3 57 40.5 96t109.5 52q48 9 89 9q158 0 208 -140l131 -361l348 482h344l-590 -775l-123 -700h-276l123 698l-211 510q-13 33 -31.5 46.5t-48.5 5.5q-18 -5 -35 -5q-26 0 -48 13q-30 21 -30 60v9z" />
<glyph unicode="Z" horiz-adv-x="1177" d="M26 132q4 57 46 110l807 1005h-390q-30 0 -42.5 -14t-6.5 -35q2 -8 2 -16q0 -26 -22 -52q-30 -34 -78 -38q-11 -1 -22 -1q-42 0 -70 19q-34 24 -37 78q-2 18 -2 34q-1 102 67 172q78 82 238 81h604q60 0 94 -38q30 -34 29 -83v-12q-4 -57 -47 -109l-844 -1006h418 q30 0 42.5 14t6.5 35q-2 8 -2 16q1 27 23 53q30 34 75 38q12 1 23 1q43 0 71 -19q35 -24 38 -78q2 -17 2 -34q0 -101 -68 -171q-79 -82 -238 -82h-596q-60 0 -93 38q-29 33 -29 81q0 6 1 13z" />
<glyph unicode="[" horiz-adv-x="774" d="M-8 -387l348 1974h487l-32 -190h-256l-281 -1594h256l-35 -190h-487z" />
<glyph unicode="\" horiz-adv-x="1064" d="M315 1475h209l301 -1475h-209z" />
<glyph unicode="]" horiz-adv-x="774" d="M-6 -387l35 190h256l280 1594h-256l33 190h487l-348 -1974h-487z" />
<glyph unicode="^" horiz-adv-x="931" d="M166 840l377 635h190l160 -635h-207l-84 403l-223 -403h-213z" />
<glyph unicode="_" horiz-adv-x="866" d="M0 0h866v-158h-866v158z" />
<glyph unicode="`" horiz-adv-x="630" d="M170 1876l223 25l107 -273l-160 -22q-124 130 -170 270z" />
<glyph unicode="a" horiz-adv-x="1351" d="M121 451q41 233 184 352t375 119t334 -118q73 -85 72 -228q0 -57 -11 -123l-35 -203q-6 -34 6.5 -41t49.5 6q20 7 38 7q25 0 46 -13q37 -23 39 -70v-6q0 -53 -37 -91q-39 -40 -111 -52q-54 -10 -100 -10q-76 0 -129 28q-84 45 -84 166q-129 -194 -318 -194 q-188 0 -274 120q-58 82 -58 216q0 62 13 135zM395 451q-11 -62 -11 -110q0 -167 134 -167q79 0 153.5 94t121.5 226v26q1 110 -31 154q-36 50 -113 51q-99 0 -164.5 -69t-89.5 -205z" />
<glyph unicode="b" horiz-adv-x="1335" d="M213 1374v6q0 53 37 91q39 40 112 53q54 11 100 11q92 0 150 -43q66 -48 67 -151q0 -33 -7 -71l-94 -533q128 187 311 187q188 0 273 -120q57 -81 57 -212q0 -63 -13 -139q-41 -234 -184.5 -353.5t-374.5 -119.5q-233 0 -337 120q-74 86 -74 229q0 57 12 124l143 811 q6 34 -6 40.5t-49 -6.5q-20 -7 -38 -7q-25 0 -46 13q-37 23 -39 70zM516 360v-6q0 -178 164 -178q202 0 252 277q11 62 11 110q0 166 -134 166q-59 0 -119 -58t-103 -139t-71 -172z" />
<glyph unicode="c" horiz-adv-x="1146" d="M117 453q41 233 184.5 351t376.5 118q84 0 186 -27q65 -19 107.5 -54t59.5 -73t20 -80q1 -11 1 -23q0 -28 -6 -52q-8 -33 -22 -56q-32 -63 -90 -89q-34 -15 -66 -15q-23 0 -45 8q-37 15 -45 61q-2 10 -1 19q0 37 26 75q9 13 9 26q0 22 -26 42q-52 41 -122 41 q-204 0 -273 -272q-16 -61 -17 -109q0 -58 24 -96q44 -70 149 -70q75 0 183.5 32.5t170.5 78.5l41 -201q-73 -53 -181 -80.5t-226 -27.5q-235 0 -347 120q-82 89 -82 238q0 54 11 115z" />
<glyph unicode="d" horiz-adv-x="1355" d="M119 451q41 233 170 352t332 119q155 0 247 -76l123 690h279l-228 -1286q-6 -34 7.5 -41t48.5 6q20 7 38 7q25 0 46 -13q37 -23 39 -70v-6q0 -53 -37 -91q-39 -40 -111 -52q-56 -11 -103 -11q-75 0 -128 28q-86 46 -86 167q-129 -194 -318 -194q-188 0 -274 120 q-58 82 -58 216q0 62 13 135zM393 451q-11 -62 -11 -110q0 -167 134 -167q52 0 106 46t95 116.5t71 150t43 150.5q-40 88 -163 88q-110 0 -180.5 -68.5t-94.5 -205.5z" />
<glyph unicode="e" horiz-adv-x="1140" d="M117 453q41 233 184.5 351t376.5 118q109 0 186 -26.5t113.5 -70.5t48.5 -94q7 -27 7 -56q0 -24 -5 -50q-11 -64 -46 -114t-81 -80.5t-106.5 -51.5t-116.5 -29.5t-118 -11.5q-41 -2 -74 -2h-30q-42 2 -81 6q1 -81 46.5 -122.5t125.5 -41.5q75 0 183.5 32.5t170.5 78.5 l41 -201q-73 -53 -181 -80.5t-226 -27.5q-235 0 -347 120q-82 89 -82 238q0 54 11 115zM408 508q91 1 157 10.5t99.5 21t53.5 31t24.5 31.5t7.5 31q1 7 1 14q0 28 -16 50q-20 28 -73 28q-181 0 -254 -217z" />
<glyph unicode="f" horiz-adv-x="1054" d="M84 -512l205 1157q5 35 -13 47q-39 23 -39 72q0 13 3 29q11 70 71 96q10 6 17.5 18.5t9.5 21.5l2 9l35 199q34 192 148 295.5t300 103.5q87 0 149 -29.5t91 -74t39 -96.5q7 -30 7 -59q0 -20 -3 -39q-8 -47 -27 -79q-32 -62 -90 -89q-34 -15 -66 -15q-22 0 -44 8 q-35 14 -43 59q-2 11 -2 21q0 36 22 76q12 19 12 35q0 15 -12 26q-23 23 -72 23q-103 0 -133 -166l-43 -236h359l-37 -215h-359l-211 -1198h-276z" />
<glyph unicode="g" horiz-adv-x="1351" d="M102 -451l39 228q141 -56 291 -56q242 0 281 226l37 213q-126 -180 -308 -180q-188 0 -274 120q-58 83 -58 216q0 62 13 135q41 233 170 352t332 119q191 0 276 -105q56 69 143 93q44 12 93 12q46 0 96 -11q67 -13 93 -53q13 -21 13 -47q0 -23 -10 -49q-19 -47 -63 -70 q-26 -13 -51 -13q-18 0 -35 7q-32 13 -47 6t-21 -41l-125 -704q-34 -199 -191 -319t-403 -120q-152 0 -291 41zM397 451q-11 -62 -11 -110q0 -167 134 -167q63 0 126 65.5t106.5 154.5t68.5 184l13 65q-43 82 -162 82q-110 0 -180.5 -68.5t-94.5 -205.5z" />
<glyph unicode="h" horiz-adv-x="1402" d="M172 0l221 1264q6 34 -6 40.5t-49 -6.5q-20 -7 -38 -7q-25 0 -46 13q-37 23 -39 70v5q-1 53 37 92q40 40 113 53q54 11 100 11q92 0 150 -43q66 -48 66 -151q0 -33 -7 -71l-105 -592q143 244 340 244q148 0 208 -92q40 -61 40 -156q0 -47 -10 -103l-57 -323q-6 -34 6 -40 t49 7q19 6 36 6q27 0 49 -14q38 -23 38 -70q0 -56 -38.5 -95t-109.5 -52q-57 -12 -104 -12q-90 0 -146 42q-65 48 -66 151q0 33 7 73l55 319q3 20 4.5 32.5t2.5 32.5t-2 32.5t-10 25.5t-20.5 19t-33.5 6q-56 0 -125.5 -91.5t-122.5 -211.5t-76 -224l-10 -55l-22 -129h-279z " />
<glyph unicode="i" horiz-adv-x="735" d="M143 246l115 655h277l-115 -651q-6 -34 7 -40t48 7q19 6 36 6q27 0 49 -14q38 -23 38 -70v-8q0 -51 -36 -87q-39 -40 -111 -52q-57 -12 -104 -12q-89 0 -146 42q-65 48 -65 151q0 34 7 73zM309 1237l23 133q9 46 56.5 75.5t111.5 29.5q62 1 99 -31q30 -25 30 -64 q0 -9 -2 -20q-10 -55 -54 -89t-106 -34h-158z" />
<glyph unicode="j" horiz-adv-x="743" d="M-74 -352q19 47 64 70q28 14 54 14q17 0 34 -6q30 -14 45.5 -8t21.5 40l201 1143h277l-203 -1147q-28 -160 -136 -224q-71 -42 -161 -42q-47 0 -100 12q-67 13 -92 52q-14 22 -14 49q0 22 9 47zM395 1237l23 133q9 46 56.5 75.5t111.5 29.5q62 0 99 -31q30 -26 30 -64 q0 -10 -2 -20q-10 -55 -54 -89t-106 -34h-158z" />
<glyph unicode="k" horiz-adv-x="1388" d="M170 0l221 1264q6 34 -6 40.5t-49 -6.5q-20 -7 -38 -7q-25 0 -46 13q-37 23 -39 70v6q0 53 37 91q39 40 112 53q54 11 100 11q92 0 150 -43q66 -48 67 -151q0 -33 -7 -71l-119 -676h170q67 56 117 156.5t53 195.5h291q-3 -135 -77.5 -250t-197.5 -184q31 -183 88 -281 q12 -20 36 -20q11 0 26 4q18 5 35 5q26 0 50 -14q38 -23 38 -69v-8q0 -50 -36 -86q-40 -39 -112 -53q-51 -10 -92 -10q-56 0 -95 18q-68 32 -106 123q-43 98 -71 262h-156l-65 -383h-279z" />
<glyph unicode="l" horiz-adv-x="735" d="M143 244l217 1231h277l-215 -1227q-6 -34 7 -40t48 7q19 6 36 6q27 0 49 -14q38 -23 38 -70v-8q0 -50 -36 -86q-39 -39 -111 -53q-57 -12 -105 -12q-90 0 -146 42q-66 48 -66 152q0 33 7 72z" />
<glyph unicode="m" horiz-adv-x="1947" d="M135 762v5q-1 53 37 91q40 40 113 53q54 10 99 11q82 0 138 -34q78 -48 79 -162q0 -12 -1 -24q130 220 315 220q229 0 232 -232q135 232 323 232q233 0 233 -235q0 -52 -11 -116l-58 -323q-6 -34 6.5 -40t49.5 7q19 6 36 6q26 0 49 -14q37 -23 37 -70q0 -56 -38 -95 t-109 -52q-57 -12 -104 -12q-91 0 -147 42q-65 48 -65 151q0 33 7 73l55 319q8 51 8 83q0 22 -4 34q-11 31 -47 31q-51 0 -110.5 -76.5t-104.5 -178.5t-74 -208l-43 -248h-278l98 563q8 51 8 83q0 22 -4 34q-11 31 -47 31q-55 0 -118.5 -87t-110.5 -201.5t-72 -221.5 l-12 -72l-23 -129h-278l114 651q6 34 -6 41t-49 -6q-20 -7 -38 -7q-25 0 -46 13q-37 23 -39 70z" />
<glyph unicode="n" horiz-adv-x="1402" d="M104 762v5q0 53 38 91q40 40 112 53q54 11 100 11q86 0 144 -38q73 -49 72 -157q0 -22 -3 -47q142 242 338 242q148 0 208 -92q40 -61 40 -156q0 -47 -10 -103l-58 -323q-6 -34 6.5 -40t49.5 7q19 6 36 6q27 0 49 -14q38 -23 38 -70q0 -56 -38.5 -95t-109.5 -52 q-57 -12 -104 -12q-90 0 -146 42q-65 48 -66 151q0 33 7 73l55 319q3 20 4.5 32.5t2.5 32.5t-2 32.5t-10 25.5t-20.5 19t-33.5 6q-56 0 -125.5 -91t-122.5 -211t-76 -223l-10 -57l-23 -129h-278l115 651q6 34 -6.5 41t-49.5 -6q-20 -7 -38 -7q-25 0 -46 13q-37 23 -39 70z " />
<glyph unicode="o" horiz-adv-x="1200" d="M119 453q41 233 184.5 351t376.5 118q230 0 332 -118q72 -84 73 -226q0 -58 -12 -125q-41 -234 -184.5 -353.5t-374.5 -119.5q-232 0 -334 120q-73 85 -73 228q0 58 12 125zM391 453q-15 -64 -15 -114q0 -57 20 -93q36 -68 136 -68q201 0 265 275q15 65 15 114 q0 158 -155 158q-202 0 -266 -272z" />
<glyph unicode="p" horiz-adv-x="1366" d="M109 -512l206 1163q6 34 -7 41t-48 -6q-20 -7 -38 -7q-25 0 -46 13q-38 23 -41 70q0 58 38.5 97t111.5 52q54 11 100 11q76 0 129 -30q86 -47 86 -169q130 199 320 199q188 0 273 -120q57 -81 57 -212q0 -64 -13 -139q-41 -233 -169 -352t-331 -119q-166 0 -250 75 l-100 -567h-278zM524 264q40 -88 166 -88q110 0 179 69t94 206q11 61 11 109q0 167 -134 167q-69 0 -138.5 -78.5t-115 -183t-62.5 -201.5z" />
<glyph unicode="q" horiz-adv-x="1366" d="M115 451q41 233 169.5 352t331.5 119q195 0 281 -109q56 72 143 96q46 13 96 13q46 0 95 -11q68 -13 93 -52q13 -21 13 -48q0 -22 -10 -49q-20 -47 -65 -70q-27 -13 -51 -13q-18 0 -35 7q-31 13 -46 6t-22 -41l-215 -1163h-279l123 668q-126 -176 -303 -176 q-188 0 -274 120q-58 83 -58 216q0 62 13 135zM389 451q-11 -62 -11 -110q0 -167 134 -167q52 0 106 46t95 116.5t71 150t43 150.5q-40 88 -163 88q-110 0 -180.5 -68.5t-94.5 -205.5z" />
<glyph unicode="r" horiz-adv-x="1181" d="M135 762v6q1 42 25 74q26 34 69 50t83 23t77 7q105 0 161 -58q47 -49 48 -138q0 -16 -2 -34q130 230 309 230q58 0 108 -16.5t87 -51.5q38 -34 50 -88q4 -21 4 -45q0 -38 -11 -84q-19 -69 -69 -105q-44 -32 -98 -33q-7 0 -15 1q-45 4 -70 44q-14 22 -14 47q0 22 10 46 q4 11 4 22q0 22 -17 41q-19 22 -47 22q-10 0 -20 -3q-49 -13 -112 -103t-112.5 -206t-72.5 -215l-10 -66l-23 -129h-276l114 651q6 34 -7 40t-50 -7q-18 -6 -35 -6q-26 0 -49 14q-38 23 -39 70z" />
<glyph unicode="s" horiz-adv-x="1138" d="M88 231q12 64 53.5 101t104.5 37q52 0 85 -32q21 -21 21 -49q0 -15 -6 -32q-3 -7 -3 -13q0 -25 41 -43q51 -24 114 -24q79 0 128.5 27.5t57.5 68.5q5 29 -23 48t-76 30.5t-106.5 22t-116 29t-102.5 45.5q-46 27 -68 77q-15 32 -14 72q0 21 4 45q24 134 151 207.5 t304 73.5q132 0 233.5 -33t145.5 -90l-146 -181q-94 111 -274 111q-52 0 -91 -23t-44 -55q-4 -25 17 -42.5t59.5 -27.5t88 -21.5t101.5 -22.5t99.5 -33t83.5 -50t52 -76q10 -28 9 -61q0 -22 -4 -47q-13 -74 -64 -132t-122.5 -91t-148.5 -50t-153 -17q-59 0 -115 7t-112.5 25 t-95.5 46t-59 72q-13 29 -13 62q0 19 4 39z" />
<glyph unicode="t" horiz-adv-x="1075" d="M219 795q6 37 23.5 59t50.5 41q13 7 21.5 19t11.5 20l2 8l51 295h256l-60 -336h392l-37 -215h-379l-53 -309q-7 -37 -6 -66q0 -100 79 -100q49 0 81 23q24 18 24 45q0 8 -2 16q-4 16 -4 32q0 31 16 63q24 46 64 61q24 8 47 8q32 0 61 -16q50 -27 60 -89q4 -27 4 -55 q0 -29 -12 -63q-12 -36 -30 -72t-51.5 -69t-74 -58.5t-99.5 -41t-127 -15.5q-187 0 -264 103q-53 71 -53 185q0 50 10 109l47 272q6 35 -10 49q-41 20 -41 71q0 12 2 26z" />
<glyph unicode="u" horiz-adv-x="1433" d="M137 764q0 56 38.5 95t109.5 52q57 12 104 12q91 0 147 -42q65 -48 65 -151q0 -33 -7 -73l-55 -319q-3 -20 -4.5 -32.5t-2.5 -32.5t2 -32.5t10 -25.5t20.5 -19t33.5 -6q55 0 123.5 90t121.5 208.5t77 222.5l12 61l22 129h279l-115 -651q-6 -34 7.5 -41t48.5 6q20 7 38 7 q24 0 46 -13q36 -23 38 -70v-6q0 -53 -36 -91q-38 -40 -111 -52q-56 -11 -103 -11q-87 -1 -143 37q-72 48 -72 157q0 23 3 48q-138 -241 -338 -241q-148 0 -208 92q-40 61 -40 155q0 47 10 103l57 323q6 34 -6 40t-49 -7q-19 -6 -36 -6q-28 0 -50 14q-38 23 -37 70z" />
<glyph unicode="v" horiz-adv-x="1318" d="M150 762v8q0 51 36 87q40 39 113 52q56 12 103 12q90 0 146 -42q65 -48 65 -151q0 -33 -7 -73l-78 -440q-3 -14 3.5 -22.5t21.5 -8.5q56 0 110.5 33.5t95.5 89.5t74.5 129.5t49.5 153.5q15 80 19 160q1 13 1 24q0 67 -16 127h287q14 -58 14 -127.5t-12 -145t-40 -153 t-67.5 -149.5t-98 -135t-128 -110t-160.5 -74t-193 -27q-140 0 -197 69q-42 50 -42 125q0 28 6 59l74 418q6 34 -7.5 40t-50.5 -7q-18 -6 -35 -6q-27 0 -49 14q-38 23 -38 70z" />
<glyph unicode="w" horiz-adv-x="1814" d="M137 762v8q0 51 37 87q40 39 113 52q57 13 104 13q115 0 171 -68q39 -47 39 -126q0 -34 -7 -73l-78 -440q-3 -13 3 -22t18 -9q69 0 135.5 63.5t113 164.5t66.5 215l49 274h262l-47 -266l-74 -420q-3 -13 3 -22t18 -9q52 0 102 37t87.5 98t68.5 138t45 157q15 78 19 154 q1 14 1 29q0 58 -14 104h281q14 -59 14 -122q-1 -13 -1 -26q-4 -77 -18.5 -155t-47.5 -154t-74.5 -145t-99 -127t-121.5 -101t-141.5 -67t-159.5 -24q-183 0 -183 168v18q-134 -186 -344 -186q-132 0 -193 70q-45 52 -45 128q0 26 5 55l73 418q6 34 -7 40t-50 -7 q-18 -6 -35 -6q-26 0 -49 14q-38 23 -39 70z" />
<glyph unicode="x" horiz-adv-x="1198" d="M23 0l434 457l-131 221q-7 13 -35 13.5t-51 -7.5q-20 -7 -37 -7q-32 0 -54 23q-26 27 -26 67q0 12 2 24q6 37 31.5 64.5t61 41t69.5 19.5t67 6q133 0 187 -101l84 -162l194 242h338l-416 -457l129 -221q7 -11 34 -12.5t50 6.5q20 7 38 7q32 0 54 -23q27 -28 27 -68 q0 -11 -2 -22q-6 -37 -31.5 -64.5t-61 -41t-69.5 -19.5t-67 -6q-139 0 -189 100l-86 170l-219 -250h-325z" />
<glyph unicode="y" horiz-adv-x="1333" d="M127 764q0 56 38 95t109 52q57 12 105 12q89 0 146 -42q66 -48 66 -152q0 -33 -7 -72l-56 -319q-5 -31 -6.5 -50.5t1.5 -45t19.5 -39t45.5 -13.5q56 0 125 90.5t121 209.5t77 223l11 55v4l22 129h279l-168 -954q-34 -199 -193 -319t-405 -120q-152 0 -291 41l39 228 q141 -56 291 -56q241 0 280 226l47 274q-138 -241 -338 -241q-148 0 -207 92q-40 60 -40 155q0 47 10 103l57 323q6 34 -6 40t-49 -7q-19 -6 -36 -6q-27 0 -50 14q-37 23 -37 70z" />
<glyph unicode="z" horiz-adv-x="1128" d="M90 149q13 60 64 103l518 432h-471l39 217h688q62 -1 92 -47q20 -31 20 -68q0 -20 -5 -40q-15 -62 -68 -103l-537 -428h277q162 0 219 -73q31 -40 31 -96q0 -46 -21 -103q-38 -99 -145 -99q-40 0 -63 34q-15 23 -15 48q0 13 4 27q6 21 -5 34t-40 13h-473q-63 0 -93 44 q-20 31 -20 70q0 17 4 35z" />
<glyph unicode="{" horiz-adv-x="884" d="M86 492l39 217q81 0 157.5 67.5t96.5 181.5l65 371q18 104 119.5 181t210.5 77h144l-33 -190h-131q-28 0 -55 -21t-31 -47l-72 -405q-10 -61 -35.5 -113t-55 -84.5t-64 -57.5t-60 -36.5t-45.5 -16.5l-6 -32q19 -5 40 -17t47.5 -36t42.5 -58t25.5 -84t-4.5 -113l-71 -405 q-4 -26 15.5 -47t47.5 -21h131l-35 -190h-143q-110 0 -184 77t-56 181l66 371q20 114 -32.5 182t-133.5 68z" />
<glyph unicode="|" horiz-adv-x="512" d="M68 -20l274 1556h205l-275 -1556h-204z" />
<glyph unicode="}" horiz-adv-x="884" d="M8 -387l35 190h131q28 0 54 21t30 47l72 405q14 75 48.5 135.5t77 95t76 52.5t60.5 25l6 32q-25 7 -52.5 25t-57.5 52.5t-43.5 95t-0.5 135.5l72 405q4 26 -14.5 47t-46.5 21h-131l32 190h144q109 0 183 -77t56 -181l-65 -371q-20 -114 33.5 -181.5t134.5 -67.5l-39 -217 q-51 0 -103 -27.5t-95.5 -86.5t-57.5 -136l-66 -371q-18 -104 -119 -181t-210 -77h-144z" />
<glyph unicode="~" horiz-adv-x="1101" d="M10 432q59 83 156 145t194 62q53 0 112.5 -23t103.5 -50.5t97 -50.5t95 -23q57 0 104.5 36t96.5 101l106 -148q-57 -83 -154 -145t-194 -62q-54 0 -113.5 24t-103.5 52t-97 52t-94 24q-93 0 -202 -141z" />
<glyph unicode="&#xa1;" horiz-adv-x="561" d="M88 0l174 997h230l-175 -997h-229zM262 1323q12 66 67 109t128 43t113 -43t28 -109q-11 -64 -66.5 -108t-128.5 -44q-72 0 -112 44t-29 108z" />
<glyph unicode="&#xa2;" horiz-adv-x="1177" d="M117 453q36 213 160 329.5t325 135.5l29 167h176l-31 -172q118 -17 197.5 -76t79.5 -163q0 -45 -18.5 -90.5t-50 -78.5t-73 -47.5t-88.5 3.5q-36 14 -44.5 60.5t24.5 94.5q24 35 -17 68q-52 41 -122 41q-204 0 -273 -272q-36 -135 7.5 -205t148.5 -70q75 0 183.5 32.5 t170.5 78.5l41 -201q-125 -88 -330 -104l-28 -168h-176l28 170q-187 24 -271 142t-48 325z" />
<glyph unicode="&#xa3;" horiz-adv-x="1191" d="M59 0l39 227h209l25 142h-164l33 186h164l8 39q33 191 146 294t300 103q210 0 268 -155q27 -67 -18.5 -128t-114.5 -61q-35 0 -62.5 21t-39.5 55q-13 37 -72 37q-103 0 -131 -166l-8 -39h209l-33 -186h-209l-24 -142h385l-39 -227h-871z" />
<glyph unicode="&#xa4;" horiz-adv-x="1097" d="M113 223l94 94q-64 103 -64 218q0 116 64 219l-94 94l123 123l94 -94q97 63 219 63t219 -63l94 94l123 -123l-94 -94q63 -102 63 -219q0 -116 -63 -218l94 -94l-123 -125l-94 97q-98 -64 -219 -64q-116 -3 -219 64l-94 -97zM328 535q0 -90 64 -152.5t157 -67.5 q89 0 155 64.5t66 155.5q0 89 -65 155t-156 66q-89 0 -155 -64.5t-66 -156.5z" />
<glyph unicode="&#xa5;" horiz-adv-x="1204" d="M141 303l33 195h209l-225 403h319l137 -323l242 323h334l-363 -403h211l-32 -195h-293l-54 -303h-276l53 303h-295z" />
<glyph unicode="&#xa6;" horiz-adv-x="462" d="M41 -20l102 583h205l-102 -583h-205zM213 956l102 580h205l-102 -580h-205z" />
<glyph unicode="&#xa7;" horiz-adv-x="1122" d="M102 180l170 164q63 -172 217 -172q77 0 131 29.5t62 70.5q8 52 -43 80l-414 219l37 209l557 -297q127 -65 103 -209q-13 -77 -58.5 -136t-111 -92.5t-140 -49.5t-155.5 -16q-132 0 -228.5 52.5t-126.5 147.5zM301 1114q19 101 84.5 173t154 105t191.5 33q72 0 136.5 -16 t116 -47.5t76 -86.5t11.5 -126q-11 -64 -51.5 -100.5t-104.5 -36.5q-49 0 -73.5 32.5t-7.5 83.5q15 43 -26 74t-106 31q-77 0 -123 -32.5t-55 -86.5q-9 -57 41 -84l389 -207l-36 -209l-517 275q-60 31 -86.5 89.5t-13.5 135.5z" />
<glyph unicode="&#xa8;" horiz-adv-x="894" d="M338 1767q8 51 53 86t103 35q59 0 90.5 -34.5t23.5 -86.5q-9 -51 -53 -84.5t-104 -33.5q-58 0 -90 33.5t-23 84.5zM737 1767q8 51 53 86t103 35q59 0 91 -34.5t24 -86.5q-9 -51 -53.5 -84.5t-104.5 -33.5q-58 0 -90 33.5t-23 84.5z" />
<glyph unicode="&#xa9;" horiz-adv-x="1712" d="M158 569q-7 180 55 349t173.5 296t275 204t348.5 77q289 0 457.5 -160t177.5 -430q5 -144 -33 -282t-114.5 -253.5t-181 -203.5t-240 -137t-283.5 -49q-289 0 -458 159.5t-177 429.5zM346 602q0 -208 120 -331.5t331 -123.5q117 0 222.5 41.5t184 112.5t136 163.5t87 197 t29.5 210.5q0 208 -119.5 331.5t-330.5 123.5q-117 0 -222.5 -41.5t-184 -112.5t-136.5 -163.5t-87.5 -197t-29.5 -210.5zM483 610q-2 89 14.5 172t55.5 156t96 127t139.5 85.5t182.5 31.5q239 0 329 -150l-157 -139q-44 58 -84 82t-105 24q-64 0 -114 -32.5t-79 -85 t-44 -113t-15 -123.5q0 -170 158 -170q65 0 113 24t117 83l104 -142q-71 -72 -151 -109.5t-201 -37.5q-347 0 -359 317z" />
<glyph unicode="&#xaa;" horiz-adv-x="1157" d="M219 1092q35 196 154 295.5t313 99.5q195 0 283 -99.5t55 -293.5l-29 -162q-6 -29 4.5 -35t40.5 4q41 15 72.5 -4t34.5 -59q-2 -48 -34 -80.5t-93 -44.5q-195 -40 -250 73q-107 -90 -268 -90q-164 0 -240 101t-43 295zM451 1092q-20 -116 18.5 -174t130.5 -58 q101 0 164 72l29 162q40 229 -125 229q-84 0 -140 -58t-77 -173z" />
<glyph unicode="&#xab;" horiz-adv-x="1132" d="M106.5 551.5q8.5 44.5 36.5 77.5l244 293h256l-330 -383l191 -359h-242l-147 293q-17 34 -8.5 78.5zM590 551.5q9 44.5 37 77.5l243 293h256l-329 -383l190 -359h-242l-147 293q-17 34 -8 78.5z" />
<glyph unicode="&#xac;" horiz-adv-x="1228" d="M127 645l33 189h1036l-109 -621h-192l76 432h-844z" />
<glyph unicode="&#xad;" horiz-adv-x="780" d="M57 395l33 193h637l-33 -193h-637z" />
<glyph unicode="&#xae;" horiz-adv-x="1712" d="M147 569q-7 180 55 349t173.5 296t275 204t348.5 77q289 0 457.5 -160t177.5 -430q5 -144 -33 -282t-114.5 -253.5t-181 -203.5t-240 -137t-283.5 -49q-289 0 -458 159.5t-177 429.5zM336 602q0 -208 119.5 -331.5t330.5 -123.5q117 0 222.5 41.5t184 112.5t136.5 163.5 t87.5 197t29.5 210.5q0 208 -120 331.5t-331 123.5q-117 0 -222.5 -41.5t-184 -112.5t-136 -163.5t-87 -197t-29.5 -210.5zM522 315l135 770q6 37 37 63t68 26h235q139 0 210.5 -79t49.5 -206q-15 -86 -63.5 -152.5t-122.5 -101.5l86 -320h-201l-65 285h-133l-49 -285h-187z M786 766h111q71 0 116 33.5t54 89.5q9 57 -23 90t-102 33h-111z" />
<glyph unicode="&#xb0;" horiz-adv-x="815" d="M219 1065q15 122 112.5 207.5t223.5 85.5q124 0 196.5 -85.5t57.5 -207.5q-17 -126 -113.5 -211.5t-220.5 -85.5q-126 0 -199.5 85.5t-56.5 211.5zM375 1065q-9 -57 25.5 -100t91.5 -43t104.5 43t56.5 100q10 57 -22.5 97t-89.5 40t-106.5 -40t-59.5 -97z" />
<glyph unicode="&#xb1;" horiz-adv-x="1116" d="M86 92l33 184h809l-33 -184h-809zM178 614l33 185h305l47 264h199l-47 -264h305l-33 -185h-305l-47 -266h-199l47 266h-305z" />
<glyph unicode="&#xb2;" horiz-adv-x="884" d="M152 696l28 162q166 41 298 127.5t151 192.5q10 59 -27.5 88.5t-101.5 29.5q-54 0 -123 -21.5t-121 -45.5l35 188q141 58 284 58q62 0 114 -14t94 -44t60 -84t5 -127q-18 -107 -113.5 -203.5t-204.5 -128.5l82 7h144q38 0 58.5 -27t12.5 -66q-6 -37 -36 -64.5t-68 -27.5 h-571z" />
<glyph unicode="&#xb3;" horiz-adv-x="856" d="M172 719l33 176q90 -39 229 -39q148 3 162 76q7 38 -21.5 58t-111.5 20h-70l31 164h70q112 0 127 71q5 28 -20.5 47t-82.5 19q-145 0 -248 -41l29 164q125 41 236 41q158 0 247 -52t70 -157q-19 -119 -178 -158l-2 -12q77 -12 115.5 -61.5t25.5 -125.5 q-10 -59 -48.5 -103t-97 -68.5t-126.5 -36t-148 -11.5q-125 0 -221 29z" />
<glyph unicode="&#xb4;" horiz-adv-x="630" d="M317 1628l201 273l238 -25q-91 -136 -264 -270z" />
<glyph unicode="&#xb6;" horiz-adv-x="1275" d="M195 1001q40 229 203.5 356t449.5 118h397q34 0 55 -25t15 -59l-217 -1231h-236l193 1087h-246q-157 0 -239 -63t-103 -183q-20 -106 24.5 -172.5t161.5 -80.5q57 -8 87 -51t20 -103l-98 -551q-6 -33 12.5 -40t54.5 7q48 15 86 -8t39 -70q2 -56 -37 -95t-112 -52 q-160 -33 -230 29t-41 225l86 485q-202 30 -281 156.5t-44 320.5z" />
<glyph unicode="&#xb7;" horiz-adv-x="561" d="M166 776q12 64 67 108t127 44q73 0 113.5 -44t28.5 -108q-10 -66 -65.5 -108.5t-129.5 -42.5q-73 0 -112.5 42.5t-28.5 108.5z" />
<glyph unicode="&#xb8;" horiz-adv-x="651" d="M-43 -416l23 131q72 -28 147 -28q96 0 104 57q7 33 -34.5 44.5t-92.5 4.5q-42 -4 -55 19q-6 11 0 35t17 42l77 123h170l-71 -106q76 0 129 -43t39 -119q-9 -51 -39 -88t-74 -57t-90.5 -29.5t-97.5 -9.5q-91 0 -152 24z" />
<glyph unicode="&#xb9;" horiz-adv-x="782" d="M160 696l30 170h197l59 344q7 41 -9.5 67t-59.5 15q-41 -9 -67 8.5t-29 55.5q-2 44 33.5 77.5t103.5 39.5q57 5 102 -7t78.5 -42.5t44.5 -81.5t0 -125l-61 -351h157l-30 -170h-549z" />
<glyph unicode="&#xba;" horiz-adv-x="1026" d="M221 1085q29 199 146.5 299.5t312.5 100.5q194 0 282.5 -100.5t59.5 -299.5q-30 -201 -148.5 -303t-312.5 -102q-195 0 -282.5 102t-57.5 303zM442 1085q-42 -235 140 -235q179 0 221 235q43 234 -139 234q-179 0 -222 -234z" />
<glyph unicode="&#xbb;" horiz-adv-x="1132" d="M37 180l330 383l-191 359h242l147 -293q17 -34 8.5 -78.5t-36.5 -77.5l-244 -293h-256zM520 180l330 383l-191 359h242l148 -293q17 -34 8 -78.5t-37 -77.5l-244 -293h-256z" />
<glyph unicode="&#xbc;" horiz-adv-x="2037" d="M143 545l31 170h197l59 344q7 41 -10 67t-60 15q-41 -9 -67 8t-29 55q-2 44 33.5 77.5t103.5 39.5q124 10 187.5 -53t38.5 -203l-62 -350h158l-31 -170h-549zM377 0l1210 1341h238l-1211 -1341h-237zM1204.5 235q-18.5 53 22.5 105l354 444h221l-352 -432h195l26 148 q6 35 38 60.5t67 25.5t60 -26t19 -60l-26 -142h104l-30 -176h-105l-31 -182h-184l31 182h-332q-59 0 -77.5 53z" />
<glyph unicode="&#xbd;" horiz-adv-x="2131" d="M147 545l31 170h197l59 344q7 41 -9.5 67t-59.5 15q-41 -9 -67.5 8t-29.5 55q-2 44 34 77.5t104 39.5q57 5 102 -7t78.5 -42.5t44.5 -81.5t0 -125l-62 -350h158l-31 -170h-549zM383 0l1210 1341h238l-1210 -1341h-238zM1300 0l27 162q105 26 200 70t167.5 110.5 t85.5 138.5q10 59 -27.5 89t-101.5 30q-54 0 -125 -22t-123 -46l35 189q138 57 293 57q62 0 113.5 -14t93 -43.5t59 -83.5t4.5 -127q-18 -107 -116 -203.5t-208 -128.5l82 6h144q38 0 58.5 -26.5t12.5 -65.5q-6 -38 -35.5 -65t-66.5 -27h-572z" />
<glyph unicode="&#xbe;" horiz-adv-x="2000" d="M115 565l30 176q90 -39 232 -39q148 3 162 76q5 38 -22.5 58t-110.5 20h-70l29 164h69q63 0 93 22t34 50q5 29 -19 47t-81 18q-145 0 -248 -41l29 164q121 41 235 41q158 0 248.5 -52t71.5 -157q-19 -118 -179 -158l-2 -12q77 -12 116 -61t26 -125q-11 -59 -49.5 -103 t-97.5 -68.5t-127 -36t-148 -11.5q-128 0 -221 28zM340 0l1210 1341h238l-1210 -1341h-238zM1169.5 235q-18.5 53 22.5 105l354 444h221l-352 -432h195l26 148q6 35 38 60.5t67 25.5t60.5 -26t19.5 -60l-27 -142h104l-30 -176h-105l-30 -182h-185l31 182h-332 q-59 0 -77.5 53z" />
<glyph unicode="&#xbf;" horiz-adv-x="1009" d="M98 391q30 168 159 292t339 179l33 193h243l-18 -258q-7 -88 -102 -115q-349 -101 -385 -289q-11 -65 29.5 -111t133.5 -46q153 0 338 69l-45 -254q-184 -51 -329 -51q-210 0 -318.5 108.5t-77.5 282.5zM623 1323q12 66 66.5 109t127.5 43t113 -43t28 -109 q-11 -64 -66 -108t-128 -44q-72 0 -112 44t-29 108z" />
<glyph unicode="&#xc0;" d="M123 0l84 485q8 38 -10 50q-50 29 -39 96q11 71 71 100q11 5 19 17t10 21l2 9l31 183q43 241 204.5 387.5t393.5 146.5q237 0 357 -148t77 -386l-125 -711q-6 -34 7 -40t48 7q48 15 85.5 -8t37.5 -70q3 -55 -36 -94.5t-111 -52.5q-164 -34 -249.5 30t-57.5 224l47 270 h-480l-90 -516h-276zM530 743h480l37 218q25 136 -21.5 218.5t-155.5 82.5q-110 0 -194 -83.5t-109 -217.5zM690 1876l223 25l107 -273l-160 -22q-124 130 -170 270z" />
<glyph unicode="&#xc1;" d="M123 0l84 485q8 38 -10 50q-50 29 -39 96q11 71 71 100q11 5 19 17t10 21l2 9l31 183q43 241 204.5 387.5t393.5 146.5q237 0 357 -148t77 -386l-125 -711q-6 -34 7 -40t48 7q48 15 85.5 -8t37.5 -70q3 -55 -36 -94.5t-111 -52.5q-164 -34 -249.5 30t-57.5 224l47 270 h-480l-90 -516h-276zM530 743h480l37 218q25 136 -21.5 218.5t-155.5 82.5q-110 0 -194 -83.5t-109 -217.5zM780 1628l201 273l238 -25q-90 -135 -265 -270z" />
<glyph unicode="&#xc2;" d="M123 0l84 485q8 38 -10 50q-50 29 -39 96q11 71 71 100q11 5 19 17t10 21l2 9l31 183q43 241 204.5 387.5t393.5 146.5q237 0 357 -148t77 -386l-125 -711q-6 -34 7 -40t48 7q48 15 85.5 -8t37.5 -70q3 -55 -36 -94.5t-111 -52.5q-164 -34 -249.5 30t-57.5 224l47 270 h-480l-90 -516h-276zM530 743h480l37 218q25 136 -21.5 218.5t-155.5 82.5q-110 0 -194 -83.5t-109 -217.5zM623 1630q86 146 219 271h272q88 -120 125 -271l-203 -24l-78 186l-143 -186z" />
<glyph unicode="&#xc3;" d="M123 0l84 485q8 38 -10 50q-50 29 -39 96q11 71 71 100q11 5 19 17t10 21l2 9l31 183q43 241 204.5 387.5t393.5 146.5q237 0 357 -148t77 -386l-125 -711q-6 -34 7 -40t48 7q48 15 85.5 -8t37.5 -70q3 -55 -36 -94.5t-111 -52.5q-164 -34 -249.5 30t-57.5 224l47 270 h-480l-90 -516h-276zM530 743h480l37 218q25 136 -21.5 218.5t-155.5 82.5q-110 0 -194 -83.5t-109 -217.5zM541 1651q27 98 95 161.5t173 63.5q51 0 95.5 -16.5t69 -37t50 -37t43.5 -16.5q60 0 90 105l160 -43q-29 -99 -96 -162t-172 -63q-48 0 -89.5 16.5t-65 36.5 t-51.5 36.5t-52 16.5q-31 0 -55 -27.5t-36 -76.5z" />
<glyph unicode="&#xc4;" d="M123 0l84 485q8 38 -10 50q-50 29 -39 96q11 71 71 100q11 5 19 17t10 21l2 9l31 183q43 241 204.5 387.5t393.5 146.5q237 0 357 -148t77 -386l-125 -711q-6 -34 7 -40t48 7q48 15 85.5 -8t37.5 -70q3 -55 -36 -94.5t-111 -52.5q-164 -34 -249.5 30t-57.5 224l47 270 h-480l-90 -516h-276zM530 743h480l37 218q25 136 -21.5 218.5t-155.5 82.5q-110 0 -194 -83.5t-109 -217.5zM598 1767q8 51 53 86t103 35q59 0 90.5 -34.5t23.5 -86.5q-9 -51 -53 -84.5t-104 -33.5q-58 0 -90 33.5t-23 84.5zM997 1767q8 51 53 86t103 35q59 0 91 -34.5 t24 -86.5q-9 -51 -53.5 -84.5t-104.5 -33.5q-58 0 -90 33.5t-23 84.5z" />
<glyph unicode="&#xc5;" d="M123 0l84 485q8 38 -10 50q-50 29 -39 96q11 71 71 100q11 5 19 17t10 21l2 9l31 183q43 241 204.5 387.5t393.5 146.5q237 0 357 -148t77 -386l-125 -711q-6 -34 7 -40t48 7q48 15 85.5 -8t37.5 -70q3 -55 -36 -94.5t-111 -52.5q-164 -34 -249.5 30t-57.5 224l47 270 h-480l-90 -516h-276zM530 743h480l37 218q25 136 -21.5 218.5t-155.5 82.5q-110 0 -194 -83.5t-109 -217.5zM766 1772q9 74 69 126t136 52q73 0 117.5 -52t35.5 -126q-12 -76 -71 -128.5t-133 -52.5q-77 0 -121.5 52.5t-32.5 128.5zM872 1772q-5 -29 14 -51.5t48 -22.5 t54 22.5t30 51.5t-13 50t-47 21q-30 0 -56 -21t-30 -50z" />
<glyph unicode="&#xc6;" horiz-adv-x="1832" d="M123 0l84 485q8 38 -10 50q-50 29 -39 96q11 71 71 100q11 5 19 17t10 21l2 9l27 162q43 240 209 387.5t399 147.5h981l-39 -228h-537l-88 -504h365l-43 -227h-363l-45 -250q-2 -15 8 -27t25 -12h518l-39 -227h-579q-105 0 -167.5 75t-43.5 179l47 262h-406l-90 -516 h-276zM530 743h406l86 498h-166q-109 0 -188.5 -83t-104.5 -218z" />
<glyph unicode="&#xc7;" horiz-adv-x="1601" d="M152 573q0 188 65.5 357.5t178.5 293.5t275.5 197.5t346.5 73.5q55 0 114 -9t120 -26.5t115 -47t96.5 -66t67.5 -88t25 -109.5q0 -70 -32.5 -136t-93.5 -101t-130 -9q-34 13 -44.5 49t-1 74t29.5 61q24 40 -12 76q-95 99 -275 99q-102 0 -193 -38.5t-158 -103.5 t-116.5 -148.5t-74.5 -175.5t-25 -182q0 -184 100.5 -292.5t278.5 -108.5q135 0 268 62t226 163l141 -188q-119 -123 -279 -192.5t-340 -75.5l-49 -76q76 0 129 -43t39 -119q-9 -51 -39 -88t-74 -57t-90.5 -29.5t-97.5 -9.5q-89 0 -151 24l22 131q72 -28 148 -28 q96 0 104 57q7 33 -34.5 44.5t-92.5 4.5q-42 -4 -55 19q-5 13 0 36t16 41l62 101q-238 34 -374 189t-136 394z" />
<glyph unicode="&#xc8;" horiz-adv-x="1245" d="M178 631q11 70 72 100q11 5 19 17t10 21l2 9l106 613q6 34 35 59t63 25h803l-39 -228h-610l-88 -504h364l-43 -227h-362l-45 -250q-2 -15 8 -27t25 -12h592l-39 -227h-654q-105 0 -167.5 75t-43.5 179l41 231q8 38 -10 50q-50 29 -39 96zM631 1876l223 25l107 -273 l-160 -22q-124 130 -170 270z" />
<glyph unicode="&#xc9;" horiz-adv-x="1245" d="M178 631q11 70 72 100q11 5 19 17t10 21l2 9l106 613q6 34 35 59t63 25h803l-39 -228h-610l-88 -504h364l-43 -227h-362l-45 -250q-2 -15 8 -27t25 -12h592l-39 -227h-654q-105 0 -167.5 75t-43.5 179l41 231q8 38 -10 50q-50 29 -39 96zM741 1628l201 273l238 -25 q-90 -135 -265 -270z" />
<glyph unicode="&#xca;" horiz-adv-x="1245" d="M178 631q11 70 72 100q11 5 19 17t10 21l2 9l106 613q6 34 35 59t63 25h803l-39 -228h-610l-88 -504h364l-43 -227h-362l-45 -250q-2 -15 8 -27t25 -12h592l-39 -227h-654q-105 0 -167.5 75t-43.5 179l41 231q8 38 -10 50q-50 29 -39 96zM563 1630q86 146 219 271h273 q88 -120 125 -271l-203 -24l-78 186l-143 -186z" />
<glyph unicode="&#xcb;" horiz-adv-x="1245" d="M178 631q11 70 72 100q11 5 19 17t10 21l2 9l106 613q6 34 35 59t63 25h803l-39 -228h-610l-88 -504h364l-43 -227h-362l-45 -250q-2 -15 8 -27t25 -12h592l-39 -227h-654q-105 0 -167.5 75t-43.5 179l41 231q8 38 -10 50q-50 29 -39 96zM555 1767q8 51 53 86t103 35 q59 0 90.5 -34.5t23.5 -86.5q-9 -51 -53 -84.5t-104 -33.5q-58 0 -90 33.5t-23 84.5zM954 1767q8 51 53 86t103 35q59 0 91 -34.5t24 -86.5q-9 -51 -53.5 -84.5t-104.5 -33.5q-58 0 -90 33.5t-23 84.5z" />
<glyph unicode="&#xcc;" horiz-adv-x="727" d="M143 0l215 1225q6 34 -7 41t-48 -6q-47 -17 -85.5 5.5t-41.5 69.5q0 57 39 97t111 53q164 32 250.5 -32t58.5 -222l-215 -1231h-277zM240 1876l223 25l106 -273l-159 -22q-124 130 -170 270z" />
<glyph unicode="&#xcd;" horiz-adv-x="727" d="M143 0l215 1225q6 34 -7 41t-48 -6q-47 -17 -85.5 5.5t-41.5 69.5q0 57 39 97t111 53q164 32 250.5 -32t58.5 -222l-215 -1231h-277zM401 1628l201 273l238 -25q-90 -135 -265 -270z" />
<glyph unicode="&#xce;" horiz-adv-x="727" d="M143 0l215 1225q6 34 -7 41t-48 -6q-47 -17 -85.5 5.5t-41.5 69.5q0 57 39 97t111 53q164 32 250.5 -32t58.5 -222l-215 -1231h-277zM217 1630q86 146 219 271h273q88 -120 125 -271l-203 -24l-78 186l-143 -186z" />
<glyph unicode="&#xcf;" horiz-adv-x="727" d="M143 0l215 1225q6 34 -7 41t-48 -6q-47 -17 -85.5 5.5t-41.5 69.5q0 57 39 97t111 53q164 32 250.5 -32t58.5 -222l-215 -1231h-277zM203 1767q8 51 52.5 86t102.5 35q59 0 91 -34.5t24 -86.5q-9 -51 -53.5 -84.5t-104.5 -33.5q-58 0 -89.5 33.5t-22.5 84.5zM602 1767 q8 51 53 86t103 35q59 0 90.5 -34.5t23.5 -86.5q-9 -51 -53 -84.5t-104 -33.5q-58 0 -90 33.5t-23 84.5z" />
<glyph unicode="&#xd0;" horiz-adv-x="1531" d="M55 618l35 201h195l67 379q6 45 -14 55q-64 38 -49 115q10 51 47.5 79t89.5 28h434q216 0 365 -93t208.5 -260.5t20.5 -384.5q-39 -218 -152.5 -384t-291 -259.5t-392.5 -93.5h-223q-105 0 -167.5 75t-43.5 179l66 364h-195zM463 266q-2 -15 8 -27t25 -12h145 q203 0 353 141.5t190 368.5q40 230 -52 370t-294 140h-201l-76 -428h260l-35 -201h-260z" />
<glyph unicode="&#xd1;" horiz-adv-x="1638" d="M221 0l215 1225q6 34 -7 41t-48 -6q-47 -17 -84.5 5.5t-40.5 69.5q0 57 39 97t111 53q164 32 250.5 -32t58.5 -222l-37 -213q42 98 91 179t109 150t132 108t147 40q181 1 248 -114.5t33 -307.5l-146 -823q-6 -34 7.5 -40t48.5 7q48 15 85 -8t37 -70q3 -55 -36 -94.5 t-111 -52.5q-164 -34 -249.5 30t-57.5 224l147 839q11 64 12 111.5t-19.5 74.5t-63.5 27q-65 0 -148 -97t-157 -243.5t-137.5 -319.5t-94.5 -325l-55 -313h-279zM614 1651q27 98 95 161.5t174 63.5q51 0 95.5 -16.5t69 -37t50 -37t43.5 -16.5q60 0 90 105l160 -43 q-29 -99 -96.5 -162t-172.5 -63q-48 0 -89.5 16.5t-65 36.5t-51.5 36.5t-52 16.5q-31 0 -54.5 -27.5t-35.5 -76.5z" />
<glyph unicode="&#xd2;" horiz-adv-x="1712" d="M147 569q0 150 41.5 289.5t119.5 254.5t183 201t240.5 133.5t284.5 47.5q290 0 460.5 -161t170.5 -429q0 -187 -65.5 -357t-178.5 -295t-276 -199t-349 -74q-290 0 -460.5 160.5t-170.5 428.5zM428 610q0 -183 97.5 -290t273.5 -107q103 0 194.5 38.5t158.5 104 t116 149.5t73.5 176t24.5 183q0 183 -97.5 290.5t-273.5 107.5q-103 0 -194.5 -39t-158.5 -104t-116 -149t-73.5 -176.5t-24.5 -183.5zM821 1876l223 25l107 -273l-160 -22q-124 130 -170 270z" />
<glyph unicode="&#xd3;" horiz-adv-x="1712" d="M147 569q0 150 41.5 289.5t119.5 254.5t183 201t240.5 133.5t284.5 47.5q290 0 460.5 -161t170.5 -429q0 -187 -65.5 -357t-178.5 -295t-276 -199t-349 -74q-290 0 -460.5 160.5t-170.5 428.5zM428 610q0 -183 97.5 -290t273.5 -107q103 0 194.5 38.5t158.5 104 t116 149.5t73.5 176t24.5 183q0 183 -97.5 290.5t-273.5 107.5q-103 0 -194.5 -39t-158.5 -104t-116 -149t-73.5 -176.5t-24.5 -183.5zM909 1628l201 273l238 -25q-90 -135 -265 -270z" />
<glyph unicode="&#xd4;" horiz-adv-x="1712" d="M147 569q0 150 41.5 289.5t119.5 254.5t183 201t240.5 133.5t284.5 47.5q290 0 460.5 -161t170.5 -429q0 -187 -65.5 -357t-178.5 -295t-276 -199t-349 -74q-290 0 -460.5 160.5t-170.5 428.5zM428 610q0 -183 97.5 -290t273.5 -107q103 0 194.5 38.5t158.5 104 t116 149.5t73.5 176t24.5 183q0 183 -97.5 290.5t-273.5 107.5q-103 0 -194.5 -39t-158.5 -104t-116 -149t-73.5 -176.5t-24.5 -183.5zM762 1630q86 146 219 271h272q88 -120 125 -271l-202 -24l-78 186l-144 -186z" />
<glyph unicode="&#xd5;" horiz-adv-x="1712" d="M147 569q0 150 41.5 289.5t119.5 254.5t183 201t240.5 133.5t284.5 47.5q290 0 460.5 -161t170.5 -429q0 -187 -65.5 -357t-178.5 -295t-276 -199t-349 -74q-290 0 -460.5 160.5t-170.5 428.5zM428 610q0 -183 97.5 -290t273.5 -107q103 0 194.5 38.5t158.5 104 t116 149.5t73.5 176t24.5 183q0 183 -97.5 290.5t-273.5 107.5q-103 0 -194.5 -39t-158.5 -104t-116 -149t-73.5 -176.5t-24.5 -183.5zM684 1651q27 98 95 161.5t173 63.5q51 0 95.5 -16.5t69 -37t50 -37t43.5 -16.5q60 0 90 105l160 -43q-29 -99 -96 -162t-172 -63 q-48 0 -89.5 16.5t-65 36.5t-51.5 36.5t-52 16.5q-31 0 -54.5 -27.5t-35.5 -76.5z" />
<glyph unicode="&#xd6;" horiz-adv-x="1712" d="M147 569q0 150 41.5 289.5t119.5 254.5t183 201t240.5 133.5t284.5 47.5q290 0 460.5 -161t170.5 -429q0 -187 -65.5 -357t-178.5 -295t-276 -199t-349 -74q-290 0 -460.5 160.5t-170.5 428.5zM428 610q0 -183 97.5 -290t273.5 -107q103 0 194.5 38.5t158.5 104 t116 149.5t73.5 176t24.5 183q0 183 -97.5 290.5t-273.5 107.5q-103 0 -194.5 -39t-158.5 -104t-116 -149t-73.5 -176.5t-24.5 -183.5zM750 1767q8 51 52.5 86t102.5 35q59 0 91 -34.5t24 -86.5q-9 -51 -53.5 -84.5t-104.5 -33.5q-58 0 -89.5 33.5t-22.5 84.5zM1149 1767 q8 51 53 86t103 35q59 0 90.5 -34.5t23.5 -86.5q-9 -51 -53 -84.5t-104 -33.5q-58 0 -90 33.5t-23 84.5z" />
<glyph unicode="&#xd7;" horiz-adv-x="1021" d="M66 223l307 262l-219 269l153 129l219 -269l314 269l123 -150l-314 -266l215 -262l-155 -127l-213 258l-308 -260z" />
<glyph unicode="&#xd8;" horiz-adv-x="1712" d="M147 569q0 150 41.5 289.5t119.5 254.5t183 201t240.5 133.5t284.5 47.5q111 0 221 -29l102 176l134 -57l-101 -174q131 -74 203 -205t72 -301q0 -187 -65.5 -357t-178.5 -295t-276 -199t-349 -74q-108 0 -215 26l-104 -180l-135 57l102 178q-134 72 -206.5 203.5 t-72.5 304.5zM428 610q0 -214 129 -321l553 958q-66 15 -115 15q-103 0 -194.5 -39t-158.5 -104t-116 -149t-73.5 -176.5t-24.5 -183.5zM690 225q49 -12 109 -12q103 0 194.5 38.5t158.5 104t116 149.5t73.5 176t24.5 183q0 210 -127 318z" />
<glyph unicode="&#xd9;" d="M236 1335q-2 56 37.5 95.5t111.5 52.5q164 34 249.5 -30t57.5 -224l-125 -715q-25 -134 26 -217.5t161 -83.5q109 0 188.5 83t104.5 218l167 961h277l-168 -961q-43 -239 -209 -386.5t-399 -147.5q-236 0 -351.5 147.5t-72.5 386.5l125 711q6 34 -7 40t-49 -8 q-48 -15 -85.5 8t-38.5 70zM709 1876l223 25l106 -273l-159 -22q-124 130 -170 270z" />
<glyph unicode="&#xda;" d="M236 1335q-2 56 37.5 95.5t111.5 52.5q164 34 249.5 -30t57.5 -224l-125 -715q-25 -134 26 -217.5t161 -83.5q109 0 188.5 83t104.5 218l167 961h277l-168 -961q-43 -239 -209 -386.5t-399 -147.5q-236 0 -351.5 147.5t-72.5 386.5l125 711q6 34 -7 40t-49 -8 q-48 -15 -85.5 8t-38.5 70zM834 1628l200 273l238 -25q-91 -136 -264 -270z" />
<glyph unicode="&#xdb;" d="M236 1335q-2 56 37.5 95.5t111.5 52.5q164 34 249.5 -30t57.5 -224l-125 -715q-25 -134 26 -217.5t161 -83.5q109 0 188.5 83t104.5 218l167 961h277l-168 -961q-43 -239 -209 -386.5t-399 -147.5q-236 0 -351.5 147.5t-72.5 386.5l125 711q6 34 -7 40t-49 -8 q-48 -15 -85.5 8t-38.5 70zM653 1630q86 146 219 271h273q88 -120 125 -271l-203 -24l-78 186l-143 -186z" />
<glyph unicode="&#xdc;" d="M236 1335q-2 56 37.5 95.5t111.5 52.5q164 34 249.5 -30t57.5 -224l-125 -715q-25 -134 26 -217.5t161 -83.5q109 0 188.5 83t104.5 218l167 961h277l-168 -961q-43 -239 -209 -386.5t-399 -147.5q-236 0 -351.5 147.5t-72.5 386.5l125 711q6 34 -7 40t-49 -8 q-48 -15 -85.5 8t-38.5 70zM627 1767q8 51 52.5 86t102.5 35q59 0 91 -34.5t24 -86.5q-9 -51 -53.5 -84.5t-104.5 -33.5q-58 0 -89.5 33.5t-22.5 84.5zM1026 1767q8 51 53 86t103 35q59 0 90.5 -34.5t23.5 -86.5q-9 -51 -53 -84.5t-104 -33.5q-58 0 -90 33.5t-23 84.5z" />
<glyph unicode="&#xdd;" horiz-adv-x="1351" d="M176 1337q3 57 40.5 96t109.5 52q234 46 297 -131l131 -361l348 482h344l-590 -775l-123 -700h-276l123 698l-211 510q-13 33 -31.5 46.5t-48.5 5.5q-48 -14 -82.5 8.5t-30.5 68.5zM731 1628l201 273l237 -25q-91 -136 -264 -270z" />
<glyph unicode="&#xde;" horiz-adv-x="1265" d="M100 0l258 1475h279l-59 -342q112 75 276 75q203 0 289 -119t45 -352t-170 -352t-332 -119q-159 0 -248 74l-59 -340h-279zM475 549q41 -86 164 -86q110 0 179.5 68.5t94.5 205.5t-20.5 206t-155.5 69q-126 0 -196 -88z" />
<glyph unicode="&#xdf;" horiz-adv-x="1261" d="M102 0l189 1071q30 173 170.5 288.5t337.5 115.5q217 0 313 -124.5t66 -336.5q-12 -69 -39.5 -129t-63 -102.5t-67.5 -70.5t-66 -48q104 -27 150.5 -106.5t25.5 -205.5q-28 -158 -137.5 -255t-265.5 -97h-256l39 227h172q57 0 108 37t62 107q13 68 -25.5 107.5 t-107.5 39.5q-62 0 -96 36t-25 91q7 41 36.5 73.5t71.5 47.5q169 62 203 246q18 105 -16.5 166t-122.5 61q-68 0 -122.5 -46t-66.5 -116l-188 -1077h-279z" />
<glyph unicode="&#xe0;" horiz-adv-x="1351" d="M121 451q41 233 184 352t375 119q231 0 333.5 -118.5t61.5 -350.5l-35 -203q-6 -34 6.5 -41t49.5 6q47 17 84 -6t39 -70q2 -57 -37 -96.5t-111 -52.5q-145 -27 -229 18t-84 166q-129 -194 -318 -194q-188 0 -273.5 120.5t-45.5 350.5zM395 451q-50 -277 123 -277 q79 0 153.5 94t121.5 226q4 130 -31.5 180.5t-112.5 50.5q-99 0 -164.5 -69t-89.5 -205zM475 1417l223 25l107 -273l-160 -22q-124 130 -170 270z" />
<glyph unicode="&#xe1;" horiz-adv-x="1351" d="M121 451q41 233 184 352t375 119q231 0 333.5 -118.5t61.5 -350.5l-35 -203q-6 -34 6.5 -41t49.5 6q47 17 84 -6t39 -70q2 -57 -37 -96.5t-111 -52.5q-145 -27 -229 18t-84 166q-129 -194 -318 -194q-188 0 -273.5 120.5t-45.5 350.5zM395 451q-50 -277 123 -277 q79 0 153.5 94t121.5 226q4 130 -31.5 180.5t-112.5 50.5q-99 0 -164.5 -69t-89.5 -205zM580 1169l200 273l238 -25q-91 -136 -264 -270z" />
<glyph unicode="&#xe2;" horiz-adv-x="1351" d="M121 451q41 233 184 352t375 119q231 0 333.5 -118.5t61.5 -350.5l-35 -203q-6 -34 6.5 -41t49.5 6q47 17 84 -6t39 -70q2 -57 -37 -96.5t-111 -52.5q-145 -27 -229 18t-84 166q-129 -194 -318 -194q-188 0 -273.5 120.5t-45.5 350.5zM395 451q-50 -277 123 -277 q79 0 153.5 94t121.5 226q4 130 -31.5 180.5t-112.5 50.5q-99 0 -164.5 -69t-89.5 -205zM410 1171q86 146 219 271h272q88 -120 125 -271l-203 -24l-78 186l-143 -186z" />
<glyph unicode="&#xe3;" horiz-adv-x="1351" d="M121 451q41 233 184 352t375 119q231 0 333.5 -118.5t61.5 -350.5l-35 -203q-6 -34 6.5 -41t49.5 6q47 17 84 -6t39 -70q2 -57 -37 -96.5t-111 -52.5q-145 -27 -229 18t-84 166q-129 -194 -318 -194q-188 0 -273.5 120.5t-45.5 350.5zM311 1192q27 98 95 161.5t174 63.5 q51 0 95.5 -16.5t69 -36.5t50 -36.5t43.5 -16.5q60 0 90 104l159 -43q-29 -99 -96 -162t-172 -63q-48 0 -89.5 16.5t-65 36.5t-51.5 36.5t-52 16.5q-31 0 -54.5 -27.5t-35.5 -76.5zM395 451q-50 -277 123 -277q79 0 153.5 94t121.5 226q4 130 -31.5 180.5t-112.5 50.5 q-99 0 -164.5 -69t-89.5 -205z" />
<glyph unicode="&#xe4;" horiz-adv-x="1351" d="M121 451q41 233 184 352t375 119q231 0 333.5 -118.5t61.5 -350.5l-35 -203q-6 -34 6.5 -41t49.5 6q47 17 84 -6t39 -70q2 -57 -37 -96.5t-111 -52.5q-145 -27 -229 18t-84 166q-129 -194 -318 -194q-188 0 -273.5 120.5t-45.5 350.5zM391 1266q7 51 52 85.5t104 34.5 t91 -34t24 -86q-9 -51 -53.5 -85t-104.5 -34q-58 0 -90 34t-23 85zM395 451q-50 -277 123 -277q79 0 153.5 94t121.5 226q4 130 -31.5 180.5t-112.5 50.5q-99 0 -164.5 -69t-89.5 -205zM791 1266q8 51 52.5 85.5t102.5 34.5q59 0 91 -34t24 -86q-9 -51 -53.5 -85t-104.5 -34 q-58 0 -89.5 34t-22.5 85z" />
<glyph unicode="&#xe5;" horiz-adv-x="1351" d="M121 451q41 233 184 352t375 119q231 0 333.5 -118.5t61.5 -350.5l-35 -203q-6 -34 6.5 -41t49.5 6q47 17 84 -6t39 -70q2 -57 -37 -96.5t-111 -52.5q-145 -27 -229 18t-84 166q-129 -194 -318 -194q-188 0 -273.5 120.5t-45.5 350.5zM395 451q-50 -277 123 -277 q79 0 153.5 94t121.5 226q4 130 -31.5 180.5t-112.5 50.5q-99 0 -164.5 -69t-89.5 -205zM543 1327q9 74 69 126t136 52q73 0 117.5 -52t35.5 -126q-12 -76 -71.5 -128t-133.5 -52q-77 0 -121 52t-32 128zM649 1327q-5 -29 14 -51.5t48 -22.5t54 22.5t30 51.5t-13 50.5 t-47 21.5q-30 0 -56 -21.5t-30 -50.5z" />
<glyph unicode="&#xe6;" horiz-adv-x="1847" d="M119 451q41 233 185 352t376 119q220 0 321 -107q140 107 361 107q109 0 186 -26.5t113.5 -70.5t48.5 -94t2 -106q-11 -63 -44.5 -112.5t-78 -80t-103.5 -51.5t-113.5 -30t-116.5 -12.5t-103.5 -2.5t-83.5 4q7 -81 55.5 -121.5t128.5 -40.5q73 0 170.5 32t161.5 79 l41 -201q-73 -53 -181 -80.5t-226 -27.5q-187 0 -275 98l-12 -78h-187l13 74q-122 -94 -303 -94q-203 0 -290 119t-46 352zM393 451q-24 -136 22 -205.5t156 -69.5q124 0 195 86l33 191q49 272 -154 272q-99 0 -163 -68.5t-89 -205.5zM1087 508q93 1 160 10.5t101 21t54 31 t24.5 31t7.5 31.5q5 35 -20.5 63.5t-86.5 28.5q-89 0 -150 -54.5t-90 -162.5z" />
<glyph unicode="&#xe7;" horiz-adv-x="1146" d="M117 453q41 233 184.5 351t376.5 118q84 0 186 -27q65 -19 107.5 -54t59.5 -73.5t20 -80t-5 -74.5t-22 -56q-32 -62 -90.5 -88.5t-110.5 -7.5q-36 14 -44.5 60.5t24.5 94.5q24 35 -17 68q-52 41 -122 41q-204 0 -273 -272q-36 -135 7.5 -205t148.5 -70q75 0 183.5 32.5 t170.5 78.5l41 -201q-126 -89 -336 -106l-51 -76q76 0 129 -43t39 -119q-9 -51 -39 -88t-74 -57t-90.5 -29.5t-97.5 -9.5q-90 0 -152 24l23 131q72 -28 147 -28q97 0 105 57q7 33 -34.5 44.5t-92.5 4.5q-43 -4 -56 19q-6 11 0 35t17 42l59 97q-188 24 -272.5 142t-48.5 325z " />
<glyph unicode="&#xe8;" horiz-adv-x="1140" d="M117 453q41 233 184.5 351t376.5 118q109 0 186 -26.5t113.5 -70.5t48.5 -94t2 -106q-11 -64 -46 -114t-81 -80.5t-106.5 -51.5t-116.5 -29.5t-118 -11.5t-104 -1.5t-81 5.5q1 -81 46.5 -122.5t125.5 -41.5q75 0 183.5 32.5t170.5 78.5l41 -201q-73 -53 -181 -80.5 t-226 -27.5q-235 0 -346.5 120.5t-71.5 352.5zM408 508q91 1 157 10.5t99.5 21t53.5 31t24.5 31.5t7.5 31q5 36 -15 64t-73 28q-181 0 -254 -217zM438 1417l224 25l106 -273l-160 -22q-124 130 -170 270z" />
<glyph unicode="&#xe9;" horiz-adv-x="1140" d="M117 453q41 233 184.5 351t376.5 118q109 0 186 -26.5t113.5 -70.5t48.5 -94t2 -106q-11 -64 -46 -114t-81 -80.5t-106.5 -51.5t-116.5 -29.5t-118 -11.5t-104 -1.5t-81 5.5q1 -81 46.5 -122.5t125.5 -41.5q75 0 183.5 32.5t170.5 78.5l41 -201q-73 -53 -181 -80.5 t-226 -27.5q-235 0 -346.5 120.5t-71.5 352.5zM408 508q91 1 157 10.5t99.5 21t53.5 31t24.5 31.5t7.5 31q5 36 -15 64t-73 28q-181 0 -254 -217zM551 1169l201 273l237 -25q-91 -136 -264 -270z" />
<glyph unicode="&#xea;" horiz-adv-x="1140" d="M117 453q41 233 184.5 351t376.5 118q109 0 186 -26.5t113.5 -70.5t48.5 -94t2 -106q-11 -64 -46 -114t-81 -80.5t-106.5 -51.5t-116.5 -29.5t-118 -11.5t-104 -1.5t-81 5.5q1 -81 46.5 -122.5t125.5 -41.5q75 0 183.5 32.5t170.5 78.5l41 -201q-73 -53 -181 -80.5 t-226 -27.5q-235 0 -346.5 120.5t-71.5 352.5zM385 1171q86 146 219 271h273q87 -118 124 -271l-202 -24l-78 186l-143 -186zM408 508q91 1 157 10.5t99.5 21t53.5 31t24.5 31.5t7.5 31q5 36 -15 64t-73 28q-181 0 -254 -217z" />
<glyph unicode="&#xeb;" horiz-adv-x="1140" d="M117 453q41 233 184.5 351t376.5 118q109 0 186 -26.5t113.5 -70.5t48.5 -94t2 -106q-11 -64 -46 -114t-81 -80.5t-106.5 -51.5t-116.5 -29.5t-118 -11.5t-104 -1.5t-81 5.5q1 -81 46.5 -122.5t125.5 -41.5q75 0 183.5 32.5t170.5 78.5l41 -201q-73 -53 -181 -80.5 t-226 -27.5q-235 0 -346.5 120.5t-71.5 352.5zM358 1266q7 51 52 85.5t104 34.5t91 -34t24 -86q-9 -51 -53.5 -85t-104.5 -34q-58 0 -90 34t-23 85zM408 508q91 1 157 10.5t99.5 21t53.5 31t24.5 31.5t7.5 31q5 36 -15 64t-73 28q-181 0 -254 -217zM758 1266q8 51 52.5 85.5 t102.5 34.5q59 0 91 -34t24 -86q-9 -51 -53.5 -85t-104.5 -34q-58 0 -89.5 34t-22.5 85z" />
<glyph unicode="&#xec;" horiz-adv-x="735" d="M143 246l115 655h277l-115 -651q-6 -34 7 -40t48 7q48 15 85.5 -8t37.5 -70q3 -55 -36 -94.5t-111 -52.5q-164 -34 -250 30t-58 224zM201 1417l223 25l106 -273l-159 -22q-124 130 -170 270z" />
<glyph unicode="&#xed;" horiz-adv-x="735" d="M143 246l115 655h277l-115 -651q-6 -34 7 -40t48 7q48 15 85.5 -8t37.5 -70q3 -55 -36 -94.5t-111 -52.5q-164 -34 -250 30t-58 224zM301 1169l201 273l237 -25q-91 -136 -264 -270z" />
<glyph unicode="&#xee;" horiz-adv-x="735" d="M127 1171q86 146 219 271h272q88 -120 125 -271l-202 -24l-78 186l-144 -186zM143 246l115 655h277l-115 -651q-6 -34 7 -40t48 7q48 15 85.5 -8t37.5 -70q3 -55 -36 -94.5t-111 -52.5q-164 -34 -250 30t-58 224z" />
<glyph unicode="&#xef;" horiz-adv-x="735" d="M115 1266q8 51 52.5 85.5t102.5 34.5q59 0 91 -34t24 -86q-9 -51 -53.5 -85t-104.5 -34q-58 0 -89.5 34t-22.5 85zM143 246l115 655h277l-115 -651q-6 -34 7 -40t48 7q48 15 85.5 -8t37.5 -70q3 -55 -36 -94.5t-111 -52.5q-164 -34 -250 30t-58 224zM514 1266 q7 51 52 85.5t104 34.5t90.5 -34t23.5 -86q-9 -51 -53 -85t-104 -34q-58 0 -90 34t-23 85z" />
<glyph unicode="&#xf0;" horiz-adv-x="1200" d="M113 432q38 222 180.5 335.5t374.5 113.5q74 0 151 -17q-23 115 -71 217l-195 -84q-12 34 -34 71t-38 57l-16 20l194 84q-62 88 -145 145l231 101q80 -48 148 -144l174 76q67 -63 96 -143l-186 -82q156 -334 90 -750q-36 -223 -180.5 -337.5t-376.5 -114.5t-334 114 t-63 338zM387 432q-45 -254 158 -254t248 254q46 254 -158 254q-202 0 -248 -254z" />
<glyph unicode="&#xf1;" horiz-adv-x="1402" d="M104 762q-2 57 37.5 96.5t112.5 52.5q156 31 243.5 -27.5t69.5 -203.5q142 242 338 242q148 0 208 -92t30 -259l-58 -323q-6 -34 6.5 -40t49.5 7q48 15 85.5 -8t37.5 -70q0 -56 -38.5 -95t-109.5 -52q-164 -34 -250.5 30t-58.5 224l55 319q3 20 4.5 32.5t2.5 32.5 t-2 32.5t-10 25.5t-20.5 19t-33.5 6q-56 0 -125.5 -91t-122.5 -211t-76 -223l-10 -57l-23 -129h-278l115 651q6 34 -6.5 41t-49.5 -6q-47 -17 -84 6t-39 70zM362 1192q27 98 95 161.5t174 63.5q51 0 95.5 -16.5t69 -36.5t50 -36.5t43.5 -16.5q60 0 90 104l160 -43 q-29 -99 -96.5 -162t-172.5 -63q-48 0 -89.5 16.5t-65 36.5t-51.5 36.5t-52 16.5q-31 0 -54.5 -27.5t-35.5 -76.5z" />
<glyph unicode="&#xf2;" horiz-adv-x="1200" d="M119 453q41 233 184.5 351t376.5 118q231 0 332.5 -118t60.5 -351q-41 -234 -184.5 -353.5t-374.5 -119.5q-232 0 -334 119.5t-61 353.5zM391 453q-32 -138 4.5 -206.5t136.5 -68.5q201 0 265 275q64 272 -140 272q-202 0 -266 -272zM463 1417l223 25l107 -273l-160 -22 q-124 130 -170 270z" />
<glyph unicode="&#xf3;" horiz-adv-x="1200" d="M119 453q41 233 184.5 351t376.5 118q231 0 332.5 -118t60.5 -351q-41 -234 -184.5 -353.5t-374.5 -119.5q-232 0 -334 119.5t-61 353.5zM391 453q-32 -138 4.5 -206.5t136.5 -68.5q201 0 265 275q64 272 -140 272q-202 0 -266 -272zM612 1169l201 273l238 -25 q-90 -135 -265 -270z" />
<glyph unicode="&#xf4;" horiz-adv-x="1200" d="M119 453q41 233 184.5 351t376.5 118q231 0 332.5 -118t60.5 -351q-41 -234 -184.5 -353.5t-374.5 -119.5q-232 0 -334 119.5t-61 353.5zM391 453q-32 -138 4.5 -206.5t136.5 -68.5q201 0 265 275q64 272 -140 272q-202 0 -266 -272zM416 1171q86 146 219 271h272 q88 -120 125 -271l-203 -24l-77 186l-144 -186z" />
<glyph unicode="&#xf5;" horiz-adv-x="1200" d="M119 453q41 233 184.5 351t376.5 118q231 0 332.5 -118t60.5 -351q-41 -234 -184.5 -353.5t-374.5 -119.5q-232 0 -334 119.5t-61 353.5zM344 1192q27 98 95 161.5t173 63.5q51 0 95.5 -16.5t69 -36.5t50 -36.5t43.5 -16.5q61 0 91 104l159 -43q-29 -99 -96 -162 t-172 -63q-48 0 -89.5 16.5t-65 36.5t-51.5 36.5t-52 16.5q-31 0 -54.5 -27.5t-35.5 -76.5zM391 453q-32 -138 4.5 -206.5t136.5 -68.5q201 0 265 275q64 272 -140 272q-202 0 -266 -272z" />
<glyph unicode="&#xf6;" horiz-adv-x="1200" d="M119 453q41 233 184.5 351t376.5 118q231 0 332.5 -118t60.5 -351q-41 -234 -184.5 -353.5t-374.5 -119.5q-232 0 -334 119.5t-61 353.5zM391 453q-32 -138 4.5 -206.5t136.5 -68.5q201 0 265 275q64 272 -140 272q-202 0 -266 -272zM391 1266q7 51 52 85.5t104 34.5 t91 -34t24 -86q-9 -51 -53.5 -85t-104.5 -34q-58 0 -90 34t-23 85zM791 1266q8 51 52.5 85.5t102.5 34.5q59 0 91 -34t24 -86q-9 -51 -53.5 -85t-104.5 -34q-58 0 -89.5 34t-22.5 85z" />
<glyph unicode="&#xf7;" horiz-adv-x="1024" d="M92 381l33 184h809l-33 -184h-809zM334 170q8 46 50 79.5t97 33.5q53 0 84 -33.5t23 -79.5q-9 -49 -51.5 -81t-96.5 -32q-55 0 -85 31.5t-21 81.5zM442 778q8 47 49.5 80t96.5 33q53 0 84.5 -33.5t23.5 -79.5q-9 -49 -51 -80.5t-96 -31.5q-56 0 -86 31.5t-21 80.5z" />
<glyph unicode="&#xf8;" horiz-adv-x="1200" d="M119 453q41 233 184.5 351t376.5 118q62 0 115 -9l114 201l97 -43l-107 -188q232 -96 174 -430q-41 -234 -184.5 -353.5t-374.5 -119.5q-61 0 -123 10l-110 -199l-99 45l105 184q-226 101 -168 433zM391 453q-37 -153 15 -224l280 494q-8 2 -29 2q-202 0 -266 -272z M500 180q10 -2 32 -2q201 0 265 275q37 154 -17 223z" />
<glyph unicode="&#xf9;" horiz-adv-x="1433" d="M137 764q0 56 38.5 95t109.5 52q164 34 250.5 -30t58.5 -224l-55 -319q-3 -20 -4.5 -32.5t-2.5 -32.5t2 -32.5t10 -25.5t20.5 -19t33.5 -6q55 0 123.5 90t121.5 208.5t77 222.5l12 61l22 129h279l-115 -651q-6 -34 7.5 -41t48.5 6q47 17 83.5 -6t38.5 -70 q2 -57 -36.5 -96.5t-110.5 -52.5q-159 -31 -246 26.5t-69 204.5q-138 -241 -338 -241q-148 0 -208 91.5t-30 258.5l57 323q6 34 -6 40t-49 -7q-48 -15 -85.5 8t-37.5 70zM582 1417l223 25l106 -273l-159 -22q-124 130 -170 270z" />
<glyph unicode="&#xfa;" horiz-adv-x="1433" d="M137 764q0 56 38.5 95t109.5 52q164 34 250.5 -30t58.5 -224l-55 -319q-3 -20 -4.5 -32.5t-2.5 -32.5t2 -32.5t10 -25.5t20.5 -19t33.5 -6q55 0 123.5 90t121.5 208.5t77 222.5l12 61l22 129h279l-115 -651q-6 -34 7.5 -41t48.5 6q47 17 83.5 -6t38.5 -70 q2 -57 -36.5 -96.5t-110.5 -52.5q-159 -31 -246 26.5t-69 204.5q-138 -241 -338 -241q-148 0 -208 91.5t-30 258.5l57 323q6 34 -6 40t-49 -7q-48 -15 -85.5 8t-37.5 70zM702 1169l201 273l238 -25q-91 -136 -264 -270z" />
<glyph unicode="&#xfb;" horiz-adv-x="1433" d="M137 764q0 56 38.5 95t109.5 52q164 34 250.5 -30t58.5 -224l-55 -319q-3 -20 -4.5 -32.5t-2.5 -32.5t2 -32.5t10 -25.5t20.5 -19t33.5 -6q55 0 123.5 90t121.5 208.5t77 222.5l12 61l22 129h279l-115 -651q-6 -34 7.5 -41t48.5 6q47 17 83.5 -6t38.5 -70 q2 -57 -36.5 -96.5t-110.5 -52.5q-159 -31 -246 26.5t-69 204.5q-138 -241 -338 -241q-148 0 -208 91.5t-30 258.5l57 323q6 34 -6 40t-49 -7q-48 -15 -85.5 8t-37.5 70zM504 1171q86 146 219 271h272q88 -120 125 -271l-202 -24l-78 186l-144 -186z" />
<glyph unicode="&#xfc;" horiz-adv-x="1433" d="M137 764q0 56 38.5 95t109.5 52q164 34 250.5 -30t58.5 -224l-55 -319q-3 -20 -4.5 -32.5t-2.5 -32.5t2 -32.5t10 -25.5t20.5 -19t33.5 -6q55 0 123.5 90t121.5 208.5t77 222.5l12 61l22 129h279l-115 -651q-6 -34 7.5 -41t48.5 6q47 17 83.5 -6t38.5 -70 q2 -57 -36.5 -96.5t-110.5 -52.5q-159 -31 -246 26.5t-69 204.5q-138 -241 -338 -241q-148 0 -208 91.5t-30 258.5l57 323q6 34 -6 40t-49 -7q-48 -15 -85.5 8t-37.5 70zM492 1266q8 51 52.5 85.5t102.5 34.5q59 0 91 -34t24 -86q-9 -51 -53.5 -85t-104.5 -34 q-58 0 -89.5 34t-22.5 85zM891 1266q7 51 52 85.5t104 34.5t90.5 -34t23.5 -86q-9 -51 -53 -85t-104 -34q-58 0 -90 34t-23 85z" />
<glyph unicode="&#xfd;" horiz-adv-x="1333" d="M127 764q0 56 38 95t109 52q164 34 251 -30t59 -224l-56 -319q-5 -31 -6.5 -50.5t1.5 -45t19.5 -39t45.5 -13.5q56 0 125 90.5t121 209.5t77 223l11 55v4l22 129h279l-168 -954q-34 -199 -193 -319t-405 -120q-152 0 -291 41l39 228q141 -56 291 -56q241 0 280 226 l47 274q-138 -241 -338 -241q-148 0 -207.5 91.5t-29.5 258.5l57 323q6 34 -6 40t-49 -7q-48 -15 -85.5 8t-37.5 70zM647 1169l201 273l237 -25q-91 -136 -264 -270z" />
<glyph unicode="&#xfe;" horiz-adv-x="1335" d="M80 -512l313 1776q6 34 -6 40.5t-49 -6.5q-47 -17 -84 6t-39 70q-1 57 38 96t112 54q74 18 136 8.5t106 -38t62.5 -86.5t4.5 -138l-76 -424q116 76 276 76q203 0 289 -118t45 -351q-41 -234 -184.5 -353.5t-374.5 -119.5q-109 0 -198 28l-93 -520h-278zM528 451 q-25 -137 15 -206t139 -69q203 0 252 275q25 137 -20.5 205.5t-155.5 68.5q-127 0 -197 -88z" />
<glyph unicode="&#xff;" horiz-adv-x="1333" d="M127 764q0 56 38 95t109 52q164 34 251 -30t59 -224l-56 -319q-5 -31 -6.5 -50.5t1.5 -45t19.5 -39t45.5 -13.5q56 0 125 90.5t121 209.5t77 223l11 55v4l22 129h279l-168 -954q-34 -199 -193 -319t-405 -120q-152 0 -291 41l39 228q141 -56 291 -56q241 0 280 226 l47 274q-138 -241 -338 -241q-148 0 -207.5 91.5t-29.5 258.5l57 323q6 34 -6 40t-49 -7q-48 -15 -85.5 8t-37.5 70zM475 1266q7 51 52 85.5t104 34.5t90.5 -34t23.5 -86q-9 -51 -53 -85t-104 -34q-58 0 -90 34t-23 85zM874 1266q7 51 52 85.5t104 34.5t91 -34t24 -86 q-9 -51 -53.5 -85t-104.5 -34q-58 0 -90 34t-23 85z" />
<glyph unicode="&#x152;" horiz-adv-x="1855" d="M168 737q39 217 165.5 384t325.5 260.5t441 93.5h796l-38 -228h-543l-88 -504h364l-41 -227h-364l-45 -250q-2 -15 8 -27t25 -12h524l-39 -227h-817q-242 0 -409 93t-235.5 260t-29.5 384zM444 737q-38 -220 78 -361t336 -149l180 1020q-223 -8 -389.5 -149.5 t-204.5 -360.5z" />
<glyph unicode="&#x153;" horiz-adv-x="1814" d="M119 453q41 233 184.5 351t376.5 118q220 0 321 -107q140 107 361 107q105 0 179.5 -26.5t110.5 -70.5t48 -94.5t2 -105.5q-11 -63 -44 -112.5t-76.5 -80t-101.5 -51.5t-111.5 -30t-115 -12.5t-102 -2.5t-82.5 4q7 -81 55.5 -121.5t128.5 -40.5q73 0 170.5 32t161.5 79 l41 -201q-73 -53 -181 -80.5t-226 -27.5q-230 0 -340 110q-140 -110 -365 -110q-232 0 -334 119.5t-61 353.5zM393 453q-30 -138 7 -206.5t137 -68.5q201 0 262 275q58 272 -144 272q-204 0 -262 -272zM1087 508q93 1 161 10.5t103.5 21t57 30.5t27 31.5t8.5 31.5 q5 35 -20.5 63.5t-86.5 28.5q-90 0 -155.5 -55.5t-94.5 -161.5z" />
<glyph unicode="&#x178;" horiz-adv-x="1351" d="M176 1337q3 57 40.5 96t109.5 52q234 46 297 -131l131 -361l348 482h344l-590 -775l-123 -700h-276l123 698l-211 510q-13 33 -31.5 46.5t-48.5 5.5q-48 -14 -82.5 8.5t-30.5 68.5zM547 1767q8 51 52.5 86t102.5 35q59 0 91 -34.5t24 -86.5q-9 -51 -53.5 -84.5 t-104.5 -33.5q-58 0 -89.5 33.5t-22.5 84.5zM946 1767q8 51 53 86t103 35q59 0 91 -34.5t24 -86.5q-9 -51 -53.5 -84.5t-104.5 -33.5q-58 0 -90 33.5t-23 84.5z" />
<glyph unicode="&#x2c6;" horiz-adv-x="749" d="M270 1630q86 146 219 271h273q88 -120 125 -271l-203 -24l-78 186l-143 -186z" />
<glyph unicode="&#x2dc;" horiz-adv-x="970" d="M319 1651q27 98 95 161.5t174 63.5q51 0 95.5 -16.5t69 -37t50 -37t43.5 -16.5q60 0 90 105l160 -43q-29 -99 -96.5 -162t-172.5 -63q-48 0 -89.5 16.5t-65 36.5t-51.5 36.5t-52 16.5q-31 0 -54.5 -27.5t-35.5 -76.5z" />
<glyph unicode="&#x2000;" horiz-adv-x="975" />
<glyph unicode="&#x2001;" horiz-adv-x="1950" />
<glyph unicode="&#x2002;" horiz-adv-x="975" />
<glyph unicode="&#x2003;" horiz-adv-x="1950" />
<glyph unicode="&#x2004;" horiz-adv-x="650" />
<glyph unicode="&#x2005;" horiz-adv-x="487" />
<glyph unicode="&#x2006;" horiz-adv-x="325" />
<glyph unicode="&#x2007;" horiz-adv-x="325" />
<glyph unicode="&#x2008;" horiz-adv-x="243" />
<glyph unicode="&#x2009;" horiz-adv-x="390" />
<glyph unicode="&#x200a;" horiz-adv-x="108" />
<glyph unicode="&#x2010;" horiz-adv-x="780" d="M57 395l33 193h637l-33 -193h-637z" />
<glyph unicode="&#x2011;" horiz-adv-x="780" d="M57 395l33 193h637l-33 -193h-637z" />
<glyph unicode="&#x2012;" horiz-adv-x="780" d="M57 395l33 193h637l-33 -193h-637z" />
<glyph unicode="&#x2013;" horiz-adv-x="872" d="M-12 395l32 193h873l-33 -193h-872z" />
<glyph unicode="&#x2014;" horiz-adv-x="1234" d="M-14 395l32 193h1235l-32 -193h-1235z" />
<glyph unicode="&#x2018;" horiz-adv-x="585" d="M303 1536h234l47 -444l-166 -39q-43 104 -75.5 238t-39.5 245z" />
<glyph unicode="&#x2019;" horiz-adv-x="585" d="M221 1092l207 444h234q-47 -111 -126.5 -245t-160.5 -238z" />
<glyph unicode="&#x201a;" horiz-adv-x="585" d="M-10 -211l207 444h233q-47 -111 -126.5 -245t-160.5 -238z" />
<glyph unicode="&#x201c;" horiz-adv-x="952" d="M299 1536h233l48 -444l-166 -39q-43 104 -75.5 238t-39.5 245zM666 1536h233l47 -444l-166 -39q-43 103 -75 237t-39 246z" />
<glyph unicode="&#x201d;" horiz-adv-x="952" d="M223 1092l207 444h234q-47 -111 -126.5 -245t-160.5 -238zM590 1092l207 444h233q-47 -111 -126.5 -245t-160.5 -238z" />
<glyph unicode="&#x201e;" horiz-adv-x="952" d="M-8 -211l207 444h233q-47 -111 -126.5 -245t-160.5 -238zM358 -211l207 444h234q-47 -111 -126.5 -245t-160.5 -238z" />
<glyph unicode="&#x2022;" horiz-adv-x="864" d="M238 776q18 94 99.5 158.5t188.5 64.5t165.5 -65t41.5 -158q-17 -97 -98 -160t-189 -63t-166.5 63t-41.5 160z" />
<glyph unicode="&#x2026;" horiz-adv-x="1779" d="M55 152q11 64 66.5 107.5t128.5 43.5t112.5 -43.5t28.5 -107.5q-12 -66 -66.5 -109t-127.5 -43q-74 0 -114 43t-28 109zM662 152q11 64 66 107.5t128 43.5t112.5 -43.5t28.5 -107.5q-12 -66 -66.5 -109t-127.5 -43t-113 43t-28 109zM1274 152q11 64 66 107.5t128 43.5 t113 -43.5t29 -107.5q-12 -66 -67 -109t-128 -43t-113 43t-28 109z" />
<glyph unicode="&#x202f;" horiz-adv-x="390" />
<glyph unicode="&#x2039;" horiz-adv-x="655" d="M106.5 551.5q8.5 44.5 36.5 77.5l244 293h256l-330 -383l191 -359h-242l-147 293q-17 34 -8.5 78.5z" />
<glyph unicode="&#x203a;" horiz-adv-x="655" d="M41 180l330 383l-191 359h242l147 -293q17 -34 8.5 -78.5t-36.5 -77.5l-244 -293h-256z" />
<glyph unicode="&#x205f;" horiz-adv-x="487" />
<glyph unicode="&#x20ac;" horiz-adv-x="1292" d="M104 362l31 177h131q58 191 204 289t359 98q117 0 216 -28t155 -81l-110 -201q-49 47 -135.5 79t-159.5 32q-87 0 -152 -47.5t-100 -140.5h508l-97 -177h-440q1 -92 49 -138t135 -46q73 0 170.5 32t161.5 79l41 -201q-73 -53 -181 -80.5t-226 -27.5q-211 0 -323 96.5 t-103 285.5h-134z" />
<glyph unicode="&#x2122;" horiz-adv-x="1777" d="M262 1317l27 158h573l-26 -158h-199l-86 -490h-193l86 490h-182zM856 827l68 392q21 112 101.5 189t184.5 77q124 0 181 -96q83 96 213 96q101 0 156.5 -77.5t35.5 -188.5l-67 -392h-193l68 392q6 34 -11.5 56.5t-48.5 22.5t-56.5 -22.5t-31.5 -56.5l-67 -392h-193 l68 392q6 34 -11.5 56.5t-48.5 22.5t-56.5 -22.5t-31.5 -56.5l-67 -392h-193z" />
<glyph unicode="&#xe000;" horiz-adv-x="921" d="M0 0v922h922v-922h-922z" />
</font>
</defs>
</svg>
